<svg id="Layer_1" data-name="Layer 1" xmlns="http://www.w3.org/2000/svg" viewBox="0 0 659.64 275.45"><defs><style>.cls-1{fill-rule:evenodd;}</style></defs><title>crowd1</title><path d="M473.83,234.43c-1.66-.39-4,0.91-5.5,1.6-0.9.42-1.83,0.75-2.73,1.17-0.58.26-1.72,1.28-2.33,1.12-1.54-.4-3.37,1.31-3.92,2.57-0.75,1.7-3,2.8-4.35,4-3.19,2.87-7.53,4.62-9.53,8.6a14.77,14.77,0,0,1-3.55,4.33c-0.83.78-1.71,1.49-2.59,2.22s-2.48,1-3.65,1.6a1.31,1.31,0,0,0,.06-0.53c-0.59.63-1.58,0-2.13-.38a17.9,17.9,0,0,0,2.26.13A3.75,3.75,0,0,0,437,259.5c-0.38-.37-1,0.13-1.16-0.57a6.14,6.14,0,0,1,1.44.18c-0.93-.48-2.36-1.09-2.71-1.94,0.75-.69,2,0.62,2.78-0.18-0.47-.13-1-0.05-1.44-0.17a0.67,0.67,0,0,1,.37-0.31,1.62,1.62,0,0,0-.83,0c-0.21-.15.83-0.67,0.28-0.69a3.4,3.4,0,0,0,.86-1.31,3.86,3.86,0,0,1-2.19-.08,4.46,4.46,0,0,0,2.16-.52c0.13-1.36-.55-0.57-1.3-0.56a0.78,0.78,0,0,1,.38-0.15,9,9,0,0,0-1.06.1,0.9,0.9,0,0,0,.61.05,1,1,0,0,1-1.37-.33,1.26,1.26,0,0,0,1.17-.07c0.79-.39.18-0.61,0.67-1.13-1,.81-2.7,0-3.41-0.78a8.26,8.26,0,0,0,3.09.19,14.71,14.71,0,0,1-2.93-.57,2,2,0,0,1-1.1-.94c-0.43-.84.24-1.3-0.88-1.38-1.3-.09-3-2-4.24-2.59-1.85-.94-2.48-0.85-4.07.38-0.74,0-1.41.1-2.11,0.15a10.25,10.25,0,0,1-1.62,1.33,4.8,4.8,0,0,0-2.47,3c-0.39,1.57.17,3.33,0.12,4.93-0.22,1.51-1.1,2.78-1.05,4.26A3.19,3.19,0,0,0,416,257.9c0.33,1.42.06,3.31-1.77,3.31,1.25,0.74,2.08,1,2.85-.4a1.94,1.94,0,0,1-1.16,1.55c-0.23.13,0.51,0.6,0.56,0.74a22.59,22.59,0,0,0-3.65,1.3,6.62,6.62,0,0,1-2.18.32c-1,0-1.61.56-1.92-.44a33.78,33.78,0,0,0-4.52-9.09c-1.81-2.66-3.88-5.13-5.81-7.7-2.16-2.86-4.89-5.07-7.4-7.62-1,1.07,2,3.68,2.57,4.43-0.64.7-1.41,0-2,1-0.28.52-1.54,1.63-.89,2s1.89,0,1.94,1c0,0.68,2.44.77,1.36-.34,1.09-.19,1.49,1.21,2,2a5.86,5.86,0,0,0,1.12,1.24,1.06,1.06,0,0,1,1.26.75c1.21,2.49,2.1,5.13,3.06,7.73a44.3,44.3,0,0,0,3,6.92c0.52,0.9,1.15,2.26,2.14,2.67a13.58,13.58,0,0,0,4.06.9,24.88,24.88,0,0,0,4,0c1.51-.11,2-0.56,2.4,1,0,2.35-1,4.3-1.85,6.41s-1.39,4.39,0,6.32c1.16,1.62-.32,4.65-1.25,6.14a29.1,29.1,0,0,0-2.81,4.73,11.23,11.23,0,0,0-.81,2.91,6.39,6.39,0,0,1-.47,1.68c-0.27.67-.07,1.17-0.32,1.86a39.26,39.26,0,0,0-2.21,7.69,42,42,0,0,0,1.07,8.85c1.16,5.17,3.2,10.07,3.57,15.4,0.19,2.84.21,5.68,0.32,8.51,0,1.39.13,2.78,0.26,4.17,0.07,0.67.14,1.33,0.24,2a4.86,4.86,0,0,0-.45.7,13.9,13.9,0,0,0-.06,4.49,5.93,5.93,0,0,0,.66,2.12c0.3,0.5,1.75.59,2.37,0.8,0.89,0.29,1.62.09,1.87,1s0.64,2,1,3c0.7,2.3.33,4.08,0,6.4a14.23,14.23,0,0,1-1.61,5c-1.17,2.29,3,2.17,4.16,2.21,1.87,0.08,4.56.29,3.81-2.41-0.25-.87-0.81-1.61-1.12-2.49-0.18-.51-0.23-2.46-0.53-2.74s0.12-1.2,0-1.76a12.55,12.55,0,0,1-.72-3.34c0-1.25,0-2.49.05-3.73,0-.5,0-1,0-1.49a7,7,0,0,0,1.29-1.16c1-1.2-.29-4.74-0.32-6.24,0-2.33.22-4.65,0.11-7-0.11-2.07-.77-4.08-0.75-6.16s0.27-4.29.2-6.43c-0.16-4.83-1.7-9.5-1.7-14.33,1.45,0,3.32,2,4.28,2.93a30.17,30.17,0,0,1,4.36,4.93c0.65,1,1.32,2,2,3s1.7,1.81,1.94,3c0.52,2.45,1.07,4.9,1.56,7.34a36.49,36.49,0,0,0,2.13,6.69,32.85,32.85,0,0,1,1.17,3.22,14.5,14.5,0,0,0,.38,3.24c0.27,0.91,1.49,1,2.33,1.11a24.4,24.4,0,0,0,1.07,2.71,14.2,14.2,0,0,1,1.56,5.87c0,1.71.26,3.48,0.27,5.22,0,1-.15,1.88.81,2.48a5.92,5.92,0,0,0,2.4,1.08,14.28,14.28,0,0,0,6-.82c2.92-1.08-1-2.71-1.92-3.5-1.21-1.06-2.68-2.71-2.94-4.23a6,6,0,0,0-1.18-2.39,13.57,13.57,0,0,1-.54-3c-0.1-1.1-.15-2.19-0.25-3.29s1.13-1.25,1.84-2,1.54-1.47,1.23-2.4a11.53,11.53,0,0,1-.88-2.84,0.24,0.24,0,0,0-.07.16,6.81,6.81,0,0,0-.49-2.54c-0.36-.66-0.48-0.31-0.65-1.2-0.13-.67-0.27-1.33-0.45-2-0.7-2.69-1.71-5.29-2.54-7.94s-1.06-5.4-2.27-7.86c-1.33-2.72-3-5.26-4.17-8.05a57.3,57.3,0,0,0-3.27-7.33,14.92,14.92,0,0,0-2.19-2.48c-0.45-1.49-1.11-2.91-1.63-4.38-0.86-2.44-.31-4.57.58-6.91,1-2.58,2.94-5.5,3.19-8.24a22.58,22.58,0,0,0,.48-3.28,10.65,10.65,0,0,1,.58-3.86c-0.33-1.32-.06-1.77.8-2.85a17.65,17.65,0,0,0,2.11-4.19c1.08-2.44,3.34-3.69,5.12-5.61s3.57-4.36,5.47-6.45c4.53-2.78,7.36-7.35,10.52-11.46,1.19-.63,2.15-0.08,3.42-0.45s2.21-1,3.35-1.45,1.75,0.67,2.86-.14a2.89,2.89,0,0,0,.88-1.06,0.83,0.83,0,0,0-.55-0.73c0.21-.32.44-0.62,0.68-0.93,0.4-.6-0.09-1.19-0.17-1.89-0.11-.92-1.67-1-2.39-1.34C469.16,237.42,473.77,236.25,473.83,234.43Zm-41.06,17.9c0.07,0.15.16,0.29,0.24,0.44C432.83,252.79,432.64,252.41,432.78,252.33Zm2.8,6.61a1.38,1.38,0,0,1-1.83-.54A8.62,8.62,0,0,1,435.57,258.94ZM433.14,252h0Zm-0.46-.36c0,0.11.44,0.2,0.23,0.29C432.88,251.84,432.49,251.75,432.68,251.65ZM413.14,354.89c-0.6-.15-0.09-1.38-0.07-1.88A9.43,9.43,0,0,0,413.14,354.89ZM413,352.11c0,0.46-.16-0.29,0,0h0Zm-0.17-.45c-0.15-1-.6-2.45.2-3C413.33,349.81,412.81,350.59,412.79,351.66Zm-2.89-51.47a1.07,1.07,0,0,1,.26-1.07A2.41,2.41,0,0,1,409.91,300.2Zm0.34-1.14s0,0,0,0h0Zm0.26-1.14c-0.21.42,0.19-.59,0,0h0Zm6.29-35c0.22,0,.22-0.18.45-0.17C417.28,262.95,416.86,263.07,416.79,262.93Zm-0.07-12.44h0Zm2.19,10.63c-0.08.3-.1-0.29,0,0h0Zm0,1.51h0Zm-0.15-2.11c-0.08.3-.1-0.29,0,0h0Zm0.09,0.3c-0.08.3-.1-0.29,0,0h0ZM419,262.4a1.83,1.83,0,0,1,0-1.13C419,261.69,419.3,262.19,419,262.4Zm29.4,80.15h0Zm0.17,0.83c0,0.92.68,1.56,0.47,2.47C448.89,345.16,448.39,344,448.61,343.38Zm-0.93-2.91a5.87,5.87,0,0,1,.59,1.87A2.6,2.6,0,0,1,447.69,340.46Zm-24.43-94.88h0Zm9,19.21c-0.07.3-.11-0.29,0,0h0Zm-0.77-.58a3,3,0,0,1,1.51.1C432.46,264.34,431.63,265,431.47,264.21Zm1.68-1.5c0.21,0.23-.24-0.19,0,0h0Zm0.23,0.15c0.11,0.14.46,0,.47,0.28A0.69,0.69,0,0,1,433.38,262.87Z" transform="translate(3.21 -129.77)"/><path d="M225.14,229.07a40.07,40.07,0,0,0,4.47,6.05c4,7.9,6.14,17.61,11.41,24.22,2.4,5.3,3.6,11.83,6.52,16.61a1.66,1.66,0,0,0,.09.32c-0.71.77-1.41,1.54-2.16,2.25a4.17,4.17,0,0,0-.54,1.13c0.1,0,.3-0.17.18,0,0.21,0,.24-0.16.44-0.16a5.81,5.81,0,0,1,2.22-2.71,0.85,0.85,0,0,0,.08.2,19.86,19.86,0,0,0-2.35,7.27,4.15,4.15,0,0,1-1.13.34c-0.14.14-.44,0.05-0.58,0.18-0.15-.05-0.17.06-0.32,0s-0.08.37,0,.16,0.05,0.09,0,.15a6.57,6.57,0,0,0,1.5,0c0.08,0.1-.08.22,0.12,0.27,2.17-.14,2.82-2.32,4.3-3.41a2.32,2.32,0,0,1-.35,1.6c-0.09.82-.25,1.2-0.31,2a7.75,7.75,0,0,0,.51,2.84,2.4,2.4,0,0,0,0,.32c-1.83,2.67-4.15,5.59-3.81,9.72,0.1,1.1.85,1.83,1,3.09-0.38,5.46.18,10.95-.38,16.11-0.29,2.65-.86,5.51-0.39,8.63a6.26,6.26,0,0,1,.39,2.45c0,0.45.78,0.15,0.76,0.64-0.42,3.07,1.6,5.43,1.54,8.38,0,1.5-.57,3.25-0.78,5a85.9,85.9,0,0,0-.52,9.41c0,1.21-.37,2.8.77,3.48,0.78,0.38.33-.55,1.15-0.4,0.59,0.19.74,0.82,1.42,0.9,2,8.51,4,16.88,5.88,25.51-2.08,8.29.34,14.57,2.18,21.25,0.21,0.74.4,1.54,0.6,2.36H273.9c-0.1-1-.2-1.93-0.23-2.88-0.12-2.83.11-5.25-.91-7.21-0.36-.7-1.14-1-1.28-1.67,1.23-7.7,6.5-15.9,2.95-24.09,1.29-6.84,2.57-13.74,4.23-20.23a8,8,0,0,0,2.81-1.15c-0.5-8.07.31-16.05-2.17-21.9a21.15,21.15,0,0,0-8.31-9.41c-0.41-1.41-1.76-2-2-3.48-0.27-1.26.21-2.62,0-4.37,0.51-2.32,2-3.68,3.07-5.42a7.16,7.16,0,0,1,.6-2.36,3.78,3.78,0,0,1,.86-0.22c0,0.39-.18.61-0.18,1a10.74,10.74,0,0,0,2.71,3.28,1.5,1.5,0,0,0,1.23.14s0,0,0-.05c0-.24-0.25-0.17-0.39-0.24s-0.23-.17-0.44-0.2a7.83,7.83,0,0,1-.91-2.54,14.78,14.78,0,0,0,2-3.91,1.25,1.25,0,0,1,.17-0.73,7.42,7.42,0,0,1,1.09.56c-0.42,1.44-1.18,2.4-1.28,4.24a6.26,6.26,0,0,0,2.65,4.27c0.21,0.05.39,0.14,0.52,0a2,2,0,0,0-.33-0.43c0.15-.12.5-0.22,0.42-0.46a2,2,0,0,1-.66.19,4.51,4.51,0,0,1-1.41-5.23c0.38-.4.58-1.07,0.94-1.5,0.43,0.68-.45,1.34-0.41,2,0.36,0.05.36-.38,0.66-0.42,0,0.2-.09.55,0.11,0.6,0.43-.24.44-1,0.76-1.46a7.91,7.91,0,0,0-1.4-7.06c0.34-.32,0-1.22.41-1.55a0.74,0.74,0,0,0,.61.22c0.06-1.08-.81-1.73-1.09-2.66,0.2-.43.24-1.08,0.43-1.49a1.07,1.07,0,0,0,1,.36c-0.12-.73-0.87-0.92-1.06-1.6a4.93,4.93,0,0,0-.33-2.55l0.36-.65a8.13,8.13,0,0,0,1.11,1c0.12-.78-0.49-1.14-0.49-1.65a5.79,5.79,0,0,1,1.2,1.57c0.19,0.43-.08,1.28.25,1.61a3.78,3.78,0,0,0-.66-3.69,5.62,5.62,0,0,0-.59-0.24l0.47-.81,0.14,0a16.06,16.06,0,0,1,1.57.36,2,2,0,0,0,1.44.26,4.22,4.22,0,0,0-1.61-.77,1.12,1.12,0,0,0-.74-0.63c2.28-2.29,4.58-4.56,6-7.7,1.48-3.67,4.41-5.88,5.89-9.54,5.57-5.51,7.5-14.68,12-21.25a4.12,4.12,0,0,1,1.27-.39,16.45,16.45,0,0,0,3.33-4.38c1.12-1,1.91-2.21,3.08-3.09,1-1.08,3.26-.93,3.32-3-0.85-.16-1.46.58-1.91,0.39,0.46-.08.35-0.77,0.51-1.17-1.55-.2-3.51.13-4.34,1-0.77-.43-2.07-0.33-2.82-0.77,0.63-2.17,3.15-4,2.55-6.18-1.91.27-1.84,2.53-3.32,3.22-1,2.51-2.84,4.27-4,6.69-0.65.34-1.32,0.67-1.92,1a5.31,5.31,0,0,0-.25,3.61c-3.24,6-7.62,10.81-11.53,16.1-2,2.56-1.87,7.31-4.34,9.4-1.59,1.57-2.89,3.43-4.35,5.12h0a2.71,2.71,0,0,1-.64-0.37,3.78,3.78,0,0,1-1.09-.91,11,11,0,0,0-1.37-2.34c-0.68-.6-1.21-1.35-1.88-2a18.46,18.46,0,0,1-2.27-1.63,14,14,0,0,0-1-1.5c-0.11-.34-0.22-0.68-0.35-1a10.1,10.1,0,0,0-2.36-5.33c0-.15-0.13-0.22-0.15-0.37-1.09-1.29-2.6-1.54-4.66-1.5,0,0-.06,0,0-0.06s0.1,0,.1,0a3.18,3.18,0,0,1-.87.11,3.56,3.56,0,0,0-1.31-.69,4.24,4.24,0,0,0-2.57.81,6.46,6.46,0,0,1-1.33,1.4,3.4,3.4,0,0,1-.79.86,3.72,3.72,0,0,1-1.63.38,1.07,1.07,0,0,0-.52.43c0.21,0.34.78,0.19,1.15,0.44a24.35,24.35,0,0,0-3.18,3.28c-0.88,1.35-1.59,2.93-2.92,3.66a2.57,2.57,0,0,0-1.2.52c0.62,0.31,1.14-.37,1.74-0.46-0.28.7-.57,1.35-0.86,2.1,0,0.06,0,.11-0.07.17-1.46-3.2-2.82-6.52-4.89-9.12a37.31,37.31,0,0,0-5.63-12c-1.08-1.75-2.19-3.43-3.32-5.42-1-1.64-2.65-4.33-2.44-6.44,0.18-1.74,1.63-3.45,1.8-5.54a25.19,25.19,0,0,0-.64-5.92c-2.77.39-.17,4-2.18,4.9-3.64-1.19-1.89-7.8-5-9.53-0.79,1.72.53,3.13,0.4,5,0.27,0.82,1.08,2.42.12,3-0.94-1.08-.89-3.84-2.57-3.73-0.93,1.7.93,3.29,0.65,4.76-1.08-1.46-.64-4-1.8-5.15-1.93,1.59.35,4.81,0,6.83-1.83-1-2.33-3.24-4.87-3.49C221.34,225.94,223.84,226.91,225.14,229.07Zm20.19,50.33a0.69,0.69,0,0,1,.24-0.58C245.76,279,245.36,279.21,245.33,279.4Zm69.16-48.15A4.74,4.74,0,0,1,313,232C312.82,231.65,313.88,231.34,314.5,231.26ZM280.09,269.4a2,2,0,0,0,.47.16c-0.25.28-.51,0.56-0.79,0.82A2.08,2.08,0,0,1,280.09,269.4Zm-5.53,31c0,0.42-.53.64-0.51,1.28A0.84,0.84,0,0,1,274.56,300.39Zm2.36-28.08c-0.07-.52-0.12-1-0.15-1.58,0.33,0.36.79,0.58,1.15,0.92a1,1,0,0,1,.17.06C277.7,271.89,277.29,272.09,276.92,272.31Zm2.42-1.52c-0.18.18-.36,0.37-0.56,0.53a0.45,0.45,0,0,0-.22.14,1.56,1.56,0,0,1-.84-0.88c0.32,0,.44.18,0.77,0.18a1.63,1.63,0,0,0-.92-1,3.73,3.73,0,0,1-.7-1.11c0.52,0.37,1.22,1.05,2,.77A3.7,3.7,0,0,1,279.34,270.79Zm-2.7-5.09a31.62,31.62,0,0,1,1.85,2.83C277.46,268.11,277.08,266.76,276.64,265.7Zm2,1.31c-0.24.07-.34-0.33-0.41-0.53A1.68,1.68,0,0,1,278.65,267Zm-2.06-2.21a8.92,8.92,0,0,1,.72.82,18.29,18.29,0,0,0,1.74,2.72,16.08,16.08,0,0,1-2.55-3.61A0.07,0.07,0,0,1,276.59,264.79Zm0.52,32.4a5.38,5.38,0,0,1-.22,1.65,9.55,9.55,0,0,0-.43-2.33C276.68,296.73,276.86,297,277.11,297.19Zm-0.74,1.75a2.2,2.2,0,0,1-.19.88l-0.75.56a4,4,0,0,1-.9,1.09C274.89,300.28,275.8,299.84,276.37,298.94Zm-2.24-5a4.49,4.49,0,0,1,.59,4.6,2.94,2.94,0,0,1-1.54,1A53.17,53.17,0,0,1,274.13,294Zm-9.3,61a1,1,0,0,0,.77-0.25c0.11,0,.12,0,0.12.13,0.62,5.2-1,11.49.65,15.84-3.31,7.2,1.08,15.14,1,23.32a6.86,6.86,0,0,1-.5,1.06A27.83,27.83,0,0,0,264,381.71C265.58,373.56,262.89,363.21,264.82,354.93Zm-12.16-91.29a8.05,8.05,0,0,1-.84,2.69A5,5,0,0,1,252.67,263.63Zm-0.93.4a0.14,0.14,0,0,1,.09.15c-0.19.58-.33,1.27-0.47,1.91a5.87,5.87,0,0,0-.27-0.57A13.19,13.19,0,0,1,251.74,264ZM249,280c-0.63.89-1.4,1.62-2,2.54a0.68,0.68,0,0,0,.09.3,2.9,2.9,0,0,1-1,.8,9.11,9.11,0,0,1,2.26-5C248.59,279.07,248.79,279.53,249,280Z" transform="translate(3.21 -129.77)"/><path d="M245.68,278.7h0Z" transform="translate(3.21 -129.77)"/><path d="M245.73,278.61c0.11-.23.23,0,0,0h0Z" transform="translate(3.21 -129.77)"/><path d="M276.94,269.64c0.07-.1.22,0.11,0.2,0.23A0.73,0.73,0,0,1,276.94,269.64Z" transform="translate(3.21 -129.77)"/><path d="M277.89,265.92h0Z" transform="translate(3.21 -129.77)"/><path d="M277.71,265.81s0,0,0,0h0Z" transform="translate(3.21 -129.77)"/><path d="M247.06,279.13h0l0,0Z" transform="translate(3.21 -129.77)"/><path d="M272.79,300.6l0-.08,0.07,0Z" transform="translate(3.21 -129.77)"/><path d="M311.29,233.06h0Z" transform="translate(3.21 -129.77)"/><path d="M138.25,277.93c0.2,0.83.42,1.66,0.62,2.51-0.72.46-1.43,0.93-2.14,1.36l2.17-1.23a37.08,37.08,0,0,1,.86,4.31,19,19,0,0,0,1.38,4.45c-1.4,1.57-2.49,2.85-2.82,3.35l2.95-3c1.89,4.5,5,9.93,6.07,10.82,1.55,1.28,3.93,6.29,4.72,8.59a32.94,32.94,0,0,1,1.18,6.81c0,0.33,1.11,7,1.11,7-0.1,2.21.16,2.81-1.13,4.32s-2.63,6.64-3.95,10.3a24.49,24.49,0,0,1-4.89,8.7,10.87,10.87,0,0,0-2.75,8.82c0.27,2.86-3.2,12.91-4.34,15.53s-2.48,10.63-2.59,14-1.78,11.2-3,13.72c-0.54,1.15-1.64,3.91-2.78,6.89h18.52a28.28,28.28,0,0,0,.47-5,4.66,4.66,0,0,1,.54-2.66,0.91,0.91,0,0,0,.34-0.54c0.25-.5,2.07-4.05,1.84-5.12s-0.52-2.16-.08-2.57a5.85,5.85,0,0,0,1.2-2.67c0.29-1.22,1.5-3.74,2.31-6s4.84-7.57,5.29-8.33,3.21-4.67,3.92-4.59,2.52,2,4.13,4.2,3.53,7.42,4.84,10.51a92.51,92.51,0,0,1,3.15,9.23c0.68,2.35,1.86,9.44,2.63,11.77a8.92,8.92,0,0,0,.85,1.74h18.32a4.26,4.26,0,0,1-1-.83c-0.63-.85.15-3.42,0.47-4.11s0-1.35-.43-3-1.81-5.55-2.25-7.28-1.62-8.13-2.22-10.22-1.32-8.82-2-10.73-1.09-9.21-1.43-12.11a7,7,0,0,0-2.35-4.56c-0.1-.06-0.41-4.07-0.41-4.07s0.09-.57.22-1.33a2.88,2.88,0,0,0-.29-1.59s-0.38-5.36-.27-5.36,0.56-.09.56-0.09,0.14,0,.14-1,0.18-3.37.22-4.88,0.56-5.55.56-6.85a70.32,70.32,0,0,1,1-8.11,72.05,72.05,0,0,0,1.3-9.05c0.06-2.35,3.59-6.16,4.67-7.5s1.55-1.59,5.42-1.87,6.78-3.53,7.6-4.07,6-4.88,6.87-6.33,0.11-2.2-.55-3.28a30.63,30.63,0,0,0-2.58-3.64c-1.21-1.46-6.2-6.46-8-8.48s-5.71-5.66-6.57-6.8-0.5-2.38-.25-3.81a6.15,6.15,0,0,0-.49-3,10.64,10.64,0,0,0-1.5-1.59,2.8,2.8,0,0,0-1.79-.93c-1-.16-0.62.24-1.36,0.49a0.82,0.82,0,0,1-1.21-.36c-0.29-.42-0.16-0.52-0.45-1a0.74,0.74,0,0,0-1-.15c-0.89.36-.47,3.1-0.64,3.45s0.47,0.31.7,0.67,0.79,1.22,1.33,2.13-0.32,1.17-.2,1.71a2.94,2.94,0,0,1,.08,1.3c-0.08.31-.45,0.33-1,0.08s-0.1-.78-0.57-1.35a1.47,1.47,0,0,0-1-.76,0.82,0.82,0,0,0-.91.39c-0.31.52,0.05,1.87,0.48,2.88a6.8,6.8,0,0,0,3,2.65c1.12,0.57,4.08,4.9,4.92,5.83s4.95,6.91,5.6,8.07a20.84,20.84,0,0,1,1.44,3.42c0.19,0.6-.71.7-0.71,0.7l-8,.14a48.73,48.73,0,0,1-7.64-7.48c-2.61-3.16-2.5-11.45-4.15-13.58s-1.71-4.2-5.15-6.74-6.16-3.8-8.51-3.35-5.41,2.12-6,3.08a49.25,49.25,0,0,1-3.77,5.18c-1.46,1.59-9.57,7.4-10.31,8a8.84,8.84,0,0,1-1.39.64c-0.22-2.23,0-5-.13-5.54-0.17-.73-0.65-6.76-0.65-6.76a11.48,11.48,0,0,0-.08-2c-0.11,0,0-7.34,0-7.34a5,5,0,0,0,1.18-1.91,4.82,4.82,0,0,0,.28-2.47c0-1.12.14-1.09-.76-2.88a8.33,8.33,0,0,1-.67-3.87,1.25,1.25,0,0,0-.67-1,1.22,1.22,0,0,1-1-.23c-0.45-.39-2.15-5.81-2.87-6.53a1.08,1.08,0,0,0-1.64-.29c-0.55.34,0,1.2,0.44,1.92s0.24,0.78.89,2.86a9.31,9.31,0,0,1,.52,3.22c-0.13-.34-1.55-2.36-2.26-2.35s-0.79,1.33-.79,1.33l1.6,3.66s-1.82-3.4-1.92-3.6a1.19,1.19,0,0,0-1.14-.05c-0.37.16-.51,0.49-0.41,1.51s2.46,3.11,2.46,3.11l-0.32.45a23.5,23.5,0,0,0-2.2-2.53c-0.52-.33-0.33,0-0.68.05a1.74,1.74,0,0,0-.82.94c-0.19.33,0.31,1.91,1,3.86a57.22,57.22,0,0,0,2.91,5.91s-0.29,2.26-.35,3.91-0.36,10-.3,13.65a28.16,28.16,0,0,0,.95,5.69c-4.41,1.62-8.87,3.23-9.06,3.33S133.49,279.59,138.25,277.93Zm53.45,11.13-2.91.06c-2.8-3.11-6.9-7.74-7.54-8.78C180.41,279,187.74,286.15,191.7,289.06Zm-15.88-8.11c2.41,2,7.54,6.29,9.54,7.57l1,0.66-1.71,0a17.54,17.54,0,0,0-2.88-3c-2.34-1.88-4.62-3.6-6-4.86v-0.45Zm-26.78.52A29.79,29.79,0,0,0,152,278s-1,2.39-2.16,5.31C149.48,282.57,149.22,281.91,149,281.46Zm6.36,0.34c0.69,0-1,6.2.51,7.58,0.21,0.2.41,0.39,0.63,0.59a6.83,6.83,0,0,1-1-.27c-2.38-.8-2.27-1.84-3.48-2.66a2.91,2.91,0,0,1-.54-0.54C153.43,284,155.14,281.79,155.4,281.8Zm-2.57-9.16c0.07-.1-0.68,5.69-2.94,7.63-0.28.24-.62,0.55-1,0.89-0.62-1.25-1.86-2.4-2.83-4a3.32,3.32,0,0,1-.24-0.58c1.64-1,2.95-1.8,3.56-2.26C152,272.4,152.76,272.75,152.84,272.64Zm-4.77,1.43c0.8-.51-0.36.35-2.41,1.78,0-.19-0.06-0.4-0.1-0.62A17.34,17.34,0,0,0,148.07,274.07Z" transform="translate(3.21 -129.77)"/><path d="M136.73,281.8l-5.2,2.91A46.09,46.09,0,0,0,136.73,281.8Z" transform="translate(3.21 -129.77)"/><path d="M531.48,269.42a0.2,0.2,0,0,0-.17,0C531.34,269.47,531.42,269.42,531.48,269.42Z" transform="translate(3.21 -129.77)"/><path d="M567.49,267.9c0-.1-0.13-0.05-0.18-0.06S567.42,267.89,567.49,267.9Z" transform="translate(3.21 -129.77)"/><path d="M498.2,251.71c0.14,1.91,1.54,3.26,2.59,4.74,1.54,2.14.91,4.93,2.15,7.2,2.41,4.58,3,9.06,3.34,14.23,0.21,4.2-.72,10.47,2,14s9.66,3.81,13.87,4.71c1.61,0.34,4.79.26,7.43,0.77-0.51.25-1,.49-1.59,0.74a7.42,7.42,0,0,1-2.13.13c-0.59-.08-1.25-0.6-1.66-0.17,1.61,1.16,3.37,1,5.45.21-0.61,1-1.78,2.12-3,2-1-.13-1.55-1-2.21-1.88-0.42,1.48,1.37,2.64,2.68,2.68a6.83,6.83,0,0,0,2.36-1.14c0,1.4-.3,3.18-0.26,4.82a17.85,17.85,0,0,1,.24,4.77c-0.25.51-1,.73-1.2,1.28,0.4,0.05.74-.31,1-0.21a3.19,3.19,0,0,1-1.33,2.71c-2.12.64-3.28-.92-4.77-1.7,0.18,1,1.32,1.06,1.76,1.91a6.76,6.76,0,0,0,3.13.5c1.68-.76,2.22-2.32,2.2-4.25,0.54-.78,1-1.57,1.6-2.33-0.17,2-.45,4-1.7,5.23-0.13.28,0.15,0.24,0.2,0.5-0.86,1.81-2.55,3.9-5.25,3.74,0.17,0.54.71,0.3,1,.55,0.63-.1,1.16-0.46,1.55-0.25,2.22-1.32,3.28-3.42,4.17-5.67a18.74,18.74,0,0,0,1.87-6.3,4.84,4.84,0,0,1,.64,1.77c0.42,5.4-.21,10.07-2.34,13.7,0.47,0.12.6-.6,1-0.76,1.65-2.62,1.92-6.21,2.29-9.73,0.18,1,.36,2,0.52,3,0.89,5.24,2.42,9.13.22,14.1A47.86,47.86,0,0,0,532.66,341a20.6,20.6,0,0,0,0,6.7c0.61,3.58-1.72,8.61-2,12.27-1,11.73,3.2,22.51,3.47,34.08,0.06,2.75-.77,5.44-0.57,8.19a9.31,9.31,0,0,0,.91,3h13.19c-0.44-1.23-.88-2.47-1.3-3.74-0.92-2.77.9-8.43,1.22-11.36,0.91-8.59,1-20.22,5.56-27.75,0-1.17,1.6.76,1.77,1a5.4,5.4,0,0,1,.07,2.91,57.18,57.18,0,0,0,.36,7.65,76.48,76.48,0,0,1-.47,19.74c-0.62,3.93-1.26,7.73-2.09,11.54h16c0.08-2.45-.31-5.14-0.24-6.64,0.21-5.71.29-11.43,0.92-17.1s1.61-11.2.84-16.81a25.49,25.49,0,0,0-.95-4.18,20.11,20.11,0,0,0,1.6-3c0.77-2.19.21-4.84-.27-7-0.81-3.66-1.39-9.29-4-11.94-3.53-3.61-3-5.16-1.35-9.87,2.18-6.4,3.5-13.13,5.09-19.58,0.53,0.18,1.08.34,1.61,0.47a3.71,3.71,0,0,0,1-.76,17.74,17.74,0,0,0,1.32,1.77c-0.78-2.84-1.56-4.74-2.34-7.56,0.16-.52.32-1,0.45-1.53,0.11,0.4.2,0.81,0.3,1.14,2.15,6.7,5.53,11.65,8.77,16,0.31-.06.81,0.82,0.88,0.41a4.2,4.2,0,0,0-.12-0.44,2.16,2.16,0,0,1-.32-0.85,48.08,48.08,0,0,1-5-8.45c2,2,4.12,5.31,6.48,7.28,0.45,0.07.84,0.81,1.22,0.48-0.14,0-.08-0.24,0-0.07,0.29,0.07.06,0,0-.17a0.78,0.78,0,0,1-.3-0.28,1.56,1.56,0,0,1-.54-0.59,36.56,36.56,0,0,1-3.72-4.25,40.41,40.41,0,0,1-4.53-6.62c-0.54-2.14-.86-5.69-2-8.12,0.09-.51.17-1,0.21-1.55a0.31,0.31,0,0,1,.12.12c0-.2-0.05-0.37-0.08-0.56a16.67,16.67,0,0,0,0-2.73c0.46,1.08.9,2.22,1.36,3.34,0.93,2.66,1,5.5,1.67,8,0.46-1.42.08-3.6-.3-5.79a36.15,36.15,0,0,0-2.88-7.74c0-1.26-.08-2.47,0-3.67,0.83,1,1.63,2.12,2.46,3.16,2,4.49,3.9,7.29,5.36,12.91,0.75,0.69.71,2.28,1.48,2.83a16.09,16.09,0,0,1-.38-1.93,39.7,39.7,0,0,1-1.29-6.26c-0.71-3.3-2-5.28-3.16-7.56,2.32,2,4.77,4.83,7.33,6.74a1.29,1.29,0,0,0,.2,1c0.4,0.08.46-.15,0.56-0.43a1.11,1.11,0,0,0,1,.18c-3.21-3.06-6.54-5.83-9.43-9.59,3.32,2.57,6.29,5.92,9.7,8.3,0.51,0.09.71,0.54,1.24,0.31,0.19-.17-0.53-0.57-0.74-0.71a9.42,9.42,0,0,1-.93-0.87c-0.69-.38-1.25-1.08-1.94-1.48-1.23-1.18-2.46-2.33-3.67-3.52-2.44-2.36-5-4.33-7.2-7.35,2.14,0.8,4.32,3.46,6.75,3.57-2.17-1.87-4.55-3.33-6.84-4.95,0.16-1.39.38-2.81,0.62-4.27a5.75,5.75,0,0,0,2.27-.64c-0.3-.52-1-0.12-1.4-0.35,1.7-.9,4.17-1.29,4.49-3.15-1,.44-1.87,1.53-3.42,1.82-0.53.1-1.05,0.17-1.56,0.24,0.36-1.83.93-4.26,1.19-6.6a26.2,26.2,0,0,1,2.37,1.6,6.2,6.2,0,0,1,1.1.34,14.23,14.23,0,0,0-3.37-2.78,9.8,9.8,0,0,0-.54-4.93c-1.9-3.84-6.56-6.29-9.14-9.71-1.91-2.58-1.6-2.94-1.29-5.69a6.33,6.33,0,0,0-1.2-4.95c-3.51-.92-4.11-0.6-6.84.81-0.39-.42-3-4.37-3.69-3.48-1.19,1.5,2.26,4.38,2.53,5.83,0.38,2.31-.5,4.2,1.28,6.35,0.76,0.92,1.86.52,2.76,1.25A16,16,0,0,1,563,256c1.59,2.49,4.06,5.35,5.32,8.05a18.78,18.78,0,0,0-6.5,1.1,7.12,7.12,0,0,1-3.4.5c-3.76-2.46-7-6-11.47-7a5.42,5.42,0,0,0-3.12,1.46,4.63,4.63,0,0,0-3.57,1.57,3.29,3.29,0,0,0-2.55,3c-1.06,2.23-2.86,4-3.12,6.74-0.72,2.58-.25,5.61-0.13,8.71a41,41,0,0,0-2.16,7.34l-0.66,0c-2.2.12-16.7,1.58-17-1.1-0.84-8.1-5.13-15.37-5.59-23.58-0.1-1.68,1.29-16.69-1-17.2-1.48-.31-1,5.1-1.11,5.49-0.22-.89-0.37-6.63-2.11-6.35-0.87.15,0.55,8.34-.36,9.67-0.4-2.14-2-6.14-4.38-6.77-1.5,1.9,3.15,6.24,2.59,8.69C501.26,254.72,500.4,252.36,498.2,251.71ZM566.59,273a9,9,0,0,1-2.32-2.07c1,0.09,1.94.27,2.88,0.43C567,271.95,566.76,272.5,566.59,273Zm-3.15-7.52a12.79,12.79,0,0,1,5.15-.57c0.19,1.34-.45,3.49-1.16,5.6a34.24,34.24,0,0,1-4.76-1.17c-0.89-.91-1.83-1.69-2.71-2.59C561.15,266.17,562.22,266.11,563.43,265.51Z" transform="translate(3.21 -129.77)"/><path class="cls-1" d="M255.38,220.26a12.18,12.18,0,0,1,1.28,1.31,7.24,7.24,0,0,1,1.17,1.34A6.06,6.06,0,0,1,258,224a17.66,17.66,0,0,0,1.26,2,7.07,7.07,0,0,0,2,2.72c0.26,0.18,1,.38,1.28.61,0.64,0.52,1.53,2.64,1.93,3.49,2.73,5.88,4.8,12,8.38,17.43,1.18,1.79,2.64,3.39,3.65,5.29a9.34,9.34,0,0,0,.88,1.63,7.12,7.12,0,0,0,1.35,1.21,14.52,14.52,0,0,1,1.74,2c2.06,2.47,3.77,5.2,5.65,7.81,1.58,2.21,4.45,4.43,5.46,7,0.12,0.32,0,.9.18,1.36,0.64,1.62,2.53,2.5,3.53,3.88a24.87,24.87,0,0,1,1.51,3c0.23,0.44.63,0.83,0.91,1.33,0.56,1,.72,2.25,1.3,3a5,5,0,0,0,1.06.76,4.8,4.8,0,0,1,1.07.76,8.54,8.54,0,0,1,.58,1.71c0.88,2.79.28,4.91,0.23,7.63-0.06,2.09,1.69,3.63,1.2,5.83-0.11.48-.43,0.76-0.5,1.25-0.56,2.83.52,5.38-.65,8.13-1.5,3.64-1.07,8.3-1,12.18,0.08,3.31.43,5.88-1.3,8.91-0.28.5-.89,1.63-1.13,2.1-0.51.92,1.76,1.58,3.55,2.48-0.19-.1-0.61,3.93-0.74,4.18a28.9,28.9,0,0,1-2.37,3.68c-0.62.77-1.37,1.45-2.11,2.26-1.13,1.22-1.42,3-2.06,4.75-0.19.55-.52,1-0.69,1.54a4.7,4.7,0,0,0-.15,1.13c0,0.4.2,0.74,0.22,1.16a10.85,10.85,0,0,1-1,3.66,10.06,10.06,0,0,0-.53,3.83,31.45,31.45,0,0,1-.57,6.17c-0.13.71-.12,1.38-0.23,2a5.94,5.94,0,0,1-1,1.83c-0.57.94-1.34,1.87-1.06,3.34,0.19,0.91.72,1.58,0.88,2.51a7.32,7.32,0,0,1-.25,4.18,23.61,23.61,0,0,0-1.81,4.78,16.79,16.79,0,0,0,.16,4.11,11.83,11.83,0,0,1,.12,4.06c-0.22.88-.72,2-0.5,2.86,0.57,2.12,4.83,1.89,6.32,1.9,0.77,0,3-.16,3,0.36s-0.09.92-.13,1.45h17a18.4,18.4,0,0,1,1.23-6.36,11.77,11.77,0,0,0,.31-3.7,22.68,22.68,0,0,1,.84-5.39c0.35-1.34.82-3.34,2-4.17a4.71,4.71,0,0,1,1.08,2.72,39.62,39.62,0,0,0,.86,6.35c0.44,1.77,2.46,2.94,2.52,4.84,0.06,1.7-1.66,4-1,5.71h25.81a11.56,11.56,0,0,1-.13-1.78c0.07-1,.42-2,0.56-3a9.32,9.32,0,0,0-.24-3.4c-0.2-1-.27-2.07-0.5-3.16a42.14,42.14,0,0,1-.18-10.91c0.22-1.76.78-1.31,0.72-3.1s-0.73-2.91-.92-4.61,0.62-3.11.65-4.69c0-3.09-1-6.32-1.65-9.34a7,7,0,0,1,0-2.8c0.2-1.18.9-2.23,0.87-3.4a10.92,10.92,0,0,0-1.06-2.8c-0.76-2.15-.11-4.5-0.77-6.65-0.21-.69-0.89-1.3-1.16-2.13-0.2-.67-0.18-2.07-0.43-2.78s-1.51-.31-1.78-0.57a6.77,6.77,0,0,1-.54-2.9c1-1.19,3.61.66,4.37-1.69a7.51,7.51,0,0,0-.08-2,21,21,0,0,1,.53-6.85c0.37-1.31,1.72-1.7,1.71-3.59,0-.92-0.3-1.94-0.42-3-0.29-2.57-.58-5.32-0.69-7.91a25.38,25.38,0,0,1,1.38-8.48c0.92-2,2.23-3.61,2.65-5.88,0.23-1.28,0-3,.82-4,1.16-1.59,2.26-3.23,3.38-4.89,0.59-.87,1.46-1.39,2.08-2.22,1-1.33,1.3-3.3,2.14-4.59,1-1.45,4.27-2.52,4.18-4.31,0-.37-0.25-0.71-0.22-1a7.71,7.71,0,0,1,.89-1.42c1.68-3,3.64-7.43,6.24-9.68a12.78,12.78,0,0,0,1.58-1.06c0.59-.62,1-1.65,1.65-2.29s1.44-1.11,2.11-1.74c4.08-3.88,6.76-9.36,9.81-14,2.43-3.7,7.86-12.64,8.75-12.8a7.73,7.73,0,0,0,1.53-.44,7.53,7.53,0,0,0,2.63-2.45A16.82,16.82,0,0,0,400.4,229a6.88,6.88,0,0,1,.38-1,7.5,7.5,0,0,1,1.5-1.19,12.19,12.19,0,0,1,1.61-1.14c1.14-.58,2.11-0.77,2.92-1.68a0.8,0.8,0,0,0,.1-1.22c-0.43-.34-1.94.2-2.42,0.38-0.65.26-1.37,0.71-2.3,1a6.79,6.79,0,0,0-1.19.48,3,3,0,0,1-1,.54,4.86,4.86,0,0,1-.22-0.69,1.58,1.58,0,0,1-.26-0.67,5.32,5.32,0,0,1,.8-1.41c0.77-1.53,1.66-2.09,2.84-3.28,0.54-.54,1.55-1.55,1.37-2.43a1,1,0,0,0-.92-0.66,2.41,2.41,0,0,0-1.43.94c-0.33.31-.78,0.67-1.21,1.1a7.66,7.66,0,0,1-2.16,1.79c-0.79.31-.33-0.43-0.09-1,0.57-1.44,1.22-1.75,2.2-3,0.53-.68,1.8-2.67.75-3.18-0.78-.39-1.55.42-1.84,0.72s-0.53.74-.89,1.11c-0.54.53-2.08,2.05-2.38,1.82a10.64,10.64,0,0,1,.94-1.48,9.7,9.7,0,0,0,1.09-1.57c0.35-.75.48-1.83-0.38-2-1-.19-1.91,1.32-2.47,2-0.36.45-.66,0.87-1,1.26a13.18,13.18,0,0,0-1.08,1.16,5.14,5.14,0,0,0-.39,1.29c-0.06.15-.4,1.44-0.56,1-0.4-1.06-1.36-3.31-3.13-2.79-1.15.33,0.07,2,.14,2.9,0.06,0.62-.19,1-0.16,1.54a14.94,14.94,0,0,1,.29,2c-0.09,1.07-.75,2-0.86,2.92-0.07.74,0.23,1.52,0.22,2.33a4.56,4.56,0,0,1-.46,1.75c-0.77,1.66-4.82,6.25-5.82,7.53a97.51,97.51,0,0,1-9,9.49,37.24,37.24,0,0,0-4.53,5.62c-1,1.49-2,3.79-3.39,5-1.62,1.45-3.71,2.39-5.52,3.72-2.6,1.91-4.13,4.35-4.77,4.57a5.3,5.3,0,0,0-3.22,1.95,7.63,7.63,0,0,1-1.32,1.64c-0.34.2-1.09,0.15-1.58,0.34-1.32.49-1.88,3.11-3.07,3.32-0.57.1-1.32-.46-2-0.44-1.4.05-1.75,1.87-2.92,2.24a4.46,4.46,0,0,1-2.39-.26,20.42,20.42,0,0,0-2.5-1.15,11.23,11.23,0,0,1,1.23-3.37c0.13-.21.57-0.06,1-0.41a9.55,9.55,0,0,0,1.31-1.78c0.66-1,1.65-1.47,1.6-3a6.35,6.35,0,0,1-.23-1,11.35,11.35,0,0,1,.87-1.59c0.24-.75.54-2,0.71-2.8a5.2,5.2,0,0,0-.47-3c-0.25-.82.12-1.32,0.59-0.36a8.32,8.32,0,0,1,.4,1.07c0.3-1.16-.7-2.18-0.19-2.35,0.2-.07.23,0.08,0.26,0,0.07-.27-1.09-1.08-1.32-1.41a1.19,1.19,0,0,1-.32-1c0.4-.26,1.12.62,1.18,0.57a1.3,1.3,0,0,0-.41-0.66c-0.14-.15-0.48-0.38-0.57-0.52s-0.16-.48-0.3-0.76c-0.32-.57-1.28-1.47-0.19-1.6,0.21,0,1.1.26,0.69-.07a7.9,7.9,0,0,0-1.5-.6c-0.57-.22,1,0,0.9-0.29s-2.66-.12-1.5-0.49a1.87,1.87,0,0,1,1.41-.08c-0.3-.68-1.36,0-1.73-0.31s1-.94,1-1c-1,0-1.5.65-2.26,1-0.35.19,0-.76,0.14-1a3.51,3.51,0,0,1,.58-0.62,1.57,1.57,0,0,0-.91.38,3,3,0,0,1-.82.51c-0.18-.08-0.11-0.83-0.44-1a4.09,4.09,0,0,0-1.48,0,11.18,11.18,0,0,0-1.3-.47c-0.33,0-1.09.34-1.19,0-0.28-1,.69-1.64.78-1.85a1.62,1.62,0,0,0-.89.7c-0.12.17-.48,0.9-0.83,0.76a0.83,0.83,0,0,1-.24-0.9c0-.53-0.71,1.52-1.08,1.21s0.46-1.22.08-1.5a3.08,3.08,0,0,1-.43.84,3.36,3.36,0,0,0-.36,0c-0.14.15-.14,0.56-0.27,0.76-0.58.9-1.29,0.71-2.17,0.07-0.21-.15-1.77-1.1-1-0.39a1.5,1.5,0,0,1,.58.93,3.16,3.16,0,0,1-1.09-.41c-0.3.1,0.42,0.4,0.32,0.55a1.13,1.13,0,0,1-.53.07c-0.12.08,1.07,0.52,0.66,0.87s-1-.55-1.53-0.23a3.79,3.79,0,0,1,.18.84c-0.14.66-.84,0.62-1.52,0.85a4.8,4.8,0,0,0-1,.65,4.09,4.09,0,0,0-.72.5c-0.49.56,0.49-.32,0.81,0.12a2.63,2.63,0,0,1-.52,1.19,7,7,0,0,1-1.37.93,2.66,2.66,0,0,0-.81,1.17c0.05,0.2.44-.68,0.75-0.38a5.65,5.65,0,0,1-.44,1.15c-0.06.27-.14,1-0.23,1.3a8.72,8.72,0,0,0-.5,1.67c-0.05.57,0.11,1.35,0.06,1.74a7.37,7.37,0,0,1-.71,1.07c-0.41,1.12-.12,2.85,0,4,0,0.24,0,.59,0,0.78a6.53,6.53,0,0,0,.92,1.33,5.16,5.16,0,0,1,.29,2.05,21.38,21.38,0,0,1-1,4.42,10,10,0,0,1-1-.13,11.28,11.28,0,0,0-1.79.41,7.09,7.09,0,0,1-2.46-.83,11.19,11.19,0,0,0-2.4-.9,11.13,11.13,0,0,1-3.53-1c-0.72-.37-1.51-1-2.2-1.28s-1.82-.4-2.57-0.79c-0.51-.28-0.84-0.84-1.25-1s-1.39-.14-1.82-0.36c-1.69-.8-3.38-3.61-4.58-5-1.95-2.29-3.9-4.55-6.85-6a20,20,0,0,1-2.29-1,6.89,6.89,0,0,1-1.18-1.92,43.31,43.31,0,0,0-3.14-5.57c-2.47-3.39-5.64-6.22-8-9.67-2.26-3.26-5.11-7.29-6.27-11.12a5.68,5.68,0,0,1-.22-1.79c0.09-.83.46-1.57,0.47-2.29,0-.95-0.47-1.93-0.43-3a18.93,18.93,0,0,1,.48-2c0.1-.57-0.08-0.95,0-1.55,0.17-.91,1.42-2.42.45-2.87-1.49-.69-2.58,1.43-3,2.44-0.18.4-.35-0.92-0.37-1.07a6.65,6.65,0,0,0-.2-1.31,13.44,13.44,0,0,0-.82-1.27c-0.23-.42-0.44-0.87-0.71-1.35-0.41-.72-1-2.33-1.92-2.24s-0.78,1.17-.56,1.95a8.88,8.88,0,0,0,.77,1.67,12.22,12.22,0,0,1,.66,1.57c-0.29.2-1.46-1.48-1.86-2.05-0.29-.41-0.45-0.87-0.66-1.21s-0.8-1.2-1.53-.9c-1,.38-0.1,2.5.29,3.23,0.71,1.34,1.24,1.72,1.57,3.2,0.16,0.64.46,1.43-.19,1a7.11,7.11,0,0,1-1.68-2,13.81,13.81,0,0,0-.92-1.22,2.11,2.11,0,0,0-1.14-1.09,0.83,0.83,0,0,0-.88.55c-0.26.86,0.51,2,.91,2.57a12,12,0,0,1,2.12,3.55,6.77,6.77,0,0,1,.54,1.5,2.17,2.17,0,0,1-.3.65c0,0.06-.23.62-0.27,0.65a2.51,2.51,0,0,1-.82-0.64,5.31,5.31,0,0,0-1-.61c-0.78-.4-1.37-0.94-1.9-1.26s-1.65-.93-2.07-0.63a0.9,0.9,0,0,0,0,1.23A7.44,7.44,0,0,0,255.38,220.26Z" transform="translate(3.21 -129.77)"/><path class="cls-1" d="M58.32,229.58a10.41,10.41,0,0,1,1.11,1.14,6.23,6.23,0,0,1,1,1.18,5.07,5.07,0,0,1,.19.93,15.43,15.43,0,0,0,1.1,1.74,6.13,6.13,0,0,0,1.75,2.38c0.23,0.16.88,0.34,1.12,0.53a12.62,12.62,0,0,1,1.69,3c2.38,5.13,4.19,10.47,7.31,15.22,1,1.56,2.3,3,3.19,4.62a8.1,8.1,0,0,0,.77,1.42,6.19,6.19,0,0,0,1.17,1.06,12.64,12.64,0,0,1,1.51,1.77c1.8,2.15,3.3,4.54,4.93,6.82,1.38,1.93,3.88,3.87,4.77,6.07,0.11,0.28,0,.78.16,1.19,0.56,1.42,2.21,2.18,3.09,3.39a21.45,21.45,0,0,1,1.32,2.65c0.2,0.38.55,0.72,0.79,1.16a22.67,22.67,0,0,0,1.13,2.59,4.39,4.39,0,0,0,.93.66,4.22,4.22,0,0,1,.93.67,7.54,7.54,0,0,1,.51,1.49c0.76,2.44.25,4.29,0.2,6.66-0.05,1.83,1.47,3.17,1,5.09-0.09.42-.37,0.67-0.44,1.09-0.48,2.47.45,4.7-.57,7.1-1.32,3.18-.93,7.25-0.85,10.64,0.07,2.89.38,5.14-1.13,7.78-0.25.44-.78,1.42-1,1.83-0.45.8,1.54,1.38,3.1,2.16-0.16-.09-0.53,3.43-0.64,3.65a24.8,24.8,0,0,1-2.07,3.21c-0.54.67-1.19,1.26-1.84,2-1,1.06-1.24,2.64-1.8,4.15-0.17.48-.45,0.9-0.61,1.35a4.25,4.25,0,0,0-.13,1c0,0.35.17,0.64,0.19,1a9.51,9.51,0,0,1-.87,3.2,8.81,8.81,0,0,0-.46,3.35,27.42,27.42,0,0,1-.5,5.39c-0.12.62-.1,1.2-0.2,1.76a5.19,5.19,0,0,1-.86,1.6,3.81,3.81,0,0,0-.93,2.91c0.16,0.8.62,1.38,0.76,2.19A6.39,6.39,0,0,1,89,374a20.66,20.66,0,0,0-1.58,4.17,14.73,14.73,0,0,0,.14,3.59,10.37,10.37,0,0,1,.11,3.55,5.71,5.71,0,0,0-.43,2.49c0.5,1.85,4.21,1.65,5.52,1.66,0.67,0,2.63-.14,2.59.31-0.25,2.47-.51,7.21-0.64,9.59a24.64,24.64,0,0,1-1.47,5.82h12.37a43.77,43.77,0,0,1,.15-4.54c0.21-2,2.23-5.68,2.9-8.67,0-.22,1,0,1.2-0.21,0.5-.5-0.18-2.4,1.29-6.28a10.3,10.3,0,0,0,.27-3.23,19.46,19.46,0,0,1,.73-4.7c0.3-1.17.72-2.91,1.72-3.64a4.1,4.1,0,0,1,.94,2.38,34.64,34.64,0,0,0,.75,5.55c0.39,1.54,2.15,2.56,2.2,4.23s-1.54,3.63-.79,5.1c0.55,1.05,2.51.95,2.57,1.48,0.48,4.18,1.9,8.32,1.9,11.36,0,0.4,0,.8,0,1.2h12.17c0-.27-0.09-0.53-0.14-0.79a15.55,15.55,0,0,1-.52-4c0.15-1.58.54-5.85,0.6-5.92,1.22-1.62,5.37.1,5.92-2.44a17.79,17.79,0,0,0-.09-2.57c0.06-.88.37-1.73,0.49-2.6a8.16,8.16,0,0,0-.2-3c-0.17-.84-0.24-1.8-0.43-2.75a36.85,36.85,0,0,1-.16-9.53c0.19-1.54.68-1.14,0.63-2.7s-0.64-2.54-.81-4,0.54-2.72.57-4.1c0-2.7-.87-5.52-1.44-8.15a6.1,6.1,0,0,1,0-2.45c0.18-1,.79-1.95.76-3a9.43,9.43,0,0,0-.93-2.44c-0.66-1.88-.09-3.93-0.67-5.8-0.18-.6-0.78-1.14-1-1.86s-0.16-1.81-.38-2.43-1.32-.27-1.56-0.5a5.93,5.93,0,0,1-.48-2.54c0.83-1,3.16.58,3.82-1.48a6.53,6.53,0,0,0-.08-1.78,18.28,18.28,0,0,1,.47-6c0.32-1.14,1.5-1.49,1.49-3.14,0-.81-0.26-1.69-0.37-2.61-0.25-2.25-.51-4.65-0.61-6.91a22.17,22.17,0,0,1,1.2-7.4c0.8-1.78,1.95-3.15,2.32-5.13,0.19-1.12,0-2.58.72-3.53,1-1.39,2-2.82,2.95-4.27,0.52-.76,1.28-1.21,1.81-1.94,0.86-1.16,1.13-2.88,1.87-4s3.72-2.2,3.65-3.76c0-.32-0.22-0.62-0.19-0.84a7,7,0,0,1,.78-1.24c1.46-2.59,3.18-6.49,5.45-8.46a11.32,11.32,0,0,0,1.37-.93c0.52-.54.86-1.44,1.45-2s1.26-1,1.84-1.52c3.56-3.39,5.91-8.17,8.56-12.26,2.12-3.23,6.86-11,7.64-11.18a6.92,6.92,0,0,0,1.34-.38,6.51,6.51,0,0,0,2.29-2.14,14.84,14.84,0,0,0,1.46-1.61,5.5,5.5,0,0,1,.33-0.89,6.55,6.55,0,0,1,1.32-1,10.83,10.83,0,0,1,1.41-1,7.48,7.48,0,0,0,2.55-1.47,0.7,0.7,0,0,0,.08-1.06c-0.38-.3-1.7.17-2.11,0.34s-1.2.62-2,.88a6,6,0,0,0-1,.42,2.6,2.6,0,0,1-.87.47,3.71,3.71,0,0,1-.19-0.6,1.33,1.33,0,0,1-.23-0.59,4.72,4.72,0,0,1,.7-1.23,10.29,10.29,0,0,1,2.48-2.87c0.48-.47,1.36-1.35,1.2-2.12a0.84,0.84,0,0,0-.81-0.58,2.12,2.12,0,0,0-1.25.82c-0.29.27-.68,0.58-1.05,1a6.57,6.57,0,0,1-1.88,1.57c-0.69.27-.29-0.37-0.08-0.91,0.5-1.25,1.07-1.53,1.92-2.6,0.46-.59,1.57-2.33.65-2.78-0.68-.34-1.35.37-1.61,0.63s-0.46.64-.78,1c-0.47.46-1.82,1.79-2.08,1.59a9.41,9.41,0,0,1,.82-1.29,8.24,8.24,0,0,0,.95-1.37c0.31-.66.42-1.6-0.33-1.75s-1.66,1.15-2.15,1.74c-0.32.39-.58,0.76-0.85,1.1a11.07,11.07,0,0,0-.95,1,4.51,4.51,0,0,0-.34,1.12c0,0.13-.35,1.25-0.49.89-0.35-.93-1.18-2.89-2.73-2.44-1,.29.06,1.72,0.12,2.53,0.05,0.54-.16.85-0.14,1.35a13,13,0,0,1,.26,1.77c-0.08.93-.65,1.74-0.75,2.55-0.06.65,0.2,1.32,0.19,2a3.94,3.94,0,0,1-.4,1.53c-0.68,1.45-4.2,5.46-5.08,6.58a86,86,0,0,1-7.82,8.29,32.42,32.42,0,0,0-4,4.9c-0.91,1.3-1.78,3.31-3,4.38-1.42,1.27-3.24,2.09-4.82,3.25-2.27,1.67-3.61,3.8-4.17,4a4.63,4.63,0,0,0-2.81,1.7,6.61,6.61,0,0,1-1.15,1.43c-0.3.18-.95,0.13-1.38,0.29-1.15.43-1.64,2.71-2.68,2.89-0.5.09-1.15-.4-1.77-0.39-1.23,0-1.52,1.63-2.55,2a3.88,3.88,0,0,1-2.09-.22,17.66,17.66,0,0,0-2.18-1,9.84,9.84,0,0,1,1.07-2.94c0.11-.18.5-0.05,0.91-0.36a8.26,8.26,0,0,0,1.14-1.55c0.58-.83,1.45-1.28,1.4-2.63a5.41,5.41,0,0,1-.2-0.88,10.43,10.43,0,0,1,.76-1.39c0.21-.66.47-1.73,0.62-2.44a4.58,4.58,0,0,0-.41-2.65c-0.21-.72.1-1.15,0.52-0.32a7,7,0,0,1,.35.93c0.26-1-.61-1.9-0.16-2.05,0.17-.06.2,0.07,0.22,0a6.13,6.13,0,0,0-1.15-1.23,1,1,0,0,1-.28-0.84c0.35-.23,1,0.54,1,0.5a1.15,1.15,0,0,0-.36-0.58c-0.12-.13-0.42-0.33-0.49-0.45s-0.14-.42-0.26-0.66c-0.28-.5-1.11-1.29-0.17-1.4,0.19,0,1,.23.6-0.06a6.78,6.78,0,0,0-1.31-.52c-0.5-.19.84,0,0.79-0.25s-2.32-.11-1.31-0.43a1.62,1.62,0,0,1,1.23-.07c-0.27-.6-1.18,0-1.51-0.27s0.84-.82.89-0.84c-0.87,0-1.3.57-2,.91-0.31.16,0-.67,0.12-0.89a2.89,2.89,0,0,1,.5-0.54,1.38,1.38,0,0,0-.8.33,2.66,2.66,0,0,1-.72.44,4.11,4.11,0,0,0-.38-0.89,3.59,3.59,0,0,0-1.3,0,9.38,9.38,0,0,0-1.13-.41c-0.29,0-.95.3-1,0a1.82,1.82,0,0,1,.68-1.62,1.42,1.42,0,0,0-.78.61c-0.1.15-.42,0.79-0.73,0.66a0.73,0.73,0,0,1-.21-0.79c0-.46-0.62,1.33-0.94,1.06s0.4-1.07.07-1.32a2.71,2.71,0,0,1-.37.74,2.24,2.24,0,0,0-.32,0,6.81,6.81,0,0,0-.24.66c-0.51.78-1.13,0.62-1.89,0.06-0.19-.13-1.55-1-0.92-0.34a1.31,1.31,0,0,1,.51.81,2.77,2.77,0,0,1-1-.36c-0.26.08,0.36,0.35,0.28,0.48a1,1,0,0,1-.46.06c-0.1.07,0.93,0.45,0.58,0.76s-0.89-.48-1.34-0.2a3,3,0,0,1,.16.73c-0.12.58-.74,0.54-1.33,0.74a4.28,4.28,0,0,0-.9.56,3.48,3.48,0,0,0-.62.44c-0.43.49,0.43-.28,0.71,0.11a2.28,2.28,0,0,1-.45,1,6.12,6.12,0,0,1-1.19.81,2.29,2.29,0,0,0-.71,1c0,0.18.39-.59,0.65-0.34a4.79,4.79,0,0,1-.38,1c-0.05.23-.12,0.84-0.2,1.14a7.9,7.9,0,0,0-.44,1.46c0,0.5.09,1.18,0.05,1.52a6.42,6.42,0,0,1-.63.93,9.41,9.41,0,0,0,0,3.49c0,0.21,0,.51,0,0.68a6,6,0,0,0,.81,1.16,4.55,4.55,0,0,1,.25,1.79,18.72,18.72,0,0,1-.91,3.86,8.69,8.69,0,0,1-.89-0.11,9.8,9.8,0,0,0-1.56.36,6.19,6.19,0,0,1-2.15-.72,9.69,9.69,0,0,0-2.1-.78,9.73,9.73,0,0,1-3.08-.85c-0.63-.32-1.31-0.85-1.92-1.12s-1.59-.35-2.24-0.69c-0.44-.24-0.73-0.74-1.09-0.88s-1.21-.12-1.59-0.31c-1.48-.7-3-3.16-4-4.37a19.53,19.53,0,0,0-6-5.28,17,17,0,0,1-2-.84,5.94,5.94,0,0,1-1-1.68A38.41,38.41,0,0,0,82,251.75c-2.16-3-4.93-5.43-7-8.45-2-2.85-4.46-6.36-5.47-9.71a5,5,0,0,1-.19-1.56c0.08-.72.4-1.37,0.41-2,0-.83-0.41-1.68-0.37-2.62a16.16,16.16,0,0,1,.41-1.73c0.09-.5-0.07-0.83,0-1.36,0.15-.79,1.24-2.11.39-2.51-1.3-.6-2.25,1.24-2.66,2.13-0.16.35-.3-0.8-0.32-0.93a6,6,0,0,0-.17-1.14,12.88,12.88,0,0,0-.72-1.11c-0.2-.37-0.39-0.76-0.62-1.18-0.36-.63-0.89-2-1.67-2s-0.68,1-.49,1.7a8,8,0,0,0,.67,1.46,10.69,10.69,0,0,1,.58,1.37c-0.25.18-1.27-1.3-1.62-1.79s-0.39-.76-0.58-1.05-0.7-1-1.33-.79c-0.86.33-.08,2.19,0.26,2.82a9,9,0,0,1,1.37,2.79c0.14,0.56.41,1.25-.16,0.9a6.21,6.21,0,0,1-1.47-1.75,12.75,12.75,0,0,0-.8-1.06,1.84,1.84,0,0,0-1-1,0.72,0.72,0,0,0-.76.48c-0.22.75,0.44,1.71,0.79,2.24a10.52,10.52,0,0,1,1.85,3.1,6,6,0,0,1,.47,1.31,2,2,0,0,1-.27.57c0,0.05-.2.54-0.24,0.56a2.22,2.22,0,0,1-.72-0.55,4.54,4.54,0,0,0-.85-0.53c-0.68-.35-1.19-0.82-1.66-1.11s-1.44-.81-1.81-0.55a0.79,0.79,0,0,0,0,1.07A6.55,6.55,0,0,0,58.32,229.58Z" transform="translate(3.21 -129.77)"/><path class="cls-1" d="M650.38,256.61c-0.36-.29-1.64.17-2,0.32s-1.16.6-1.94,0.86a5.85,5.85,0,0,0-1,.4,2.5,2.5,0,0,1-.85.46,3.67,3.67,0,0,1-.18-0.58,1.28,1.28,0,0,1-.22-0.57,4.56,4.56,0,0,1,.68-1.2,10,10,0,0,1,2.4-2.78c0.46-.46,1.31-1.31,1.16-2.05a0.81,0.81,0,0,0-.78-0.56,2,2,0,0,0-1.21.79c-0.28.26-.66,0.57-1,0.93a6.45,6.45,0,0,1-1.82,1.52c-0.67.27-.28-0.36-0.08-0.88a8.82,8.82,0,0,1,1.86-2.52c0.45-.57,1.52-2.26.63-2.69a1.47,1.47,0,0,0-1.56.61c-0.26.26-.44,0.62-0.75,0.94s-1.76,1.73-2,1.54a9.08,9.08,0,0,1,.8-1.25,8.24,8.24,0,0,0,.92-1.33c0.29-.63.4-1.55-0.32-1.7s-1.61,1.11-2.09,1.68c-0.31.38-.56,0.74-0.83,1.07a11.13,11.13,0,0,0-.91,1,4.43,4.43,0,0,0-.33,1.09c0,0.13-.34,1.21-0.47.86-0.34-.9-1.15-2.79-2.65-2.36-1,.28.06,1.66,0.12,2.45,0,0.52-.16.82-0.14,1.3a12.86,12.86,0,0,1,.25,1.71c-0.08.9-.63,1.68-0.72,2.47-0.06.63,0.19,1.28,0.19,2a3.85,3.85,0,0,1-.39,1.48c-0.65,1.4-4.07,5.28-4.91,6.37a82.83,82.83,0,0,1-7.57,8,31.42,31.42,0,0,0-3.83,4.74c-0.88,1.26-1.73,3.2-2.87,4.24-1.37,1.23-3.14,2-4.66,3.14a14.51,14.51,0,0,0-1.51,1.29v18.84a8,8,0,0,1,.71-1.53c0.81-1.23,3.6-2.13,3.53-3.64,0-.31-0.21-0.6-0.19-0.81a6.7,6.7,0,0,1,.75-1.2c1.42-2.51,3.08-6.28,5.28-8.18a10.88,10.88,0,0,0,1.33-.9c0.5-.53.83-1.4,1.4-1.94s1.22-.94,1.78-1.47c3.45-3.28,5.71-7.91,8.29-11.87,2.05-3.13,6.64-10.68,7.39-10.82a6.7,6.7,0,0,0,1.29-.37,6.32,6.32,0,0,0,2.22-2.07,14,14,0,0,0,1.41-1.56,5.6,5.6,0,0,1,.32-0.86,6.42,6.42,0,0,1,1.27-1,10.53,10.53,0,0,1,1.36-1,7.22,7.22,0,0,0,2.46-1.42A0.67,0.67,0,0,0,650.38,256.61Z" transform="translate(3.21 -129.77)"/><path class="cls-1" d="M573.88,253.42a10.29,10.29,0,0,1,1.08,1.11,6.22,6.22,0,0,1,1,1.14,5.35,5.35,0,0,1,.19.9,14.46,14.46,0,0,0,1.06,1.68,5.92,5.92,0,0,0,1.7,2.3c0.22,0.15.85,0.33,1.08,0.51A12.27,12.27,0,0,1,581.6,264c2.3,5,4.06,10.13,7.08,14.73,1,1.51,2.23,2.87,3.08,4.47a8.13,8.13,0,0,0,.75,1.37,6.11,6.11,0,0,0,1.14,1,12.27,12.27,0,0,1,1.47,1.71c1.74,2.08,3.19,4.39,4.78,6.6,1.33,1.87,3.76,3.74,4.61,5.87,0.1,0.27,0,.76.16,1.15,0.54,1.37,2.13,2.11,3,3.28a20.56,20.56,0,0,1,1.27,2.56c0.19,0.37.53,0.7,0.77,1.12a22.35,22.35,0,0,0,1.1,2.51,4.21,4.21,0,0,0,.89.64,4.2,4.2,0,0,1,.91.64,7.18,7.18,0,0,1,.49,1.45c0.74,2.36.24,4.15,0.19,6.45,0,1.77,1.42,3.07,1,4.92-0.09.41-.36,0.64-0.42,1.06-0.47,2.39.44,4.54-.55,6.87-1.27,3.08-.9,7-0.83,10.29,0.07,2.8.36,5-1.1,7.53-0.24.42-.75,1.38-1,1.78-0.43.78,1.49,1.34,3,2.09-0.16-.08-0.51,3.32-0.62,3.53a24.36,24.36,0,0,1-2,3.11c-0.52.65-1.16,1.22-1.78,1.91-1,1-1.2,2.56-1.74,4-0.17.47-.44,0.88-0.59,1.3a4.11,4.11,0,0,0-.12,1c0,0.34.17,0.63,0.18,1a9.17,9.17,0,0,1-.84,3.09,8.52,8.52,0,0,0-.45,3.24,26.42,26.42,0,0,1-.48,5.21c-0.11.6-.1,1.16-0.19,1.7a5.06,5.06,0,0,1-.83,1.55,3.69,3.69,0,0,0-.9,2.82c0.16,0.77.61,1.34,0.74,2.12a6.15,6.15,0,0,1-.21,3.53,20.07,20.07,0,0,0-1.53,4,14.21,14.21,0,0,0,.14,3.47,10,10,0,0,1,.1,3.43c-0.08.33-.21,0.7-0.31,1.07H624.7c0.09-.29.18-0.58,0.3-0.91a9.94,9.94,0,0,0,.26-3.13,18.88,18.88,0,0,1,.71-4.55c0.29-1.14.69-2.82,1.66-3.52a4,4,0,0,1,.91,2.3,33.53,33.53,0,0,0,.72,5.37c0.37,1.49,2.08,2.48,2.13,4.09a2.64,2.64,0,0,1,0,.35h21.43a8.58,8.58,0,0,0-.23-2.42c-0.17-.81-0.23-1.74-0.42-2.67a35.64,35.64,0,0,1-.16-9.22c0.18-1.49.66-1.1,0.61-2.62s-0.62-2.46-.78-3.9,0.52-2.63.55-4c0-2.61-.84-5.34-1.39-7.89a5.86,5.86,0,0,1,0-2.37c0.17-1,.76-1.88.74-2.88a9.28,9.28,0,0,0-.9-2.36c-0.64-1.82-.09-3.8-0.65-5.62-0.17-.58-0.76-1.1-1-1.8s-0.16-1.75-.37-2.35-1.28-.26-1.51-0.48a5.71,5.71,0,0,1-.46-2.45c0.8-1,3.05.56,3.7-1.43a6.37,6.37,0,0,0-.07-1.72,17.72,17.72,0,0,1,.45-5.79c0.31-1.1,1.45-1.44,1.44-3,0-.78-0.25-1.64-0.36-2.53-0.24-2.17-.49-4.5-0.59-6.68a22.55,22.55,0,0,1,1-6.76V295.34c-0.47.74-.88,1.56-1.48,1.67s-1.12-.39-1.71-0.37c-1.19,0-1.48,1.58-2.47,1.89a3.77,3.77,0,0,1-2-.22,6.65,6.65,0,0,1-1.12-.56c-4.64,1.19-9.17.63-13.85-.14a3.7,3.7,0,0,1-2.49-1.42h0a9.32,9.32,0,0,0-1.51.34,6,6,0,0,1-2.08-.7,9.31,9.31,0,0,0-2-.76,9.42,9.42,0,0,1-3-.82c-0.6-.31-1.27-0.82-1.86-1.08s-1.54-.34-2.17-0.67c-0.43-.23-0.71-0.71-1.06-0.85s-1.17-.12-1.54-0.3c-1.43-.68-2.86-3.05-3.87-4.23a19,19,0,0,0-5.79-5.11,16.23,16.23,0,0,1-1.93-.82,5.76,5.76,0,0,1-1-1.62,36.73,36.73,0,0,0-2.65-4.71c-2.09-2.86-4.77-5.26-6.79-8.17-1.91-2.75-4.32-6.16-5.29-9.39a4.74,4.74,0,0,1-.19-1.51c0.07-.7.38-1.32,0.39-1.94,0-.8-0.39-1.63-0.36-2.53a15.56,15.56,0,0,1,.4-1.67c0.08-.48-0.07-0.8,0-1.31,0.15-.77,1.2-2,0.38-2.43-1.25-.58-2.18,1.21-2.57,2.06-0.16.34-.29-0.78-0.31-0.9a5.55,5.55,0,0,0-.16-1.11,11.71,11.71,0,0,0-.69-1.07c-0.19-.35-0.37-0.73-0.6-1.14-0.35-.61-0.86-2-1.62-1.9s-0.66,1-.48,1.65a7.86,7.86,0,0,0,.65,1.41,10.28,10.28,0,0,1,.56,1.33c-0.24.17-1.23-1.25-1.57-1.73s-0.38-.74-0.56-1-0.67-1-1.29-.76c-0.83.32-.08,2.12,0.25,2.73a8.73,8.73,0,0,1,1.32,2.7c0.14,0.54.39,1.21-.15,0.86a6,6,0,0,1-1.43-1.7,11.77,11.77,0,0,0-.78-1,1.76,1.76,0,0,0-1-.92,0.69,0.69,0,0,0-.74.46A3.08,3.08,0,0,0,575,248a10.11,10.11,0,0,1,1.79,3,5.77,5.77,0,0,1,.46,1.26,2,2,0,0,1-.26.55c0,0.05-.19.52-0.23,0.55a2.13,2.13,0,0,1-.7-0.54,4.35,4.35,0,0,0-.82-0.51c-0.66-.34-1.16-0.8-1.61-1.07s-1.39-.79-1.75-0.54a0.76,0.76,0,0,0,0,1A6.28,6.28,0,0,0,573.88,253.42Z" transform="translate(3.21 -129.77)"/><path class="cls-1" d="M432.37,405.21a28.64,28.64,0,0,0,1.85-5.33c0.14-.64.29-1.33,0.47-2a14.75,14.75,0,0,1,1.2-3.76c1.77-3.15,3.75-6.16,5.53-9.3a8.37,8.37,0,0,1,.88-1.62,3.48,3.48,0,0,1,.86.25,6.32,6.32,0,0,0,3,.31c1.71-.48,2.72-3,3.59-4.49a16.26,16.26,0,0,1,3.71-4.63c3-2.41,4.58-7.3,6.77-10.59,1.22-1.82,2.09,1.34,2.81,2.52a39.08,39.08,0,0,1,1.87,3.82c1.26,2.8,2.11,5.92,3.85,8.45,1.43,2.09,3.16,3.77,4.45,6a6.1,6.1,0,0,0,1.67,2.08,6.56,6.56,0,0,0,3.6-.05c1.67-.51,3.19-1.63,4.89-2.07a9.52,9.52,0,0,1,3-.48c1.27,0.54.87,2.77,0.49,3.69-1.6,3.93-2.66,6.41-4,10.41a34.7,34.7,0,0,0-1.55,6.82H497c0.09-.28.2-0.54,0.29-0.82,1.22-3.83,1.71-7.9,3-11.71s2.94-6.92,3.36-11.32a6,6,0,0,0-1.3-3.72,5.83,5.83,0,0,1-.46-0.94,3.81,3.81,0,0,0-.25-2c-0.8-1.88-2-3.49-2.72-5.44-0.93-2.65-3.12-4-3.67-6.82a8.26,8.26,0,0,0-1.51-3.62c-1.13-1.41-2.48-2.58-3.57-4-1.38-1.82-2.48-3.87-3.87-5.68-0.7-.92-3-2.49-3.25-3.59a14.45,14.45,0,0,1,.05-2.63,8.75,8.75,0,0,1-.09-1.16c0.25-.3,3.67.22,4.22,0.17,1.25-.12,3.12-0.45,3.51-2,0.29-1.17,0-2.44.14-3.63,0.29-1.8.72-3.55,1.15-5.31,0.58-2.41,1.2-5,1.71-7.32a31.08,31.08,0,0,0,.77-4,26,26,0,0,1,.44-2.73c0.25-1.11.49-2.25,0.68-3.41,0.26-1.54.51-3.07,0.85-4.57a15.72,15.72,0,0,0,.35-2.35,17.71,17.71,0,0,1,.38-2.35c0.17-.79.24-1.55,0.35-2.35s0.43-1.43.58-2.15a19.3,19.3,0,0,1,.41-1.94,16.08,16.08,0,0,1,3.84-6c0.89-1,.74-1.61,1.21-2.74A4.9,4.9,0,0,1,505,288a57.94,57.94,0,0,0,6.18-4.15c1.88-1.63,3.53-3.51,5.29-5.28a47.46,47.46,0,0,1,4.76-4.56,16.83,16.83,0,0,0,2.58-2.08c0.73-.82,1.39-1.68,2.15-2.48,1.52-1.63,2.94-3.3,4.28-5A56,56,0,0,0,537,252.44c0.45-1,.72-2.22,1.27-3.2s1.41-1.43,1.88-2.25a9.22,9.22,0,0,0,.77-2.16c0.3-1.3-.08-5.24,0-5.67a2.82,2.82,0,0,1,.93-1.33,4.25,4.25,0,0,1,.73.75,0.74,0.74,0,0,0,.75.11c0.28-.17.22-0.38,0.42-0.45a5.39,5.39,0,0,1,.78.09c0.66,0,1.26-.12,1.15-0.84-0.08-.5-1-0.75-1.32-0.87a2.85,2.85,0,0,1-1.31-.69,5.13,5.13,0,0,1,.35-1.12c0.06-.25.23-1.25-0.18-1.37-0.61-.18-0.86.93-1.18,1a1.44,1.44,0,0,1-.51-0.27,2.16,2.16,0,0,0-.45-0.68,1.81,1.81,0,0,0-1.81.54c-0.37.26-1,1-1.49,1a1,1,0,0,1-.54-1,25.23,25.23,0,0,1-.09-3.24c0-.64-0.19-1.53-0.23-2.2,0-1.25-.05-3.1-1-3.2s-0.78,1.6-.72,2.62a18.14,18.14,0,0,1-.45,4.23c-0.13.87-.18,1.8-0.32,2.76a14,14,0,0,0-.45,2.68c0.08,1.84.86,3.8,0.74,5.79-0.18,3-2.89,5.58-4.57,7.72-0.9,1.13-1.77,2.42-2.66,3.5a61.74,61.74,0,0,1-4.73,4.48c-1.56,1.5-3.25,2.93-4.69,4.56-0.94,1.06-1.6,2.48-2.62,3.54a3.9,3.9,0,0,1-2.08.6,11.43,11.43,0,0,0-5.34,2.34c-1.44,1.1-3,2.16-4.48,3.17a7.42,7.42,0,0,1-1.6,1,3.37,3.37,0,0,0-.66-0.18c-0.54.09-1.1,0.77-1.65,0.93a7.85,7.85,0,0,0-2,.54c-0.77.44-1.64,0.59-2.36,1a5.11,5.11,0,0,1-1,.67,3.64,3.64,0,0,1-.83-0.37,3.89,3.89,0,0,0-2.07.65,6.42,6.42,0,0,1-.61,1,1.51,1.51,0,0,1-1.39-.1c-0.12-.2-0.07-0.71-0.2-0.94a8.73,8.73,0,0,0-.72-0.67c0-.21.92-2.51,1.78-5.08,0.8-2.38,1-4.08,1.47-4.4a9.08,9.08,0,0,1,1.41-.32,3.71,3.71,0,0,0,1.44-1.9,5.11,5.11,0,0,0,.83-3.41,1.86,1.86,0,0,1-.13-0.5,6.74,6.74,0,0,1,.56-1.94,5.3,5.3,0,0,0,.12-2.21c-0.1-.73.08-1.48,0-2.33a6.92,6.92,0,0,0-.24-1.07,2.69,2.69,0,0,1-.25-1.07c0-.09.17,0.1,0.23-0.09a2.06,2.06,0,0,1-.21-0.53,3.38,3.38,0,0,0-.83-2c-0.13-.11-1-0.33-1-0.58s0.86-.34.74-0.45-0.79.08-.81-0.21c0-.62.87-0.8,0.8-0.92a1.46,1.46,0,0,0-.64.12,0.86,0.86,0,0,1-.61.15c-0.07-.12.25-0.2,0.3-0.22,0.63-.38,0-0.08-0.39-0.23s-1.12-.84-1.83-1.2a4.08,4.08,0,0,0-1.16-.32,1,1,0,0,1-1-.58c0-.44.6-0.27,0.45-0.39a6.36,6.36,0,0,0-.78-0.18c-0.08-.22,1-0.32.59-0.41a3.74,3.74,0,0,0-.56,0,1.82,1.82,0,0,1-1.31-.07c-0.37-.16-0.23-0.29,0-0.27s0.84,0.2.43-.08A1.56,1.56,0,0,0,487,244c-0.25,0-1.6.28-1.3,0a1.25,1.25,0,0,1,1-.26c0.06-.16-0.22-0.13-0.36-0.15-1.21-.17-2.16.47-3,0.65a1.85,1.85,0,0,0,.84-0.83,0.71,0.71,0,0,0-.37.22,13.39,13.39,0,0,1-2.23.65,2.69,2.69,0,0,0-1.14,1.1,3,3,0,0,1-.45.94c-0.27-.43.23-1.23-0.08-0.91a2,2,0,0,0-.47,1.4c0,0.21.38,0.78,0.35,0.86s-0.5.18-.64,0.24a8.49,8.49,0,0,0-1.65.91,4.47,4.47,0,0,0-1,1.67,2.9,2.9,0,0,0-.33,1.14c0.12,0.18.22-.3,0.3-0.14a7.28,7.28,0,0,1-.41,1.14,6.82,6.82,0,0,0-.2,1.34c-0.06.49-.17,0.88-0.25,1.3-0.25,1.34,0,3.1-.16,4.46a9.43,9.43,0,0,0-.29,2.8c0.07,0.54.27,0.86,0.29,1.15,0,0.81,0,2.62.08,3.08s0.54,1,.57,1.38-0.11,1-.14,1.87a16.48,16.48,0,0,1-.29,3.6,0.83,0.83,0,0,1-.58.73,2.76,2.76,0,0,0-1.51.24,3,3,0,0,1-1.7-1.16c-0.57-.62-1.09-1.69-1.86-1.78s-1,.41-1.47.28c-0.69-.17-0.92-1.41-1.36-1.85-0.83-.84-2-0.28-3-0.68-0.54-.22-0.86-0.89-1.45-1a8.86,8.86,0,0,1-2.25-.39,20.29,20.29,0,0,1-2-1,50.53,50.53,0,0,0-5.56-3.8,21.92,21.92,0,0,0-5.52-2.35,5,5,0,0,1-1.91-.7,4.51,4.51,0,0,1-.3-0.73,34.1,34.1,0,0,0-3.84-7.76,59,59,0,0,1-3.45-4.86,57.74,57.74,0,0,1-2.48-6c-0.89-2.09-2.12-4-2-7.1,0-.82.25-1.66,0.29-2.51,0-.44,0-0.91.1-1.34s0.23-.79.25-1.17a10.23,10.23,0,0,0-.46-2.35c-0.17-1.1-.21-2.41-0.28-3.52-0.05-.61-0.22-1.18-0.27-1.65-0.13-1.11.22-3.61-.89-3-1,.5-0.59,2.22-0.66,3.66,0,0.89-.15,1.68-0.22,2.55s-0.18,2.09-.67,2.15a1.74,1.74,0,0,1-.83-0.75,2.2,2.2,0,0,0-.88-0.75,2.24,2.24,0,0,0-1.28.36,2,2,0,0,0-1.17.63,1.52,1.52,0,0,1-.16.55,3.33,3.33,0,0,0-.38.06c-0.22.08-.14,0.19-0.31,0.14a4.43,4.43,0,0,1-.37-0.61c-0.49-.72-1.12-0.52-0.82.65a13.2,13.2,0,0,0,.81,2.22,12.1,12.1,0,0,1,.55,1.22c0,0.18,0,.36,0,0.5s0.21,0.36.26,0.61a13.56,13.56,0,0,1,0,1.83,8.8,8.8,0,0,0,.72,3.17,10.29,10.29,0,0,0,.61,1.34,8.51,8.51,0,0,1,1.17,1.32,23.86,23.86,0,0,1,1,4.2c0.37,1.63.75,3.24,1.2,4.84,0.83,2.93,1.22,6,2.65,8.57,0.76,1.41,1.51,2.88,2.39,4.21a21.78,21.78,0,0,1,1.76,3.16c0.17,0.38.28,0.84,0.48,1.23A7.15,7.15,0,0,0,439.8,267a45.51,45.51,0,0,1,3.68,3.32c0.6,0.62,3.7,4.56,4.92,5.75,1.47,1.44,3.76,2.77,3.84,3.18a8.09,8.09,0,0,0,0,1.21,16.16,16.16,0,0,0,1.25,1.77,23.38,23.38,0,0,1,.71,2.41c0.46,1.38,1.31,2.63,1.43,4.13a4.26,4.26,0,0,1-.26,1.64c-0.65,2.69-.85,5.61-1.75,8.2-0.82,2.36-1.52,4.76-2.34,7.11s-0.8,4.58-1.35,6.89c-0.48,2-2.15,3.44-2.54,5.5s0.12,3.21-1.75,4.15c-0.75.38-2,.79-2.09,1.83a9.9,9.9,0,0,0,.32,1.9c0.06,1.21-.71,1.89-1.25,2.81-1.57,2.74-3.07,4.62-3.73,8.17-0.35,1.84-1.9,3.14-2.56,4.87a52.86,52.86,0,0,0-1.44,5.14c-0.52,1.89-1.14,3.35-1.54,5.36a7.19,7.19,0,0,1-.87,2.59,8.31,8.31,0,0,1-.75.45c-0.85.66-.87,2-1.15,3.3-0.44,2.13-1.61,3.8-2.3,5.81s-0.77,4.11-1.88,5.88a4.15,4.15,0,0,0-.64,1,2.65,2.65,0,0,0,.4,1.93,7.85,7.85,0,0,0,1.74,2.66,2.32,2.32,0,0,1,.75.72,8.52,8.52,0,0,1-.66,2.07,48,48,0,0,1-2.16,6.05c-1.82,3.64-4.16,7-5.69,10.77a21,21,0,0,0-1.25,4.22c-0.3,1.81-.64,3.61-0.95,5.42h14.41Z" transform="translate(3.21 -129.77)"/><path class="cls-1" d="M210,405.21a5.84,5.84,0,0,0,0-.82c-0.15-2.56,1.3-4.69,2.26-6.88a76.78,76.78,0,0,1,5.11-9.25,24.27,24.27,0,0,0,3.11-7.34c0.12-.54.24-1.11,0.4-1.69a12.32,12.32,0,0,1,1-3.14c1.48-2.63,3.13-5.14,4.61-7.77a6.93,6.93,0,0,1,.73-1.36,2.92,2.92,0,0,1,.72.21,5.29,5.29,0,0,0,2.5.26c1.43-.41,2.27-2.53,3-3.75a13.52,13.52,0,0,1,3.1-3.87c2.54-2,3.82-6.1,5.65-8.84,1-1.52,1.74,1.12,2.35,2.11a32,32,0,0,1,1.56,3.19c1,2.34,1.76,4.95,3.21,7.05,1.19,1.75,2.64,3.15,3.71,5a5.07,5.07,0,0,0,1.4,1.74,5.46,5.46,0,0,0,3,0c1.4-.42,2.66-1.36,4.08-1.73a8,8,0,0,1,2.5-.4c1.06,0.45.72,2.31,0.41,3.08-1.34,3.28-2.22,5.36-3.3,8.69a25.8,25.8,0,0,0-1.42,9.39,42.45,42.45,0,0,1-1.42,12.33c-0.32,1.29-.75,2.49-1.22,3.82H265a26.85,26.85,0,0,1,1.31-4.47c1.91-5.54,5.07-10.45,6.85-16.06,1-3.2,1.42-6.6,2.47-9.78s2.45-5.78,2.81-9.45a5.06,5.06,0,0,0-1.08-3.11,4.74,4.74,0,0,1-.39-0.78,3.16,3.16,0,0,0-.21-1.65c-0.67-1.57-1.7-2.92-2.27-4.54-0.78-2.21-2.6-3.32-3.06-5.69a6.9,6.9,0,0,0-1.26-3c-0.94-1.18-2.07-2.15-3-3.36-1.15-1.52-2.07-3.23-3.23-4.74-0.58-.77-2.5-2.08-2.71-3a12.1,12.1,0,0,1,0-2.19,7.24,7.24,0,0,1-.08-1c0.21-.25,3.07.19,3.52,0.14,1-.11,2.61-0.38,2.93-1.67,0.24-1,0-2,.12-3,0.24-1.5.6-3,1-4.43,0.49-2,1-4.16,1.43-6.11a25.77,25.77,0,0,0,.64-3.37,21.58,21.58,0,0,1,.36-2.28c0.2-.93.41-1.88,0.57-2.84,0.21-1.29.43-2.56,0.71-3.82a12.8,12.8,0,0,0,.29-2,14.93,14.93,0,0,1,.32-2c0.14-.66.2-1.3,0.29-2s0.36-1.19.49-1.79a16.09,16.09,0,0,1,.34-1.62,13.48,13.48,0,0,1,3.21-5c0.74-.83.62-1.35,1-2.29a4,4,0,0,1,1.2-1,48.72,48.72,0,0,0,5.15-3.46c1.56-1.36,2.95-2.93,4.41-4.41a39.51,39.51,0,0,1,4-3.81,13.79,13.79,0,0,0,2.16-1.74c0.61-.68,1.16-1.4,1.79-2.07,1.27-1.36,2.45-2.75,3.57-4.21a46.82,46.82,0,0,0,5.69-10c0.38-.86.6-1.85,1.06-2.67s1.18-1.19,1.57-1.88a7.78,7.78,0,0,0,.64-1.8,40.32,40.32,0,0,0,0-4.73,2.33,2.33,0,0,1,.78-1.11,3.57,3.57,0,0,1,.61.63,0.61,0.61,0,0,0,.63.09c0.24-.14.18-0.31,0.34-0.38a4.75,4.75,0,0,1,.65.07c0.55,0,1-.1,1-0.7a1.56,1.56,0,0,0-1.1-.73,2.39,2.39,0,0,1-1.1-.57,4.4,4.4,0,0,1,.29-0.93c0.05-.21.19-1-0.14-1.14-0.51-.15-0.72.78-1,0.81a1.16,1.16,0,0,1-.42-0.22,1.81,1.81,0,0,0-.38-0.57,1.51,1.51,0,0,0-1.52.46,3,3,0,0,1-1.25.83,0.84,0.84,0,0,1-.45-0.85,21.27,21.27,0,0,1-.07-2.7c0-.54-0.16-1.28-0.19-1.84,0-1,0-2.59-.86-2.67s-0.65,1.33-.6,2.19a15.27,15.27,0,0,1-.37,3.53c-0.11.73-.15,1.51-0.26,2.3a11.88,11.88,0,0,0-.38,2.24c0.07,1.54.72,3.17,0.62,4.84-0.15,2.51-2.41,4.66-3.82,6.44-0.75.95-1.48,2-2.22,2.92a52,52,0,0,1-3.95,3.74c-1.3,1.25-2.71,2.45-3.92,3.8-0.78.89-1.33,2.07-2.19,3a3.26,3.26,0,0,1-1.73.5,9.53,9.53,0,0,0-4.45,2c-1.21.92-2.49,1.81-3.74,2.65a6.1,6.1,0,0,1-1.34.83,2.72,2.72,0,0,0-.55-0.15c-0.45.07-.92,0.64-1.38,0.78a6.53,6.53,0,0,0-1.7.45c-0.64.37-1.37,0.5-2,.86a4.27,4.27,0,0,1-.87.56,3,3,0,0,1-.69-0.31,3.26,3.26,0,0,0-1.73.54,5.52,5.52,0,0,1-.5.82,1.27,1.27,0,0,1-1.16-.08c-0.1-.16-0.06-0.59-0.17-0.79a7.38,7.38,0,0,0-.6-0.56c0-.17.76-2.09,1.49-4.24,0.67-2,.87-3.41,1.23-3.67a7.64,7.64,0,0,1,1.18-.27,3.11,3.11,0,0,0,1.2-1.59,4.3,4.3,0,0,0,.69-2.85,1.4,1.4,0,0,1-.12-0.41,5.76,5.76,0,0,1,.47-1.62,4.45,4.45,0,0,0,.1-1.85c-0.08-.6.07-1.23,0-1.95a6,6,0,0,0-.2-0.89,2.24,2.24,0,0,1-.2-0.89c0-.07.14,0.09,0.19-0.08a1.82,1.82,0,0,1-.18-0.45,2.82,2.82,0,0,0-.69-1.63,1.56,1.56,0,0,1-.79-0.48,2,2,0,0,1,.62-0.38c-0.13-.12-0.66.07-0.68-0.17,0-.52.73-0.67,0.67-0.77a1.18,1.18,0,0,0-.54.1,0.71,0.71,0,0,1-.51.13c-0.05-.1.21-0.16,0.25-0.19,0.53-.31,0-0.07-0.32-0.19s-0.93-.71-1.53-1a3.36,3.36,0,0,0-1-.27,0.85,0.85,0,0,1-.79-0.48c0-.37.5-0.22,0.37-0.33a5.41,5.41,0,0,0-.65-0.15c-0.07-.19.87-0.27,0.49-0.34a3.17,3.17,0,0,0-.47,0,1.51,1.51,0,0,1-1.09-.05c-0.31-.14-0.19-0.24,0-0.23s0.7,0.17.36-.06a1.3,1.3,0,0,0-.74-0.21c-0.21,0-1.33.24-1.09,0a1.05,1.05,0,0,1,.82-0.22c0-.13-0.18-0.11-0.3-0.12a6.55,6.55,0,0,0-2.53.54,1.51,1.51,0,0,0,.7-0.69,0.59,0.59,0,0,0-.3.19,11.35,11.35,0,0,1-1.86.54,2.23,2.23,0,0,0-1,.92,2.53,2.53,0,0,1-.37.78c-0.23-.35.19-1-0.07-0.76a1.65,1.65,0,0,0-.39,1.17c0,0.18.32,0.65,0.29,0.71s-0.42.15-.54,0.2a7.11,7.11,0,0,0-1.38.76,3.72,3.72,0,0,0-.83,1.4,2.47,2.47,0,0,0-.28,1,1,1,0,0,0,.26-0.12,6.89,6.89,0,0,1-.34,1,6,6,0,0,0-.17,1.12c0,0.41-.14.73-0.21,1.08-0.21,1.12,0,2.59-.13,3.73a7.81,7.81,0,0,0-.24,2.34c0.06,0.45.23,0.71,0.24,1,0,0.67,0,2.19.06,2.57s0.45,0.84.48,1.15-0.09.84-.12,1.56a13.9,13.9,0,0,1-.24,3,0.69,0.69,0,0,1-.49.61,2.3,2.3,0,0,0-1.26.2,2.47,2.47,0,0,1-1.42-1c-0.47-.52-0.91-1.42-1.55-1.49s-0.81.35-1.23,0.24c-0.57-.14-0.76-1.17-1.13-1.54-0.69-.7-1.67-0.24-2.47-0.57a8,8,0,0,0-1.21-.85,7.33,7.33,0,0,1-1.88-.33,17.19,17.19,0,0,1-1.64-.82,42.05,42.05,0,0,0-4.64-3.17,18.29,18.29,0,0,0-4.61-2,4.14,4.14,0,0,1-1.59-.58,3.36,3.36,0,0,1-.25-0.61,28.62,28.62,0,0,0-3.2-6.48,48.67,48.67,0,0,1-2.88-4.06,48.57,48.57,0,0,1-2.07-5c-0.74-1.74-1.76-3.33-1.7-5.92,0-.68.21-1.39,0.25-2.1,0-.37,0-0.76.08-1.12a9.87,9.87,0,0,0,.21-1,8.45,8.45,0,0,0-.39-2c-0.14-.92-0.17-2-0.23-2.94,0-.51-0.18-1-0.23-1.38-0.11-.92.19-3-0.74-2.54s-0.49,1.85-.55,3.05c0,0.74-.12,1.4-0.19,2.12s-0.15,1.74-.56,1.8a1.44,1.44,0,0,1-.7-0.62,1.84,1.84,0,0,0-.74-0.62,1.86,1.86,0,0,0-1.07.3,1.69,1.69,0,0,0-1,.53,1.19,1.19,0,0,1-.13.46s-0.2,0-.32.05-0.12.16-.26,0.12a3.52,3.52,0,0,1-.3-0.51c-0.41-.6-0.93-0.43-0.68.55a11,11,0,0,0,.68,1.85c0.17,0.39.39,0.76,0.46,1s0,0.3,0,.42,0.18,0.3.21,0.51a11.45,11.45,0,0,1,0,1.53,7.41,7.41,0,0,0,.6,2.64,8.92,8.92,0,0,0,.5,1.12,7.18,7.18,0,0,1,1,1.1,20,20,0,0,1,.84,3.51c0.31,1.36.63,2.71,1,4,0.69,2.45,1,5,2.21,7.15,0.64,1.17,1.26,2.4,2,3.52a18.51,18.51,0,0,1,1.47,2.63c0.14,0.32.23,0.71,0.4,1a6,6,0,0,0,1.45,1.49,37.87,37.87,0,0,1,3.07,2.77c0.5,0.52,3.09,3.81,4.1,4.8,1.23,1.2,3.14,2.31,3.21,2.66a7,7,0,0,0,0,1,13.79,13.79,0,0,0,1,1.48,20,20,0,0,1,.59,2,14.72,14.72,0,0,1,1.2,3.45,3.64,3.64,0,0,1-.22,1.37c-0.55,2.24-.71,4.68-1.46,6.85-0.68,2-1.27,4-2,5.93s-0.67,3.83-1.13,5.75c-0.4,1.7-1.79,2.87-2.12,4.59s0.1,2.68-1.46,3.46c-0.62.32-1.64,0.66-1.74,1.52a8.35,8.35,0,0,0,.26,1.58c0,1-.59,1.58-1,2.34-1.31,2.29-2.56,3.86-3.12,6.82-0.29,1.54-1.59,2.62-2.14,4.06a43.72,43.72,0,0,0-1.2,4.29c-0.43,1.58-.95,2.8-1.29,4.48a6.06,6.06,0,0,1-.73,2.16c-0.16.17-.42,0.21-0.62,0.38-0.71.55-.73,1.68-1,2.75-0.36,1.77-1.34,3.18-1.92,4.85s-0.64,3.43-1.57,4.91a3.48,3.48,0,0,0-.54.86,2.21,2.21,0,0,0,.33,1.61,6.57,6.57,0,0,0,1.45,2.22,2,2,0,0,1,.63.6,7.17,7.17,0,0,1-.55,1.73,39.87,39.87,0,0,1-1.8,5.05c-1.52,3-3.47,5.81-4.75,9a17.65,17.65,0,0,0-1,3.52c-0.83,4.93-1.68,9.84-2.61,14.75-0.43,2.34-.57,4.92-1.43,7.13-0.32.85-.81,1.65-1.18,2.48H210Z" transform="translate(3.21 -129.77)"/><path d="M552.21,256.85A172.57,172.57,0,0,0,557.86,280c2.59,3.12,5.67,5.8,8.11,9-0.21,2.8,3.78,5,5.58,6.51,5.15,4.22,8.65,11.86,10.62,18.12,2.4,7.63,4.27,15.59,6.06,23.38,0.81,3.51-1.72,6.78-1.74,10.43a10.5,10.5,0,0,0,.31,2.62c-0.28.91-.55,1.83-0.82,2.74-0.55,1.83-1.09,3.66-1.62,5.49-2.26,7.78-4.37,15.61-6.15,23.52a26.52,26.52,0,0,0-.91,6.7,43.76,43.76,0,0,1-.34,5.37c-0.17,1.72.09,3.73-.45,5.36s-1.07,3.3-1.55,5c-0.09.3-.16,0.61-0.24,0.91h16a12.56,12.56,0,0,1,.52-2.18,65.54,65.54,0,0,1,4-10.1c1.61-2.9,1.66-7.08,2.47-10.3a79.69,79.69,0,0,1,3.57-10.28c0.62-1.54.54-3.3,1.05-4.9,0.35-1.1,1.3-1.83,1.35-2.68a14.11,14.11,0,0,0,.64,1.94,10.44,10.44,0,0,1,.58,1.15c0.34,1.14.66,2.3,1,3.45a36.35,36.35,0,0,0,2.7,7.3c2.37,4.42,2.95,9.9,4.66,14.66,0.86,2.39,2.19,4.63,2.81,7.08a45.12,45.12,0,0,1,1,4.84h17.33a37.74,37.74,0,0,1-.38-4.69c0-1.83.59-3.6,0.48-5.39s-0.66-3.37-.91-5a83.23,83.23,0,0,0-3-11.81c-1-3.59-1.51-7.3-2.58-10.87-1.14-3.78-2.67-7.42-3.94-11.15a20,20,0,0,1-1.29-5c-0.08-1.28-.86-3.11-0.5-4.32,0.51-1.68-.32-3.65-0.44-5.37a15.55,15.55,0,0,0-.07-4.65c-0.45-2.62-1.62-5-2.43-7.5s-1.86-6.84.3-8.72c0.74-.63.17-4.05,0.09-5-0.13-1.59-.36-3.18-0.55-4.77,2.48,0.59,4.45,2.18,6.7,3.29,2.48,1.22,6,.76,8.7,1.27a9.54,9.54,0,0,0,4.25.3,10.56,10.56,0,0,0,3.83-2c2.37-1.63,4.65-3.4,6.93-5.16q1.46-1.12,2.95-2.22V299a63.71,63.71,0,0,1-7.21,2.92c-2.66.93-5.17,1.46-7.34,3.33a6.1,6.1,0,0,1-2.92,1.53c-1-.24-1.64-1.12-2.58-1.49-0.11-2.25-3.92-2.94-5.54-4.31-1.79-1.51-3.33-3.32-5.25-4.66-3.1-2.18-7.72-3.1-11.34-4.18,0.2-.77.3-1.57,0.5-2.35a5.38,5.38,0,0,0,1.32-1.35,8.75,8.75,0,0,0,1.28-3.77,32.88,32.88,0,0,0-.54-10.55c-0.29-1.51-.63-3-0.93-4.51A17.4,17.4,0,0,0,608.3,266c-5.63-4-14.2,1.85-13.41,8.38,0.13,1.16.38,2.29,0.49,3.45a2.84,2.84,0,0,0-.89,1.45,5,5,0,0,0,.61,3.5,4.46,4.46,0,0,0,2.48,2.24,9.94,9.94,0,0,1-.66,4.75c-0.4.83-1.78,0.67-2.54,0.2a6.7,6.7,0,0,1-1.43,1.91c-1.16,1-2.32-.62-3-1.58-0.81-1.18-1.36-2.2-2.7-2.81-1.62-.74-3.23-1.49-4.81-2.3-3.27-1.68-6-4.09-9.1-5.88a20.16,20.16,0,0,0-3.71-2.12c-0.71-.25-1.48-0.29-2.21-0.5a13.6,13.6,0,0,1-1.13-2c-0.83-1.73-1-3.77-1.82-5.57-0.62-1.46-1.37-2.86-2.06-4.29a80.49,80.49,0,0,1-3.38-8.87,30.83,30.83,0,0,1-1.36-5.65c-0.13-1-.54-1.71.44-2.27a3.18,3.18,0,0,0,1.72-1.5c0.87-1.71,4-7.88,0-7.34,0.24-1,.63-5.57-1.46-5.08a15.4,15.4,0,0,1-4.13,1.48,8.76,8.76,0,0,0-3.39,1.66c-1,.88-1.81.87-2,2.28a25,25,0,0,0-.12,2.8,25.42,25.42,0,0,0,.65,5.11C550.19,250.66,551.62,253.62,552.21,256.85Z" transform="translate(3.21 -129.77)"/><path d="M558.41,240.67c-0.23-.4.53,0.65,0,0h0Z" transform="translate(3.21 -129.77)"/><path d="M403.87,255a172.68,172.68,0,0,0,5.64,23.18c2.59,3.12,5.67,5.8,8.11,9-0.21,2.8,3.79,5,5.58,6.51,5.15,4.22,8.65,11.86,10.62,18.13,2.4,7.63,4.27,15.59,6.06,23.38,0.81,3.51-1.71,6.78-1.74,10.43a10.5,10.5,0,0,0,.31,2.62c-0.28.91-.55,1.83-0.82,2.74q-0.82,2.74-1.62,5.49c-2.26,7.78-4.37,15.61-6.16,23.52a26.39,26.39,0,0,0-.91,6.7,44.11,44.11,0,0,1-.34,5.37c-0.17,1.72.09,3.73-.45,5.36s-1.07,3.31-1.55,5c-0.27.92-.5,1.84-0.71,2.77h16.26a14.79,14.79,0,0,1,.72-4,65.38,65.38,0,0,1,4-10.1c1.61-2.9,1.66-7.08,2.47-10.3a79.56,79.56,0,0,1,3.57-10.28c0.62-1.54.54-3.3,1-4.9,0.35-1.1,1.3-1.83,1.35-2.68a13.69,13.69,0,0,0,.65,1.94,10.76,10.76,0,0,1,.58,1.15c0.34,1.14.66,2.3,1,3.45a36.48,36.48,0,0,0,2.7,7.3c2.37,4.42,2.95,9.9,4.66,14.66,0.86,2.39,2.19,4.63,2.81,7.08a38.51,38.51,0,0,1,1.13,6.71h17.41a48.49,48.49,0,0,1-.64-6.56c0-1.83.59-3.6,0.48-5.39s-0.66-3.37-.91-5a83.77,83.77,0,0,0-3-11.81c-1-3.59-1.51-7.3-2.58-10.87-1.14-3.78-2.67-7.42-3.94-11.15a20.09,20.09,0,0,1-1.29-5c-0.08-1.28-.86-3.11-0.5-4.32,0.51-1.68-.32-3.65-0.44-5.37a15.56,15.56,0,0,0-.07-4.65c-0.45-2.61-1.62-5-2.43-7.5s-1.86-6.84.3-8.72c0.74-.63.16-4.05,0.09-5-0.13-1.59-.36-3.18-0.55-4.77,2.48,0.59,4.45,2.18,6.7,3.29,2.48,1.22,6,.76,8.7,1.27a9.52,9.52,0,0,0,4.25.3,10.58,10.58,0,0,0,3.83-2c2.38-1.63,4.65-3.4,6.93-5.16s4.6-3.5,7-5c1.24-.79,2.52-1.53,3.83-2.2s1.88-2,2.59-3.25,1.67-2.27,1.84-3.56a6.44,6.44,0,0,1,.58-1.75,1.22,1.22,0,0,1-.17-1c0.41-2.16-.84-3.8-2.53-5.16-1.12-.89-1.78-1.16-2.83,0a2.47,2.47,0,0,1-2.27,1c-1.45.14-1.07,4.71-1.08,5.86,0,1.32,1.25,2.34.05,3.16a31,31,0,0,1-3.75,2.18,62.31,62.31,0,0,1-7.57,3.09c-2.67.93-5.17,1.46-7.34,3.33a6.1,6.1,0,0,1-2.92,1.53c-1-.24-1.64-1.12-2.58-1.49-0.12-2.24-3.92-2.93-5.54-4.31-1.79-1.51-3.33-3.32-5.25-4.66-3.1-2.18-7.72-3.09-11.34-4.18,0.2-.77.3-1.57,0.5-2.35a5.34,5.34,0,0,0,1.32-1.35,8.76,8.76,0,0,0,1.28-3.77,32.94,32.94,0,0,0-.54-10.56c-0.29-1.51-.63-3-0.93-4.51a17.39,17.39,0,0,0-3.58-3.55c-5.63-4-14.2,1.85-13.41,8.38,0.14,1.16.38,2.29,0.49,3.45a2.85,2.85,0,0,0-.89,1.45,4.94,4.94,0,0,0,.61,3.5,4.44,4.44,0,0,0,2.48,2.24,9.92,9.92,0,0,1-.66,4.75c-0.4.83-1.78,0.67-2.54,0.2a6.75,6.75,0,0,1-1.43,1.9c-1.17,1-2.32-.62-3-1.58-0.8-1.18-1.36-2.2-2.7-2.81-1.62-.74-3.23-1.49-4.81-2.3-3.27-1.68-6-4.09-9.1-5.88a20.11,20.11,0,0,0-3.71-2.12c-0.71-.25-1.48-0.29-2.21-0.5a13.12,13.12,0,0,1-1.12-2c-0.83-1.73-1-3.77-1.82-5.57-0.63-1.46-1.37-2.86-2.06-4.29a79.91,79.91,0,0,1-3.37-8.87,30.36,30.36,0,0,1-1.36-5.65c-0.14-1-.54-1.71.44-2.27a3.18,3.18,0,0,0,1.72-1.5c0.88-1.71,4-7.88,0-7.34,0.24-1,.63-5.57-1.46-5.08a15.3,15.3,0,0,1-4.13,1.48,8.78,8.78,0,0,0-3.39,1.66c-1,.88-1.81.87-2,2.29a25,25,0,0,0-.12,2.8,25.59,25.59,0,0,0,.65,5.11C401.85,248.79,403.28,251.76,403.87,255Z" transform="translate(3.21 -129.77)"/><path d="M410.06,238.8c-0.23-.4.53,0.65,0,0h0Z" transform="translate(3.21 -129.77)"/><path d="M361.54,263.75c1.74,4.12,3.2,8,5.7,11.76,3.71,1.95,3.18,6.65,5.46,9.48a30.17,30.17,0,0,1,3.26,4.89c0.91,1.78,1.07,3.49,1.74,5.28,1.66,4.46,3.95,8.58,5.63,13,3.22,8.36,6.92,16.39,9.51,25,1.26,4.18,1,7.93,1,12.21A74.39,74.39,0,0,0,392,356.84c-0.23,4.22-1.51,8.55-2.08,12.77-0.65,4.77-1.19,9.56-2,14.3a34.58,34.58,0,0,0-.6,6.11,17.36,17.36,0,0,0-4.66,3.4,58.83,58.83,0,0,0-9.48,9.85,15.77,15.77,0,0,1-1.91,1.94h28a7,7,0,0,0,3.27-2.07,13,13,0,0,0,2.14-2.76q1.07-2.42,2-4.87,1.79-4.52,3.28-9.14a183.13,183.13,0,0,0,5.39-20.85c4.2,6.46,8.53,12.87,12.17,19.67a14,14,0,0,1-1.75.47c-0.67.91-1.33,1.82-2,2.73q-2,2.75-3.87,5.54-3.75,5.54-7.21,11.27h24.05c1.47-2.65,2.95-5.31,4.58-7.91,2.06-3.28,5.7-5.32,7.81-8.69,2.21-3.55,1.46-7.65-.21-11.28-1.52-3.33-2.26-6.61-4.22-9.81-1.29-4.08-4.31-7.15-6.32-10.83-0.83-3.13-3.31-5.38-4.45-8.36-2.45-2.67-3.58-6.25-5.39-9.34a32.73,32.73,0,0,1-3-8.18c-0.39-1.59-.25-3.23-0.76-4.77-0.67-2-1.19-4-1.78-6,3.06,0.08,6.15-.48,9.18,0a10.65,10.65,0,0,1,4,1.85c1.21,0.74,3.07.67,4.45,0.7,0.75,0,2.65.18,2.94-.78s2-.33,2.73-1.31c0.33-1.82-.42-2.2-1.81-2.83a1.42,1.42,0,0,0-1.28-.42c-0.28,0-1.55-.83-0.92-0.77s0.72,0.69,1.44.36A1.36,1.36,0,0,1,445,315.2c1.1-.42,3.14-0.87,3.3-2.33-1.13-.48-2.19,0-3.19.57-1.67.87-2.66,0.14-4.41-.1a21.57,21.57,0,0,1-8.54.84,29.91,29.91,0,0,1-8.2-1.85c-1.3-.5-2.28-0.52-2.23-2.05a33.11,33.11,0,0,0-.26-5.06c-0.35-3-2.29-6.23-3.64-9-1.2-2.42-2.69-6.21-5.05-7.64a26,26,0,0,0-3.22-1.75,8.32,8.32,0,0,1-4.09-3.44,45.11,45.11,0,0,0-2.21-10.72c1.87,0.09,1.13-1.93.73-2.83-0.62-1.43-1-2.21-2.09-2.29a1.49,1.49,0,0,0,0-.21c0.29-1-.72-1.79-0.28-2.74a7.44,7.44,0,0,0-2.25-4c-0.33-.28-1.08-0.52-0.55-1.07a4,4,0,0,1-2.16-.79c0.22-.26.74-0.62,0.53-1-0.74,1-1.87.23-2.73,0-1.5,0-2.95-.58-4.48.2-0.21-.06.09-0.26-0.17-0.22a0.19,0.19,0,0,0,.11.22l-1.17.59-0.11-.37c-0.6.15-.16,1.32-1.12,1-0.76.52-1.76,0.64-2.39,1.34a4.37,4.37,0,0,0-1.55,3.72,7.39,7.39,0,0,0-.32,4.26,7.63,7.63,0,0,0,0,3.2c0.2,2.08,1.95,3.19,2.47,5.09l-0.07.05c-1.8-.44-2.38-3-4.25-3.69a7.4,7.4,0,0,0-3.71-.44,4.67,4.67,0,0,0-.93-1.65c0-.47.08-0.94,0.11-1.41-0.82-2.3-1.29-5.47-3.1-7.15a55,55,0,0,1-5-5.56c-1.67-2-3.36-4-4.84-6.19a32.19,32.19,0,0,1-2-3.47c-0.89-1.78-1-1.82.62-2.92a5.33,5.33,0,0,0,1.94-3.08c0.18-.53.41-3.21,0.81-3.42,1.6-.87-1-4.06-1.91-5s-1.64-1.49-2.44-2.26c0-1.08,0-2.17-.09-3.25-0.14-2-.59-4.57-2.95-5-0.57,1,.55,3.15.64,4.23,0.15,2.17.3,3.8-1.14,5.58-1.95,2.43-4.08,5.14-4.09,8.5,0,3.77-.08,7.73,2.53,10.64C358.63,254.45,359.92,259.91,361.54,263.75ZM445.1,319.7c-1.12.16-3.13,0.25-3.52-.71A18.18,18.18,0,0,1,445.1,319.7Zm-53.73-36.17c-1.15-.33-1.43-1.54-1.87-2.59C390.68,280,391.23,282.26,391.36,283.52Zm-29-46.53a0.78,0.78,0,0,1-.94-0.83A2,2,0,0,1,362.34,237Z" transform="translate(3.21 -129.77)"/><rect x="3.36" y="207.79" width="656.28" height="67.66"/><path d="M637.31,285.8A43.64,43.64,0,0,1,619,289.89c-0.34,0-.67,0-1-0.05l-5.74,1.47c-16.87,4.35-32.91,10.09-50.42,11.64-17.23,1.53-33.77-2.16-49.36-9-0.09.36-.26,0.82-0.38,1.15a5.76,5.76,0,0,0-.11.93c-0.05.12-.68,1.05-0.89,1.38a7,7,0,0,0-.73,1.49,1.4,1.4,0,0,1-.15.54,3.25,3.25,0,0,1-.4.33c0.19-1.89.33-3.86,0.45-6,0-.27,0-0.56,0-0.84-0.43-.2-0.87-0.37-1.31-0.58l1.31,0.3v-0.13c-0.62-.24-2-0.7-4.29-1.41q-4.41-1.43-8.95-2.45c-2.59-.45-4-0.72-4.43-0.84-2.18-.19-4.36-0.39-6.55-0.5-26.2-1-52.47-.91-78.75-0.44A43.43,43.43,0,0,1,383,291.52a43.61,43.61,0,0,1-8.69,1.11A43.57,43.57,0,0,1,359,295.44c-1,0-2,0-3-.11a43,43,0,0,1-27.12-2.8,43.68,43.68,0,0,1-15.22-3.74c-4.62.06-9.24,0.13-13.86,0.15-14.66,0-29.45-.34-44.07,1.08-1.57.15-2.68,0.24-3.46,0.29l-2.58.54q-4.49.84-8.91,1.93a190.86,190.86,0,0,0-18.58,5.76c-28,10.51-58.31,8.05-87.45,4.81-24.72-2.75-49.89-6.25-74.79-6.49a190.58,190.58,0,0,0-21,.64l-0.59.06c-1.55.27-3.07,0.64-4.6,1A65.68,65.68,0,0,1,8,316.93a2.85,2.85,0,0,0,.29.52A85.34,85.34,0,0,0,0,323.84v54.54H655.83v-9.81c-0.09.65-.19,1.3-0.28,2a4.37,4.37,0,0,0-1.14-.44V350.77l1.42,2.7V321c0-.13,0-0.26,0-0.38s0-.11,0-0.17V284.12a43.61,43.61,0,0,1-13.23,2.07A41.18,41.18,0,0,1,637.31,285.8Z" transform="translate(3.21 -129.77)"/><path d="M38,316.3l-0.14.07h0Z" transform="translate(3.21 -129.77)"/><path d="M-2.09,300a116.11,116.11,0,0,0,.26,17.07,9.9,9.9,0,0,1-.07,1.68A33,33,0,0,1,.39,330.85,33,33,0,0,1-1.42,341.6c0.17,0.11.35,0.22,0.52,0.34,0.56,1.82.23,3.55,0.41,5.5l-0.31.3c-0.13,3.52.27,6.77-.33,10.29A86.51,86.51,0,0,0,.3,380.34c0.4,3.66,1.87,7.14,1.53,11.09s2.3,6.95,2.47,10.8c-0.27,1.1.3,2,.59,3h17c-0.41-1.59-.91-3.14,0-4.76-0.13-1.38-.8-2.75-0.3-4.2,1.43-4.42.57-7.91,1-12.54,0.24-1.4-.83-2.79,0-4,0.4,3.49,2.07,6.4,2.34,9.93,3,3.28,2.6,8,3.73,12.13a9.57,9.57,0,0,1,1.44,3.39H47a9.56,9.56,0,0,0-1.57-3,32.69,32.69,0,0,1,.57-10.8l-1-5.7c-0.5-9.52-1.3-19.38-3.37-27.83-1.32-3.12-1.7-6.57-3.2-9.59,0.14-1.27-1.4-3.05.4-3.86,0.13-1.27-1-2.21-1.37-3.38l-0.63-8.28c0.2-5.73-.5-11,0.8-16.33l0.2-.09a0.18,0.18,0,0,1-.2-0.07,7.2,7.2,0,0,0,.23-2.24c-0.63-2.45.64-5.1,1.43-7.41,0.53-1.84.2-4.05,1.53-5.57,4.29-3.89,6-8.89,10-12.87,0.83-2.18,3.3-3.78,3.6-6.27,0.53-.91,1.67-0.73,2.4-1.38l2.07-4.73a21.85,21.85,0,0,1,.4-5.73l-0.7-1c-1.84-5.63-4.27-11-6.57-16.5-1-1.38-1.72-3-2.62-4.33,1.1-.54,3.26-0.1,3.1-1.95-0.8-1.48-2.86-.81-4.13-1.21-1.53-.87-0.47-2.84-1.7-3.79-0.46-2.61,1.17-5.46-1-7.31a1.45,1.45,0,0,1-.93-1.37,2.73,2.73,0,0,0-3.06-1.44c-0.7-.91-0.37-2.82-1.83-3-1.07.94-1-1.28-2.13-.81a1.22,1.22,0,0,0-.8.81,19.48,19.48,0,0,0,.53,5.06,6.08,6.08,0,0,1-.06,2.58l-0.57-.5a2.34,2.34,0,0,0-1.89-.07c0.1,0.81.56,1.48,0.63,2.35a21,21,0,0,1,.8,2.72,35.27,35.27,0,0,1-4.62,2.51,108.78,108.78,0,0,0-21,5.47c-1.46.54-2.8,1.5-4.39,1.68a9.62,9.62,0,0,0-4.33,2.91c-2.3,1.11-2.43,3.56-3,5.64-1.07,1.37-.2,3.35-1,4.73-0.23,1.71-.54,3.41-0.81,5.13q-0.16,10.18-.46,20.36A27.71,27.71,0,0,1-3,291.92C-2.93,294.71-2.13,297.22-2.09,300Zm13.2-28.1a12.22,12.22,0,0,0-.08-5.7,2.91,2.91,0,0,0,.8-2.34c-0.86-.88-0.36-2-0.16-3.06a0.88,0.88,0,0,0,.63-0.23c0.4-1.14,1.6-1.61,2.5-2.18,5.9-2.45,11.39-5.93,17.49-7.88,2.14-.12,3.63,1.15,5.53,1.54,2.17,0.27,4.47.44,5.83,2.49h0.23c1,3.62,2.26,7.14,2.63,11a15.18,15.18,0,0,1,.9,4.72,1.63,1.63,0,0,0-1,1c0.77,1.75-1.36,1.68-2,2.42-0.4,1.33-2,1.71-2.16,3.15-0.87.67-2.33,1.27-2.4,2.58-1.51.71-1,2.45-2.41,3.22-0.6.87-2.1,0.77-2.53,1.91-1.83-.23-2.3,2.35-4.17,2.18-0.61,1.75-2.43,1.15-3.6,1.85a2,2,0,0,1-.1-1.37A14,14,0,0,0,30,282.8c2.37,0.1,2.91-2.74,3.84-4.32,0.67-1.51-.37-2.79.56-4.19,1.13-4.53-1.33-8.48-4.8-11.33-2.63-2.35-6.83-2.38-10-1.21s-5.2,4.33-5.83,7.31c0,1.81-.1,3.79-1.2,5.23,0.06,2.25-.13,4.9-0.16,6.91A4.17,4.17,0,0,0,11,279.35c-0.2-1.57.56-3,.86-4.43Z" transform="translate(3.21 -129.77)"/><path d="M200.37,405.21a60,60,0,0,0,.53-7c-0.35-2.68-.68-5.38-1-8.14,0.2-3.54,1.19-6.32,1.55-9.7,2.72-6.65,3.89-14.86,6-22.16a38.25,38.25,0,0,0,3-6.59c0.17-3.79,1.32-6.57,2.38-9.46,1.64,2.77,1.72,7.14,3,10.29,1,3.47,1.66,7.27,2.73,10.66,1.66,7.24,5.64,12.14,6.67,20a5.68,5.68,0,0,0,.11,1.55c0.06,6.81.07,14,.76,20.57h17.37c0-.55.09-1.09,0.09-1.65,0-2.15-.66-4.27-0.83-6.34-0.71-8.65-1.67-17.34-3.93-24.67,0.08-1-.19-1.72-0.12-2.76-1-7-3.33-12.7-4.76-19.29-1-7-3.24-12.78-4.76-19.28a13.38,13.38,0,0,0,.24-3.23c-0.34-1.58-1.29-2.54-1.91-3.84-1.49-5.89-4.14-10.6-4.88-17.25,1.07-3.4,1.38-7.56,3.57-9.82A6,6,0,0,1,228,300a12.39,12.39,0,0,0,7.26,4,11.63,11.63,0,0,0,3.21,2,7,7,0,0,0,4.16-1.2c0.64-.83,1.18-1.77,1.79-2.63-0.07-.87.25-1.35,0.24-2.16,1.78-3.71,2.07-8.61,2.85-13.29,0.38-2.23,1.25-4.37.95-6.72,0.75-1,.62-2.89,1-4.31-0.12-1.28.35-3.14-.6-3.59-0.7-.52-1.35.59-1.78,0.36-1.52-2.44-2.26-5.63-3.81-8-2.26-.18-4.21-1.48-6.43-1a5.14,5.14,0,0,0-.72,3.72,6.73,6.73,0,0,0,3.7,1.68,3.56,3.56,0,0,1-.83.84c-1-.1-0.78-1.53-2-1.44-2.39,1.2-.53,2.48.59,3.71A12.76,12.76,0,0,0,241,275c-1.54,4.24-2,9.58-4,13.3-1.85-3.64-2.85-8.15-6.54-9.94a20.87,20.87,0,0,0-11.43-1.2,3.52,3.52,0,0,1-.84-1.08c1.52-3.11,4-5.28,4.76-9.11,0.67,0.36-.21-0.38.47-0.48a8.53,8.53,0,0,0,.6-1.2c0-.55.12-1.1,0.19-1.64,0.56,0.66,1,1.37,1.65,2,1.93-.11,3.89-0.13,5-1.71,0.52-1.09,1.18-2.66.83-3.71-1.93-.83-4.2-1.47-5.9-2.43-1.41-2.53-2.41-5.3-5.91-6.65a4.75,4.75,0,0,0-1.93-.1,7.63,7.63,0,0,0-.73-0.25l-0.6,0c-3.15-.86-5,0.66-6.88,2.09-1.09,1.5-2.1,3.19-3.15,5a11.11,11.11,0,0,0-.38,3,2.34,2.34,0,0,1,.17.2,9.2,9.2,0,0,0-.59,2.9,11.28,11.28,0,0,1,.71,1.92c-1.11,2.11-2.3,5.1-1.43,8.14-0.31-1-1.93-.64-2.38-0.36a39.9,39.9,0,0,0-3.45-7.78c-0.65-3.63-2-6.54-2.39-10.43,2.09-4.52,2.55-10.69,5.24-14.61a12.93,12.93,0,0,1,2.62.36,17.82,17.82,0,0,1,5.11-3.47c0.76-1.12,2.37-2,2.39-3.47-0.08-.84-1.08-0.76-1.67-1.08a1.74,1.74,0,0,0,.24-1.68,1.86,1.86,0,0,0-1.79-.48c0.65-1.75-1.43-1.31-2.14-1.08a1,1,0,0,0-.47-1.55c-1.6.24-2.36,1.3-3.33,2.16a14.08,14.08,0,0,0-4.64,2.16,0.69,0.69,0,0,0-.83-0.36c-2,1.12-3.2,3-4.65,4.68-1.76,4.33-4.1,8.09-5.47,12.82a17.69,17.69,0,0,0-2.51,8.5c0.16,0.8.23,1.69,0.36,2.52-0.57,2.77-.92,6.57,0,9.22,0.31,5.06-.78,8.71-0.83,13.42,1.07,4.23,1.63,9,3,12.94,0.06,1.56.17,3.1,0.12,4.79a62.92,62.92,0,0,1,1.07,8.86c2.25,5.76,2.21,13.83,3.09,21-0.07,1.32-.34,2.44-0.35,3.82-0.2.7,0.78,0.66,0.48,1.08-3.35,10-5.09,21.64-7.26,32.82,0.17,5.11-.82,9.51.35,13.78,0.08,4.15-1,7.09-1.54,10.66-0.61,3.87-.25,7.7-0.15,11.95h17.11Z" transform="translate(3.21 -129.77)"/><path d="M70.3,405.21c0-.13,0-0.25,0-0.38-0.35-2.68-.68-5.38-1-8.14,0.2-3.54,1.19-6.32,1.55-9.7,2.72-6.65,3.89-14.86,6-22.16a38.26,38.26,0,0,0,3-6.59c0.17-3.79,1.33-6.57,2.38-9.46,1.64,2.77,1.72,7.14,3,10.29,1,3.47,1.66,7.27,2.73,10.66,1.66,7.24,5.64,12.14,6.67,20a5.68,5.68,0,0,0,.11,1.55c0,4.56.06,9.3,0.28,13.91h17.27c-0.07-.45-0.13-0.89-0.17-1.33-0.71-8.65-1.67-17.34-3.93-24.67,0.09-1-.19-1.72-0.12-2.76-1-7-3.33-12.7-4.76-19.29-1-7.05-3.24-12.78-4.76-19.28a13.25,13.25,0,0,0,.24-3.23c-0.34-1.58-1.29-2.54-1.9-3.84-1.49-5.89-4.14-10.6-4.88-17.25,1.07-3.4,1.38-7.56,3.57-9.82a6,6,0,0,1,1.91,2.88,12.38,12.38,0,0,0,7.26,4,11.63,11.63,0,0,0,3.21,2,7,7,0,0,0,4.16-1.2c0.64-.83,1.18-1.77,1.79-2.63-0.07-.87.25-1.35,0.24-2.16,1.78-3.71,2.07-8.61,2.85-13.29,0.38-2.23,1.25-4.37.95-6.72,0.75-1,.62-2.89,1-4.31-0.12-1.28.35-3.14-.59-3.59-0.7-.52-1.35.59-1.78,0.36-1.52-2.43-2.26-5.63-3.81-8-2.26-.17-4.21-1.48-6.43-1a5.15,5.15,0,0,0-.72,3.72,6.73,6.73,0,0,0,3.7,1.68,3.47,3.47,0,0,1-.83.84c-1-.1-0.78-1.53-2-1.44-2.39,1.2-.53,2.48.59,3.71a12.71,12.71,0,0,0,3.45,3.11c-1.54,4.24-2,9.58-4,13.3-1.85-3.64-2.85-8.15-6.54-9.94a20.86,20.86,0,0,0-11.42-1.2,3.46,3.46,0,0,1-.84-1.08c1.52-3.11,4-5.28,4.76-9.11,0.68,0.35-.21-0.38.47-0.48a8.21,8.21,0,0,0,.6-1.2c0.05-.55.12-1.1,0.19-1.64,0.56,0.66,1,1.37,1.65,2,1.92-.11,3.89-0.13,5-1.71,0.52-1.09,1.18-2.66.83-3.7-1.92-.83-4.2-1.47-5.9-2.43-1.41-2.53-2.4-5.3-5.9-6.64a4.76,4.76,0,0,0-1.93-.1c-0.24-.09-0.48-0.18-0.73-0.25l-0.6,0c-3.15-.87-5,0.66-6.88,2.09-1.09,1.5-2.1,3.18-3.15,5a11,11,0,0,0-.38,3l0.16,0.2a9.26,9.26,0,0,0-.59,2.9,11.39,11.39,0,0,1,.72,1.92c-1.12,2.12-2.3,5.1-1.43,8.14-0.3-1-1.93-.64-2.38-0.36a39.72,39.72,0,0,0-3.45-7.78c-0.65-3.63-2-6.54-2.39-10.43,2.09-4.52,2.55-10.69,5.24-14.61a12.86,12.86,0,0,1,2.62.36,17.9,17.9,0,0,1,5.11-3.47c0.76-1.12,2.37-2,2.39-3.47-0.08-.84-1.08-0.75-1.67-1.08a1.73,1.73,0,0,0,.24-1.68,1.87,1.87,0,0,0-1.79-.48c0.65-1.75-1.43-1.31-2.14-1.08a1,1,0,0,0-.47-1.56c-1.6.24-2.36,1.3-3.33,2.16a14.11,14.11,0,0,0-4.65,2.16,0.69,0.69,0,0,0-.83-0.36c-2,1.12-3.2,3-4.65,4.68-1.76,4.33-4.1,8.09-5.47,12.82a17.71,17.71,0,0,0-2.51,8.5c0.16,0.79.24,1.69,0.36,2.52-0.56,2.77-.92,6.57,0,9.22,0.31,5.06-.78,8.71-0.83,13.42,1.07,4.23,1.63,9,3,12.94,0.06,1.56.17,3.1,0.12,4.79a62.77,62.77,0,0,1,1.07,8.86c2.25,5.76,2.2,13.83,3.09,21-0.07,1.32-.34,2.44-0.35,3.82-0.19.7,0.78,0.66,0.48,1.08-3.35,10-5.09,21.64-7.26,32.82,0.18,5.11-.81,9.51.35,13.78,0.08,4.15-1,7.09-1.54,10.66a33.11,33.11,0,0,0-.34,5.29H70.3Z" transform="translate(3.21 -129.77)"/><path d="M276.15,324.68c0.07,1.56.17,3.1,0.12,4.79a62.48,62.48,0,0,1,1.07,8.86c2.25,5.76,2.21,13.83,3.09,21-0.07,1.32-.34,2.44-0.36,3.82-0.19.7,0.78,0.66,0.48,1.08-3.34,10-5.09,21.64-7.26,32.82,0.1,2.93-.17,5.63-0.21,8.2h18.3c1.92-6,3-12.72,4.77-18.85a38.13,38.13,0,0,0,3-6.59c0.17-3.79,1.33-6.57,2.38-9.46,1.64,2.77,1.72,7.14,3,10.29,1,3.47,1.66,7.27,2.73,10.66,1.19,5.2,3.57,9.19,5.21,13.94h16.2c-0.35-1.53-.73-3-1.17-4.48,0.08-1-.19-1.72-0.12-2.76-1-7-3.33-12.7-4.76-19.29-1-7-3.24-12.78-4.76-19.28a13.5,13.5,0,0,0,.24-3.23c-0.34-1.58-1.29-2.54-1.91-3.84-1.49-5.89-4.14-10.6-4.88-17.25,1.07-3.4,1.38-7.56,3.57-9.82a6,6,0,0,1,1.91,2.88,12.4,12.4,0,0,0,7.26,4,11.64,11.64,0,0,0,3.21,2,7,7,0,0,0,4.16-1.2c0.64-.83,1.18-1.77,1.79-2.63-0.07-.87.25-1.35,0.23-2.16,1.78-3.71,2.07-8.61,2.85-13.29,0.38-2.23,1.25-4.37,1-6.72,0.75-1,.62-2.89,1-4.31-0.12-1.28.35-3.14-.59-3.59-0.7-.52-1.35.59-1.78,0.36-1.51-2.44-2.26-5.63-3.81-8-2.26-.18-4.21-1.48-6.43-1a5.15,5.15,0,0,0-.72,3.72,6.73,6.73,0,0,0,3.7,1.68,3.59,3.59,0,0,1-.84.84c-1-.1-0.78-1.53-2-1.44-2.39,1.2-.53,2.48.6,3.71a12.7,12.7,0,0,0,3.45,3.11c-1.54,4.24-2,9.58-4,13.3-1.85-3.64-2.85-8.15-6.54-9.94a20.86,20.86,0,0,0-11.42-1.2,3.46,3.46,0,0,1-.84-1.08c1.52-3.11,4-5.28,4.76-9.11,0.67,0.35-.21-0.38.47-0.48a8.42,8.42,0,0,0,.6-1.2c0-.55.12-1.1,0.19-1.64,0.56,0.66,1,1.37,1.65,2,1.92-.11,3.89-0.13,5-1.71,0.52-1.09,1.18-2.66.83-3.71-1.93-.83-4.2-1.47-5.9-2.43-1.41-2.53-2.41-5.3-5.91-6.65a4.75,4.75,0,0,0-1.93-.1c-0.24-.1-0.48-0.18-0.73-0.25l-0.6,0c-3.15-.86-5,0.66-6.88,2.09-1.08,1.51-2.1,3.19-3.15,5a11,11,0,0,0-.38,3,2.13,2.13,0,0,1,.16.2,9.24,9.24,0,0,0-.59,2.9,11.41,11.41,0,0,1,.72,1.92c-1.11,2.11-2.3,5.1-1.43,8.14-0.31-1-1.93-.64-2.38-0.36a39.82,39.82,0,0,0-3.45-7.78c-0.65-3.62-2-6.54-2.39-10.43,2.1-4.52,2.55-10.69,5.24-14.61a12.89,12.89,0,0,1,2.62.36,17.83,17.83,0,0,1,5.11-3.47c0.76-1.12,2.37-2,2.39-3.47-0.09-.84-1.08-0.76-1.67-1.08a1.74,1.74,0,0,0,.24-1.68,1.87,1.87,0,0,0-1.79-.48c0.65-1.75-1.43-1.31-2.14-1.08a1,1,0,0,0-.47-1.56c-1.6.24-2.36,1.3-3.33,2.16A14.07,14.07,0,0,0,287.1,261a0.69,0.69,0,0,0-.83-0.36c-2,1.12-3.2,3-4.65,4.68-1.76,4.33-4.1,8.09-5.47,12.82a17.7,17.7,0,0,0-2.5,8.5c0.16,0.8.24,1.69,0.36,2.52-0.56,2.77-.92,6.57,0,9.22,0.31,5.06-.78,8.71-0.83,13.42C274.24,316,274.8,320.72,276.15,324.68Z" transform="translate(3.21 -129.77)"/><path d="M480.38,352.78c0.07,1.56.17,3.1,0.12,4.79a62.91,62.91,0,0,1,1.07,8.86c2.25,5.76,2.2,13.83,3.09,21-0.07,1.32-.34,2.44-0.36,3.82-0.19.7,0.78,0.66,0.48,1.08a123.21,123.21,0,0,0-3.43,12.92h22.28a38.41,38.41,0,0,1,2.09-6.8c1.09,1.84,1.49,4.38,2,6.8h18.8c-1.06-6.34-3.1-11.7-4.51-17.71a13.15,13.15,0,0,0,.24-3.23c-0.34-1.58-1.29-2.54-1.9-3.84-1.49-5.89-4.14-10.6-4.88-17.25,1.07-3.4,1.38-7.56,3.57-9.82a6,6,0,0,1,1.91,2.88,12.38,12.38,0,0,0,7.26,4,11.61,11.61,0,0,0,3.21,2,7,7,0,0,0,4.16-1.2c0.64-.83,1.18-1.77,1.79-2.63-0.07-.87.25-1.35,0.24-2.16,1.78-3.71,2.07-8.61,2.85-13.29,0.38-2.23,1.25-4.37,1-6.72,0.75-1,.62-2.89,1-4.31-0.12-1.28.35-3.14-.59-3.59-0.7-.52-1.35.59-1.78,0.36-1.52-2.44-2.26-5.63-3.81-8-2.26-.18-4.22-1.48-6.43-1a5.13,5.13,0,0,0-.72,3.72,6.7,6.7,0,0,0,3.7,1.68,3.57,3.57,0,0,1-.83.84c-1-.1-0.78-1.53-2-1.44-2.39,1.2-.53,2.48.59,3.71a12.71,12.71,0,0,0,3.45,3.11c-1.54,4.24-2,9.58-4,13.3-1.85-3.64-2.85-8.15-6.54-9.94a20.88,20.88,0,0,0-11.43-1.19,3.51,3.51,0,0,1-.83-1.08c1.52-3.1,4-5.28,4.76-9.11,0.67,0.36-.21-0.38.47-0.48a8.27,8.27,0,0,0,.6-1.2c0-.55.12-1.1,0.19-1.64,0.56,0.66,1,1.37,1.65,2,1.92-.11,3.89-0.13,5-1.71,0.52-1.09,1.18-2.66.83-3.71-1.92-.83-4.2-1.47-5.9-2.43-1.41-2.53-2.41-5.3-5.91-6.65a4.77,4.77,0,0,0-1.93-.1,7.53,7.53,0,0,0-.73-0.25l-0.61,0c-3.15-.86-5,0.66-6.87,2.09-1.09,1.51-2.1,3.19-3.15,5a11.06,11.06,0,0,0-.38,3,2.35,2.35,0,0,1,.17.2,9.25,9.25,0,0,0-.59,2.9,11.24,11.24,0,0,1,.72,1.92c-1.11,2.11-2.3,5.1-1.43,8.14-0.3-1-1.93-.63-2.38-0.36a39.76,39.76,0,0,0-3.45-7.78c-0.65-3.63-2-6.54-2.39-10.43,2.1-4.52,2.55-10.69,5.24-14.61a12.76,12.76,0,0,1,2.62.36,17.84,17.84,0,0,1,5.11-3.47c0.75-1.12,2.37-2,2.38-3.47-0.08-.84-1.08-0.75-1.67-1.08a1.73,1.73,0,0,0,.24-1.68,1.86,1.86,0,0,0-1.79-.48c0.65-1.75-1.43-1.31-2.14-1.08a1,1,0,0,0-.47-1.56c-1.6.24-2.36,1.3-3.33,2.16a14.05,14.05,0,0,0-4.64,2.16,0.69,0.69,0,0,0-.83-0.36c-2,1.12-3.2,3-4.65,4.68-1.76,4.33-4.1,8.09-5.47,12.82a17.67,17.67,0,0,0-2.5,8.5c0.16,0.79.24,1.69,0.36,2.52-0.57,2.77-.93,6.57,0,9.22,0.31,5.06-.78,8.71-0.83,13.42C478.46,344.07,479,348.82,480.38,352.78Z" transform="translate(3.21 -129.77)"/><path d="M509.38,338.61c0.07,1.56.17,3.1,0.12,4.79a62.52,62.52,0,0,1,1.07,8.86c2.25,5.76,2.21,13.83,3.09,21-0.07,1.32-.34,2.44-0.35,3.82-0.19.7,0.78,0.66,0.48,1.08-2.78,8.31-4.45,17.73-6.18,27.09h20.52c0.39-1.66.8-3.32,1.25-4.92a38.27,38.27,0,0,0,3-6.59c0.17-3.79,1.32-6.57,2.38-9.46,1.64,2.77,1.72,7.14,3,10.29,1,3.47,1.66,7.27,2.73,10.66h18.71c-1.09-4.23-2.41-8.22-3.36-12.59-1-7.05-3.25-12.78-4.76-19.28a13.4,13.4,0,0,0,.24-3.23c-0.34-1.58-1.29-2.54-1.91-3.84-1.49-5.89-4.14-10.6-4.88-17.25,1.07-3.4,1.38-7.56,3.57-9.82a6,6,0,0,1,1.91,2.88,12.38,12.38,0,0,0,7.26,4,11.59,11.59,0,0,0,3.21,2,7,7,0,0,0,4.16-1.2c0.64-.83,1.18-1.77,1.79-2.63-0.07-.87.25-1.35,0.23-2.16,1.78-3.71,2.07-8.61,2.85-13.29,0.38-2.23,1.25-4.37.95-6.72,0.75-1,.62-2.89,1-4.31-0.12-1.28.35-3.14-.59-3.59-0.7-.52-1.35.59-1.78,0.36-1.51-2.44-2.26-5.63-3.81-8-2.26-.17-4.22-1.48-6.43-1a5.13,5.13,0,0,0-.72,3.72,6.73,6.73,0,0,0,3.7,1.68,3.56,3.56,0,0,1-.83.84c-1-.1-0.78-1.53-2-1.44-2.39,1.2-.53,2.48.6,3.71a12.71,12.71,0,0,0,3.45,3.11c-1.54,4.24-2,9.58-4,13.3-1.85-3.64-2.85-8.15-6.54-9.94a20.88,20.88,0,0,0-11.43-1.2,3.52,3.52,0,0,1-.84-1.08c1.53-3.1,4-5.28,4.76-9.11,0.67,0.35-.21-0.38.47-0.48a8.45,8.45,0,0,0,.6-1.2c0-.55.12-1.1,0.19-1.64,0.56,0.66,1,1.37,1.65,2,1.92-.11,3.89-0.13,5-1.7,0.52-1.09,1.18-2.66.83-3.71-1.92-.83-4.2-1.47-5.89-2.43-1.41-2.53-2.41-5.3-5.91-6.65a4.77,4.77,0,0,0-1.93-.1c-0.23-.09-0.48-0.18-0.73-0.25l-0.6,0c-3.15-.86-5,0.66-6.88,2.09-1.08,1.5-2.1,3.18-3.15,5a11,11,0,0,0-.38,3,2.06,2.06,0,0,1,.17.2,9.22,9.22,0,0,0-.59,2.9,11.46,11.46,0,0,1,.72,1.92c-1.11,2.11-2.3,5.1-1.43,8.14-0.31-1-1.93-.64-2.38-0.36a39.5,39.5,0,0,0-3.45-7.78c-0.64-3.63-2-6.54-2.39-10.43,2.1-4.52,2.55-10.69,5.24-14.61a12.94,12.94,0,0,1,2.62.36,17.91,17.91,0,0,1,5.11-3.47c0.75-1.12,2.37-2,2.39-3.47-0.08-.84-1.08-0.76-1.67-1.08a1.74,1.74,0,0,0,.24-1.68,1.86,1.86,0,0,0-1.79-.48c0.65-1.75-1.43-1.31-2.14-1.08a1,1,0,0,0-.47-1.56c-1.6.24-2.36,1.3-3.33,2.16a14.07,14.07,0,0,0-4.64,2.16,0.69,0.69,0,0,0-.83-0.36c-2,1.12-3.2,3-4.65,4.68-1.76,4.33-4.1,8.09-5.47,12.82a17.66,17.66,0,0,0-2.51,8.5c0.16,0.79.24,1.69,0.36,2.52-0.57,2.77-.93,6.57,0,9.22,0.31,5.06-.78,8.71-0.83,13.42C507.47,329.9,508,334.65,509.38,338.61Z" transform="translate(3.21 -129.77)"/><path d="M349.7,326c0.07,1.56.17,3.1,0.12,4.79a62.94,62.94,0,0,1,1.07,8.86c2.25,5.76,2.21,13.83,3.09,21-0.07,1.32-.34,2.44-0.35,3.82-0.19.7,0.78,0.66,0.48,1.08-3.34,10-5.09,21.64-7.26,32.82,0.08,2.43-.09,4.69-0.18,6.85h18.68c1.67-5.61,2.74-11.83,4.35-17.5a38.25,38.25,0,0,0,3-6.59c0.17-3.79,1.32-6.57,2.38-9.46,1.64,2.77,1.72,7.14,3,10.29,1,3.47,1.66,7.27,2.73,10.66,1.08,4.7,3.13,8.42,4.72,12.6h16.37c-0.27-1.07-.55-2.12-0.86-3.13,0.08-1-.19-1.72-0.12-2.76-1-7-3.33-12.7-4.76-19.29-1-7-3.24-12.78-4.76-19.28a13.4,13.4,0,0,0,.24-3.23c-0.34-1.58-1.29-2.54-1.91-3.84-1.49-5.89-4.14-10.6-4.88-17.25,1.07-3.4,1.38-7.56,3.57-9.82a6,6,0,0,1,1.91,2.88,12.38,12.38,0,0,0,7.26,4,11.57,11.57,0,0,0,3.21,2,7,7,0,0,0,4.16-1.2c0.64-.83,1.18-1.77,1.79-2.63-0.08-.87.25-1.35,0.24-2.16,1.77-3.71,2.07-8.61,2.85-13.29,0.38-2.23,1.25-4.37.95-6.72,0.75-1,.62-2.89,1-4.31-0.12-1.28.35-3.14-.59-3.59-0.7-.52-1.35.59-1.78,0.36-1.52-2.44-2.26-5.63-3.81-8-2.26-.18-4.22-1.48-6.43-1a5.14,5.14,0,0,0-.72,3.72,6.72,6.72,0,0,0,3.7,1.68,3.6,3.6,0,0,1-.83.84c-1.05-.1-0.78-1.53-2-1.44-2.39,1.2-.53,2.48.6,3.71a12.68,12.68,0,0,0,3.45,3.11c-1.54,4.24-2,9.59-4,13.3-1.85-3.64-2.85-8.15-6.54-9.94a20.88,20.88,0,0,0-11.43-1.2,3.5,3.5,0,0,1-.84-1.08c1.52-3.1,4-5.28,4.76-9.11,0.67,0.36-.21-0.38.47-0.48a8.61,8.61,0,0,0,.6-1.2c0-.55.12-1.1,0.19-1.64,0.56,0.66,1,1.37,1.65,2,1.92-.11,3.89-0.12,5-1.71,0.52-1.09,1.18-2.66.83-3.71-1.93-.83-4.2-1.47-5.9-2.43-1.41-2.53-2.41-5.3-5.91-6.65a4.74,4.74,0,0,0-1.93-.1,7.55,7.55,0,0,0-.73-0.25l-0.6,0c-3.15-.86-5,0.66-6.88,2.09-1.09,1.5-2.1,3.19-3.15,5a11.1,11.1,0,0,0-.38,3l0.17,0.2a9.17,9.17,0,0,0-.59,2.9,11.27,11.27,0,0,1,.72,1.92c-1.11,2.11-2.3,5.1-1.43,8.14-0.31-1-1.93-.64-2.38-0.36a39.81,39.81,0,0,0-3.45-7.78c-0.64-3.63-2-6.54-2.39-10.43,2.1-4.52,2.55-10.69,5.24-14.61a12.75,12.75,0,0,1,2.62.36,17.89,17.89,0,0,1,5.11-3.47c0.76-1.12,2.37-2,2.39-3.47-0.09-.84-1.08-0.76-1.67-1.08a1.74,1.74,0,0,0,.24-1.68,1.86,1.86,0,0,0-1.79-.48c0.65-1.75-1.43-1.31-2.14-1.08a1,1,0,0,0-.47-1.56c-1.6.24-2.36,1.3-3.33,2.16a14.06,14.06,0,0,0-4.64,2.16,0.69,0.69,0,0,0-.83-0.36c-2,1.12-3.21,3-4.65,4.68-1.76,4.33-4.1,8.09-5.47,12.82a17.66,17.66,0,0,0-2.5,8.5c0.16,0.8.24,1.69,0.36,2.52-0.56,2.77-.92,6.57,0,9.22,0.31,5.06-.78,8.71-0.83,13.42C347.78,317.32,348.34,322.07,349.7,326Z" transform="translate(3.21 -129.77)"/><path d="M538.85,392.73a2.22,2.22,0,0,1-1.76.66,2.51,2.51,0,0,1-1.83-.66V134.44h3.59V392.73h0Z" transform="translate(3.21 -129.77)"/><path d="M538.86,192.37V135.26s18,7.14,21,18.94,6.61,13.2,17,17.86a118.4,118.4,0,0,1,18.55,10.6l-7.52,52.48s-12.73-11.48-20.1-17.25S555,213,552,206.09,544.31,194.29,538.86,192.37Z" transform="translate(3.21 -129.77)"/><rect x="538.36" y="5.52" width="3.71" height="57.04"/><ellipse cx="540.26" cy="2.69" rx="2.67" ry="2.69"/><path d="M175.3,355.55a1.69,1.69,0,0,0,1.34.5,1.91,1.91,0,0,0,1.4-.5v-197H175.3v197h0Z" transform="translate(3.21 -129.77)"/><path d="M175.3,202.74V159.18s-13.73,5.44-16,14.45-0.62,19.68-8.53,23.24-7.91,9.63-7.91,9.63l5,28.48s-0.2-8.38,5.41-12.78,9.77-3.77,12.06-9S171.13,204.2,175.3,202.74Z" transform="translate(3.21 -129.77)"/><rect x="178.5" y="29.44" width="2.82" height="43.5"/><ellipse cx="179.88" cy="27.28" rx="2.04" ry="2.05"/><path d="M12.08,179.65c17.5-6.65,35.09,18.28,52.59,11.63q0.32-19.52.63-39c-7.21,6.15-17.21,8.8-24.5,9.79C26.26,164,16.06,171.07,12.08,179.65Z" transform="translate(3.21 -129.77)"/><path d="M64.65,329.06a1.81,1.81,0,0,0,1.35.45,2,2,0,0,0,1.41-.45V151.56H64.65V329.06Z" transform="translate(3.21 -129.77)"/><rect x="67.71" y="22.38" width="2.99" height="39.2"/><ellipse cx="69.24" cy="20.43" rx="2.06" ry="1.85"/><path d="M453.49,211.71c-15.18-5.77-30.45,15.86-45.63,10.1q-0.28-16.94-.55-33.88c6.25,5.33,14.93,7.63,21.26,8.49C441.18,198.13,450,204.26,453.49,211.71Z" transform="translate(3.21 -129.77)"/><path d="M407.87,341.36a1.57,1.57,0,0,1-1.17.39,1.78,1.78,0,0,1-1.22-.39v-154h2.4v154Z" transform="translate(3.21 -129.77)"/><rect x="408.61" y="58.08" width="2.6" height="34.01"/><ellipse cx="409.88" cy="56.39" rx="1.79" ry="1.6"/></svg>