<?xml version="1.0" ?>
<!DOCTYPE svg
  PUBLIC '-//W3C//DTD SVG 1.1//EN'
  'http://www.w3.org/Graphics/SVG/1.1/DTD/svg11.dtd'>
<svg enable_background="new 0 0 1000 414" height="414px" pretty_print="True" style="stroke-linejoin: round; stroke:#000; fill: none;" version="1.1" viewBox="0 0 1000 414" width="1000px" xmlns="http://www.w3.org/2000/svg" xmlns:xlink="http://www.w3.org/1999/xlink">
utf-8<defs>
utf-8utf-8<style type="text/css">
<![CDATA[path { fill-rule: evenodd; }]]>utf-8utf-8</style>
utf-8</defs>
utf-8<metadata>
utf-8utf-8<views>
utf-8utf-8utf-8<view h="414.623771329" padding="0" w="1000">
utf-8utf-8utf-8utf-8<proj flip="auto" id="robinson" lon0="97.1487407427"/>
utf-8utf-8utf-8utf-8<bbox h="282.26" w="682.41" x="1404.9" y="-99.1"/>
utf-8utf-8utf-8</view>
utf-8utf-8</views>
utf-8</metadata>
utf-8<g class="" id="provinces">
utf-8utf-8<path d="M50.4,93.6L48.8,93.7L49.8,95.5L50.4,93.6Z M51.4,90.7L49.4,90.6L53.3,93.3L54.4,92.2L52.9,90.2L51.4,90.7Z M23.2,73.6L20.6,72.7L20.4,74.9L19.0,75.3L20.8,79.8L26.8,81.6L32.6,86.2L34.8,87.3L35.9,86.6L33.2,83.1L28.4,79.2L27.2,77.3L23.2,73.6Z M71.1,91.2L70.1,79.3L68.6,75.2L66.7,73.6L66.0,69.6L67.0,68.5L66.1,66.4L67.5,64.0L66.0,59.3L63.0,53.6L67.3,47.7L68.7,40.7L73.1,39.8L73.1,39.6L73.1,36.4L71.5,34.6L66.9,33.4L67.1,31.5L64.7,25.0L59.2,20.5L55.4,16.1L49.7,18.7L44.1,15.6L35.4,17.2L24.2,14.6L21.4,12.1L19.3,9.4L14.3,6.9L12.3,7.4L10.0,6.4L5.4,8.9L6.8,12.2L5.7,15.1L8.0,18.1L11.1,26.5L13.4,29.7L18.6,34.9L24.3,41.3L28.8,44.5L33.7,51.1L36.6,53.0L41.3,53.1L43.8,55.0L46.7,58.5L50.1,64.8L52.7,67.0L53.1,69.0L55.9,73.1L59.8,74.6L61.3,82.9L61.3,85.8L63.3,89.0L64.9,89.5L67.9,89.2L70.8,91.0L71.1,91.2Z M4.9,6.9L4.1,6.0L3.5,7.3L4.9,6.9Z M2.7,4.1L2.1,5.5L3.0,5.6L2.7,4.1Z M5.4,0.0L7.1,2.8L8.2,3.2L5.4,0.0Z " data-id="ID.AC" data-name="Aceh" id="ID.AC"/>
utf-8utf-8<path d="M490.7,63.8L489.4,62.9L488.4,63.4L490.7,63.8Z M493.6,65.1L493.9,61.2L491.6,63.7L493.6,65.1Z M490.0,59.0L487.5,57.5L484.5,56.8L484.6,58.9L489.9,60.2L490.0,59.0Z M495.3,49.9L494.8,50.3L496.3,51.6L495.3,49.9Z M493.8,47.1L494.6,46.2L493.0,43.4L491.4,45.3L493.8,47.1Z M493.6,42.8L498.0,45.9L498.7,45.4L493.6,42.8Z M420.1,109.6L420.2,114.5L416.2,118.4L413.0,120.7L414.6,123.0L413.9,127.3L411.3,130.4L411.1,131.2L411.7,130.9L416.7,129.0L420.5,129.2L424.1,130.4L430.3,129.6L437.4,127.4L438.2,128.0L436.6,137.2L437.2,140.8L436.9,147.0L437.4,149.3L439.8,147.4L445.1,144.5L443.6,150.3L443.5,152.1L444.7,157.4L446.1,160.9L447.6,166.9L452.5,170.7L454.9,171.5L454.7,176.6L452.3,179.9L452.0,179.8L451.4,179.9L449.6,182.1L453.2,188.6L453.2,191.6L454.7,196.1L454.5,198.4L455.3,201.9L456.4,202.2L458.9,200.9L466.9,201.6L470.8,202.8L470.8,202.8L471.6,198.6L469.8,198.0L467.0,198.6L466.6,197.3L467.8,195.8L468.5,191.1L463.6,188.7L465.9,186.6L470.1,184.9L472.2,179.7L475.5,178.3L474.7,171.1L477.0,175.9L482.2,172.4L486.9,164.7L488.2,167.0L494.2,164.1L494.4,163.4L492.7,159.6L493.3,159.6L493.8,155.2L490.5,157.7L491.1,155.0L490.9,152.4L492.4,145.7L492.0,141.2L493.3,135.3L494.3,132.6L499.3,124.7L503.3,124.8L500.7,117.3L503.1,120.7L505.3,123.0L509.7,124.0L510.4,125.0L520.1,125.0L523.2,122.5L523.8,119.0L521.0,118.9L518.7,114.7L514.9,111.4L512.2,110.7L512.0,109.7L500.9,100.5L499.2,96.1L497.7,95.3L499.8,94.6L500.0,93.2L503.9,89.0L501.2,84.4L497.7,81.0L493.3,75.3L495.6,73.7L491.4,73.1L494.4,72.2L493.1,70.3L485.2,64.8L488.8,62.2L488.8,60.9L484.6,59.4L483.3,56.2L490.3,55.4L488.9,51.9L493.0,55.9L495.1,55.7L496.7,54.1L494.0,52.2L495.6,51.7L492.3,49.3L493.6,48.7L487.2,43.8L487.8,42.3L482.9,38.2L474.0,38.7L471.9,37.8L470.4,38.6L468.0,37.1L465.1,39.6L461.2,38.1L459.1,38.1L456.7,40.0L456.2,38.9L453.4,37.2L449.1,42.7L448.7,45.8L447.0,48.8L448.2,51.1L447.6,56.5L448.3,59.3L447.5,61.4L447.3,67.5L445.0,70.9L443.7,71.6L441.5,70.3L438.7,77.2L437.7,78.4L438.1,81.3L440.1,81.4L440.8,83.8L439.0,84.4L436.2,87.1L435.1,87.2L434.4,89.1L431.7,90.7L432.2,95.0L433.6,95.2L433.4,98.2L430.6,99.3L429.6,104.6L426.5,109.7L423.3,108.1L420.1,109.6Z " data-id="ID.KI" data-name="Kalimantan Timur" id="ID.KI"/>
utf-8utf-8<path d="M299.8,311.8L297.7,311.8L293.7,310.6L292.6,303.9L290.9,302.8L289.2,300.3L289.1,298.0L285.6,297.5L284.3,299.9L283.2,300.0L279.1,297.6L275.2,297.7L270.0,295.5L266.1,290.8L263.7,291.5L261.8,290.0L259.8,293.9L259.6,293.9L259.0,298.8L258.5,300.4L254.8,299.6L254.5,299.3L254.4,300.6L253.9,301.4L247.3,300.5L246.5,304.8L246.7,309.0L245.8,316.3L246.3,315.6L248.7,316.1L248.7,317.8L245.0,322.5L245.4,325.7L247.8,326.5L260.3,327.7L270.6,330.5L275.6,333.6L278.2,334.6L288.9,336.5L290.2,334.1L296.3,333.0L296.6,332.8L295.3,331.3L295.0,326.2L291.7,323.3L292.7,320.2L295.6,319.7L297.2,318.0L297.3,316.5L299.9,311.9L299.8,311.8Z " data-id="ID.JR" data-name="Jawa Barat" id="ID.JR"/>
utf-8utf-8<path d="M299.9,334.1L296.7,333.3L297.7,334.4L301.7,335.6L299.9,334.1Z M299.9,311.9L297.3,316.5L297.2,318.0L295.6,319.7L292.7,320.2L291.7,323.3L295.0,326.2L295.3,331.3L296.6,332.8L296.8,332.6L301.1,334.4L301.9,333.7L308.8,334.0L320.2,337.0L322.9,338.2L323.1,338.3L325.9,332.8L328.0,334.0L332.1,330.2L332.7,334.1L338.9,337.1L339.1,344.2L339.9,345.9L340.0,345.9L341.7,346.4L342.0,346.5L343.0,343.4L346.8,340.4L349.7,339.5L350.5,337.0L349.7,334.4L348.1,333.8L349.1,323.0L349.5,322.6L354.2,324.1L357.6,320.5L358.1,315.5L360.0,309.9L360.0,309.9L356.8,307.6L355.1,308.8L348.5,308.8L347.0,303.2L344.3,301.9L338.7,304.2L338.9,304.7L336.1,312.5L334.1,314.9L331.8,315.9L327.9,313.8L327.8,313.0L321.4,314.5L317.8,313.1L313.6,312.4L312.8,311.6L311.5,313.0L309.7,313.4L304.1,312.3L302.6,311.3L299.9,311.9L299.9,311.9Z M334.7,288.9L334.1,288.1L334.3,288.9L334.7,288.9Z " data-id="ID.JT" data-name="Jawa Tengah" id="ID.JT"/>
utf-8utf-8<path d="M160.8,278.9L161.4,277.3L158.6,275.1L156.5,274.3L155.4,276.0L158.6,279.7L160.8,278.9Z M141.0,201.2L140.3,201.4L139.4,202.1L134.2,205.7L135.8,208.3L140.0,211.2L142.4,216.6L145.4,222.4L146.9,224.6L159.6,235.0L160.4,242.1L169.0,249.6L172.6,253.2L173.5,255.0L176.2,256.2L181.5,260.9L184.0,264.3L187.6,265.2L187.9,265.4L188.6,265.1L189.5,264.4L190.7,263.5L191.4,262.7L191.3,262.2L187.9,252.3L183.8,251.1L179.7,249.4L178.8,244.9L178.0,243.4L175.3,243.8L171.4,242.5L167.9,238.4L169.4,237.8L175.9,232.7L176.3,228.6L172.0,226.7L168.3,227.6L166.0,225.9L164.2,220.6L160.1,219.9L160.0,217.8L157.0,213.8L156.5,213.1L156.3,212.9L153.4,212.2L149.5,209.5L146.3,205.5L144.8,201.2L142.9,199.8L141.0,201.2Z " data-id="ID.BE" data-name="Bengkulu" id="ID.BE"/>
utf-8utf-8<path d="M221.8,304.9L219.0,306.4L218.8,307.3L221.5,307.4L221.8,304.9Z M245.8,316.3L246.7,309.0L246.5,304.8L247.3,300.5L253.9,301.4L254.4,300.6L254.5,299.3L254.3,299.3L253.3,297.1L253.0,294.5L254.1,293.4L254.1,293.1L252.7,292.2L246.2,291.8L244.9,290.6L240.8,291.3L240.8,289.8L238.4,289.9L237.9,291.6L234.5,297.6L234.0,301.8L233.0,304.5L230.8,303.6L229.5,305.0L226.3,311.8L223.4,308.4L220.5,310.7L222.1,312.4L227.2,313.3L228.6,312.8L235.1,312.6L235.2,312.3L243.3,316.1L245.8,316.3L245.8,316.3Z " data-id="ID.BT" data-name="Banten" id="ID.BT"/>
utf-8utf-8<path d="M259.6,293.9L256.4,294.5L255.4,294.5L254.1,293.6L254.1,293.4L253.0,294.5L253.3,297.1L254.3,299.3L254.5,299.3L254.8,299.6L258.5,300.4L259.0,298.8L259.6,293.9L259.6,293.9Z " data-id="ID.JK" data-name="Jakarta Raya" id="ID.JK"/>
utf-8utf-8<path d="M306.6,183.4L305.2,182.5L303.2,183.2L304.2,185.7L306.6,183.4Z M320.7,168.8L317.4,169.5L316.5,175.6L320.5,175.0L322.6,174.1L324.0,170.2L323.2,169.1L320.7,168.8Z M348.9,215.6L350.8,213.3L352.9,211.9L353.1,203.8L350.6,197.0L351.3,188.0L348.9,184.9L351.8,182.1L353.0,182.5L362.6,174.4L363.8,171.3L367.1,168.1L375.2,162.9L377.8,162.9L389.0,160.5L397.8,156.4L399.4,158.4L400.4,156.9L399.7,153.7L404.7,146.0L403.7,142.1L401.4,138.9L404.0,138.1L406.4,138.2L410.6,131.6L411.1,131.2L411.3,130.4L413.9,127.3L414.6,123.0L413.0,120.7L416.2,118.4L420.2,114.5L420.1,109.6L420.1,109.6L413.7,109.5L411.5,112.0L408.2,114.6L395.9,109.8L393.0,106.3L389.7,107.0L382.5,106.4L376.2,109.4L374.6,116.6L370.5,117.6L368.7,120.2L364.3,119.6L361.8,121.4L361.3,120.0L355.1,118.5L347.7,120.4L344.9,122.9L341.3,124.0L338.4,122.6L336.8,120.7L334.9,120.5L332.5,115.9L331.2,115.7L328.1,112.5L327.6,111.1L325.3,110.1L322.0,106.3L321.3,101.7L318.8,97.9L314.9,97.1L313.4,101.3L314.7,100.3L309.4,106.6L307.2,115.1L310.9,113.9L305.9,116.9L307.2,121.4L304.5,124.5L306.5,134.0L306.2,137.2L309.9,138.9L314.2,144.6L311.1,144.4L312.6,150.7L311.5,150.1L309.9,151.3L309.9,153.9L313.7,159.2L316.8,159.9L318.4,162.4L313.3,161.2L313.5,165.8L319.0,166.0L327.8,172.1L327.6,174.9L330.1,176.9L330.5,180.0L329.7,185.2L329.0,186.8L327.0,188.5L327.8,190.8L330.4,192.0L330.7,199.7L331.9,203.1L334.1,207.5L332.0,209.4L333.5,213.9L332.6,215.9L334.6,218.4L339.1,215.3L341.5,216.2L342.3,220.4L344.9,217.4L348.8,215.4L348.9,215.6Z " data-id="ID.KB" data-name="Kalimantan Barat" id="ID.KB"/>
utf-8utf-8<path d="M213.7,287.3L212.3,285.6L212.1,285.9L213.7,287.3Z M191.4,262.7L190.7,263.5L189.5,264.4L188.6,265.1L187.9,265.4L188.1,265.5L189.7,266.3L190.4,267.9L195.8,273.5L195.7,274.7L198.9,279.1L201.3,280.7L202.0,283.2L205.2,285.9L207.4,290.2L210.4,290.2L210.5,279.9L218.7,285.7L221.4,286.4L221.2,281.7L222.3,281.6L223.5,278.3L227.6,283.6L232.5,288.2L232.5,289.2L235.3,282.0L235.1,280.4L237.7,265.2L237.0,262.1L237.6,253.3L236.7,246.8L236.7,246.8L231.9,244.3L231.8,242.2L225.9,236.9L224.3,240.7L222.4,241.3L220.7,244.8L218.2,247.5L215.3,248.3L203.6,253.7L202.5,259.3L203.4,264.3L198.1,266.1L192.6,263.4L191.4,262.7Z " data-id="ID.LA" data-name="Lampung" id="ID.LA"/>
utf-8utf-8<path d="M156.5,213.1L157.0,213.8L160.0,217.8L160.1,219.9L164.2,220.6L166.0,225.9L168.3,227.6L172.0,226.7L176.3,228.6L175.9,232.7L169.4,237.8L167.9,238.4L171.4,242.5L175.3,243.8L178.0,243.4L178.8,244.9L179.7,249.4L183.8,251.1L187.9,252.3L191.3,262.2L191.4,262.7L192.6,263.4L198.1,266.1L203.4,264.3L202.5,259.3L203.6,253.7L215.3,248.3L218.2,247.5L220.7,244.8L222.4,241.3L224.3,240.7L225.9,236.9L231.8,242.2L231.9,244.3L236.7,246.8L236.8,246.4L237.8,243.0L239.3,240.7L239.3,238.1L237.6,236.6L238.5,229.5L241.2,225.8L242.5,221.6L242.1,218.0L238.9,217.2L237.1,215.0L237.3,211.7L234.3,209.8L233.4,208.0L226.1,202.4L221.3,202.9L218.2,201.1L215.6,203.6L210.8,210.0L214.0,207.6L214.4,202.3L216.7,199.9L217.9,197.0L216.5,194.1L211.2,190.4L209.4,191.0L210.6,187.5L210.5,187.4L207.2,186.9L206.5,188.5L204.1,189.7L196.5,188.9L188.8,193.1L189.1,198.9L186.9,199.9L186.7,203.8L181.8,198.5L180.7,200.6L181.3,203.0L178.0,203.0L174.0,205.2L172.4,207.8L164.8,211.8L160.8,209.6L160.2,210.7L157.4,212.1L156.5,213.1Z " data-id="ID.SL" data-name="Sumatera Selatan" id="ID.SL"/>
utf-8utf-8<path d="M260.2,219.1L261.3,217.2L258.7,215.9L257.1,217.6L260.2,219.1Z M265.2,216.0L264.2,214.5L263.9,215.7L265.2,216.0Z M273.9,215.4L270.6,215.6L272.0,217.1L273.9,215.4Z M281.8,207.4L278.9,207.5L277.2,210.7L276.3,215.3L275.0,216.4L276.9,221.6L276.1,222.7L277.8,223.3L281.2,222.0L281.9,219.7L283.9,222.1L284.2,224.3L286.2,224.0L286.6,222.4L289.2,221.7L291.2,214.7L290.7,212.5L289.0,210.4L281.8,207.4Z M239.7,181.4L236.3,182.9L236.9,186.6L238.2,188.8L235.7,188.1L234.8,186.7L235.7,185.8L234.0,182.6L230.7,183.2L227.9,186.5L229.2,187.5L227.0,190.8L224.5,191.9L223.7,195.9L227.1,197.2L232.7,195.5L233.6,196.7L236.6,197.2L237.6,198.1L238.2,203.6L240.6,206.1L239.6,209.3L241.7,214.3L248.1,216.3L250.5,217.6L252.4,219.6L257.5,220.4L257.1,218.4L254.6,216.2L256.3,211.1L259.1,208.3L256.6,207.0L250.4,205.7L246.4,198.3L246.0,190.9L243.1,186.0L242.0,182.6L239.7,181.4Z " data-id="ID.BB" data-name="Bangka-Belitung" id="ID.BB"/>
utf-8utf-8<path d="M441.1,357.5L438.8,358.7L440.6,360.6L442.0,359.8L441.1,357.5Z M440.5,345.2L437.0,343.5L432.7,342.8L431.0,344.5L426.5,345.7L418.6,343.2L418.1,346.3L419.6,349.2L421.4,350.8L424.8,350.9L430.6,355.3L430.5,361.0L431.3,361.8L433.4,361.3L434.5,358.1L436.7,355.6L442.1,353.3L444.7,350.2L440.5,345.2Z " data-id="ID.BA" data-name="Bali" id="ID.BA"/>
utf-8utf-8<path d="M423.2,320.1L421.4,319.4L420.6,319.8L423.2,320.1Z M450.7,319.5L447.3,320.2L449.3,321.3L450.7,319.5Z M418.3,319.7L416.2,317.8L416.0,320.0L418.3,319.7Z M409.9,313.5L399.8,313.9L398.1,313.6L389.9,313.6L385.0,314.2L381.6,317.9L382.1,320.4L384.1,320.4L390.7,322.1L391.2,320.5L393.8,321.8L399.8,322.2L400.6,320.2L402.5,319.2L407.0,319.6L407.0,318.8L409.5,317.0L412.6,316.0L409.9,313.5Z M439.9,312.4L437.2,313.1L438.1,315.6L439.0,314.7L444.0,314.8L441.7,312.6L439.9,312.4Z M360.0,309.9L358.1,315.5L357.6,320.5L354.2,324.1L349.5,322.6L349.1,323.0L348.1,333.8L349.7,334.4L350.5,337.0L349.7,339.5L346.8,340.4L343.0,343.4L342.0,346.5L343.1,347.1L345.5,346.1L346.8,347.9L348.6,347.3L354.2,349.1L355.2,348.7L358.0,350.1L360.0,347.4L362.5,348.2L363.9,347.8L369.1,348.9L374.1,350.6L382.5,350.2L384.7,350.3L385.9,348.9L393.7,348.9L400.4,353.1L403.3,353.3L404.2,354.6L409.5,356.6L412.9,356.0L415.5,357.3L415.6,358.1L419.9,360.0L419.9,357.3L416.9,355.8L416.1,353.7L415.6,349.7L417.9,341.3L418.3,335.9L414.7,333.8L409.9,331.5L407.3,333.2L404.2,334.3L397.4,334.2L393.5,335.8L386.7,332.3L382.3,329.5L383.5,326.5L383.8,322.2L381.4,322.7L381.2,320.8L379.8,318.4L379.5,313.3L377.6,314.3L376.7,313.4L370.1,314.3L368.3,313.9L366.5,311.2L362.8,311.6L360.4,310.5L360.0,309.9Z M383.8,285.5L380.9,286.9L381.3,288.2L383.8,288.1L383.8,285.5Z " data-id="ID.JI" data-name="Jawa Timur" id="ID.JI"/>
utf-8utf-8<path d="M465.8,233.9L466.9,228.5L464.6,231.0L465.8,233.9Z M459.6,243.7L463.8,240.3L463.4,239.0L463.2,227.4L463.7,224.1L460.2,226.4L458.4,230.6L457.6,236.2L458.8,238.6L458.1,243.9L459.6,243.7Z M452.0,179.8L452.2,178.8L446.3,180.3L444.9,191.0L443.7,193.7L444.1,194.8L440.2,198.7L434.2,200.7L433.8,206.5L432.8,207.7L430.9,211.9L428.0,214.2L426.5,214.6L424.8,218.5L420.9,229.1L422.2,229.7L424.7,230.4L425.1,227.8L426.2,226.9L425.5,230.1L427.3,243.2L427.0,247.1L448.1,237.5L454.8,233.5L456.2,233.5L457.4,231.7L457.7,229.5L461.3,222.7L463.5,221.8L460.4,216.7L461.0,215.2L463.6,218.5L464.1,218.1L466.8,208.0L464.9,206.8L466.2,206.3L470.0,206.5L470.8,202.8L466.9,201.6L458.9,200.9L456.4,202.2L455.3,201.9L454.5,198.4L454.7,196.1L453.2,191.6L453.2,188.6L449.6,182.1L451.4,179.9L452.0,179.8Z " data-id="ID.KS" data-name="Kalimantan Selatan" id="ID.KS"/>
utf-8utf-8<path d="M593.9,412.6L595.9,412.2L601.8,409.4L606.1,404.8L606.0,400.6L598.1,407.4L592.8,409.7L592.7,411.9L593.9,412.6Z M574.8,400.6L569.5,403.5L570.0,404.7L572.7,404.8L576.1,401.5L574.8,400.6Z M608.0,395.3L609.1,394.2L606.6,394.3L608.0,395.3Z M535.6,374.3L530.9,374.9L523.6,374.3L513.1,377.2L512.0,379.1L521.6,384.9L522.0,384.2L527.4,385.1L529.7,387.8L532.1,388.7L534.5,392.8L536.8,395.4L541.8,396.5L543.4,397.6L545.7,395.6L548.8,395.1L552.0,391.3L551.9,390.4L549.2,387.7L547.0,383.5L544.2,381.0L541.8,381.9L540.6,381.2L536.7,376.3L535.6,374.3Z M642.3,367.3L642.2,365.2L639.3,366.0L636.6,367.9L631.7,369.9L628.3,377.3L626.8,377.4L626.1,374.8L624.3,375.8L620.6,374.9L614.3,380.5L611.3,388.6L611.6,391.3L613.3,390.6L612.7,393.5L610.0,394.6L608.2,399.0L615.6,398.9L618.1,397.2L629.6,393.6L635.0,388.3L636.2,387.5L639.0,383.8L642.1,381.4L642.4,379.6L644.2,377.4L642.5,370.7L646.7,370.0L646.5,365.8L645.5,365.3L642.3,367.3Z M529.7,357.1L529.9,360.6L532.2,356.3L529.7,357.1Z M525.5,352.7L524.4,351.8L523.4,354.9L523.2,359.1L524.8,358.8L525.8,356.0L527.9,354.8L527.2,352.8L525.5,352.7Z M605.5,351.6L599.7,353.6L599.0,355.3L605.5,351.6Z M608.4,347.0L605.5,347.0L602.8,349.1L602.3,350.6L607.2,350.9L609.0,350.0L608.4,347.0Z M622.5,347.0L619.5,345.4L614.6,348.5L614.6,350.1L613.4,349.9L614.4,347.1L610.0,348.7L612.4,349.1L606.6,353.9L613.3,354.9L615.7,351.1L617.6,350.6L622.5,347.0Z M628.5,350.3L628.8,346.1L625.6,350.2L624.6,348.5L621.4,352.1L623.8,351.5L625.5,354.6L627.7,352.4L628.5,350.3Z M636.2,344.2L632.2,347.5L633.9,347.6L631.1,352.2L637.2,351.0L647.8,349.6L648.4,346.7L647.7,345.2L638.7,345.0L636.8,346.1L636.2,344.2Z M602.0,344.9L597.5,345.0L596.7,346.1L601.0,346.3L595.2,350.4L590.8,352.6L589.7,355.8L586.1,356.5L580.8,352.3L571.7,352.7L566.6,355.0L564.8,352.7L554.8,348.9L553.3,349.1L547.8,347.8L543.4,347.6L539.2,350.8L536.9,351.9L534.3,351.1L534.2,353.1L532.5,355.6L532.3,359.1L534.1,360.8L535.8,360.9L540.4,360.0L543.3,361.3L549.4,360.6L550.2,361.7L552.8,362.2L554.6,361.3L555.7,363.4L557.6,364.0L560.5,363.3L565.1,363.5L565.9,361.1L568.7,361.0L574.9,362.7L579.7,360.6L582.1,358.9L590.8,358.4L592.0,357.4L595.4,356.6L598.3,354.5L598.0,351.7L599.1,352.3L599.9,349.9L602.6,348.8L602.0,344.9Z " data-id="ID.NT" data-name="Nusa Tenggara Timur" id="ID.NT"/>
utf-8utf-8<path d="M555.5,318.3L553.6,316.7L553.7,320.2L555.9,319.7L555.5,318.3Z M550.9,303.5L552.2,296.2L552.8,294.7L550.9,288.1L550.2,297.5L550.7,298.7L550.9,303.5Z M542.5,192.8L541.4,195.0L537.5,198.2L537.9,201.9L539.2,203.6L539.1,206.8L540.1,210.9L538.8,212.0L534.2,212.5L535.3,221.8L532.2,223.0L533.0,230.3L533.1,230.4L532.3,234.8L532.8,237.9L534.6,243.6L534.0,256.8L532.0,265.4L529.2,270.5L528.5,272.6L527.9,277.2L529.1,281.5L533.6,282.6L533.8,284.1L536.4,284.6L539.4,281.6L544.1,281.9L549.1,280.0L550.5,282.6L551.5,282.6L547.8,271.1L548.9,267.3L551.1,262.8L552.4,258.8L550.9,253.3L551.5,247.0L551.0,245.4L551.2,241.2L553.0,234.8L552.6,223.5L550.5,222.4L548.9,217.4L557.4,210.6L566.5,210.1L568.1,212.5L566.1,213.8L568.1,216.1L568.1,216.2L569.8,215.3L572.2,215.4L576.4,218.9L577.7,218.6L579.1,217.7L579.5,217.4L583.3,212.9L583.4,210.3L582.5,208.9L578.4,205.8L577.2,204.2L562.5,199.8L557.2,194.5L554.6,190.2L547.5,190.3L543.3,192.4L542.5,192.8Z " data-id="ID.SE" data-name="Sulawesi Selatan" id="ID.SE"/>
utf-8utf-8<path d="M542.1,192.8L541.5,191.1L542.0,188.8L539.1,183.2L537.8,179.0L535.3,177.9L535.4,174.9L536.8,173.9L536.4,165.3L535.8,165.7L533.7,172.2L532.7,172.7L530.4,179.5L530.5,186.4L531.6,190.2L531.1,192.9L528.3,194.1L526.2,200.2L526.2,205.0L520.3,209.9L518.3,210.8L517.8,213.4L518.9,214.6L519.8,217.7L519.2,220.2L518.1,220.0L521.2,232.4L522.9,230.9L526.9,230.4L529.9,229.0L532.9,230.3L533.0,230.3L532.2,223.0L535.3,221.8L534.2,212.5L538.8,212.0L540.1,210.9L539.1,206.8L539.2,203.6L537.9,201.9L537.5,198.2L541.4,195.0L542.5,192.8L542.1,192.8Z " data-id="ID.SR" data-name="Sulawesi Barat" id="ID.SR"/>
utf-8utf-8<path d="M211.3,154.6L210.2,153.6L205.6,154.7L204.9,156.2L206.9,159.1L207.1,161.1L208.5,159.0L209.7,159.9L212.4,156.2L211.3,154.6Z M210.1,152.4L209.8,151.5L208.6,151.7L210.1,152.4Z M212.2,144.7L209.0,150.1L210.9,151.5L214.9,150.0L219.7,153.0L219.3,151.9L221.3,151.8L217.8,148.3L216.5,149.7L212.2,144.7Z M209.0,141.3L208.1,142.0L209.4,143.7L209.0,141.3Z M210.5,139.2L214.3,144.0L214.4,143.1L210.5,139.2Z M205.6,128.9L205.2,128.3L205.4,129.5L205.6,128.9Z M215.6,127.2L215.1,126.5L215.0,126.8L215.6,127.2Z M212.8,125.8L210.4,125.9L210.4,126.5L212.8,125.8Z M205.4,125.6L204.5,127.3L204.9,127.6L205.4,125.6Z M198.1,125.9L197.1,124.0L195.4,123.3L198.1,125.9Z M187.7,128.7L188.8,126.7L185.4,123.5L187.1,129.0L187.7,128.7Z M195.9,126.0L195.4,124.2L194.2,125.1L195.9,126.0Z M203.1,123.2L201.4,122.0L202.8,124.8L205.1,123.9L203.1,123.2Z M197.3,120.2L196.2,121.1L198.6,121.3L197.3,120.2Z M217.5,121.4L216.6,119.6L216.4,119.8L217.5,121.4Z M187.2,120.0L184.6,118.1L185.4,120.3L187.2,120.0Z M202.6,116.9L198.1,117.3L198.3,120.1L200.4,120.7L202.6,116.9Z M212.1,115.5L204.8,117.7L205.2,120.3L209.1,118.9L208.6,121.0L211.6,124.5L212.3,124.4L213.7,119.6L212.1,115.5Z M246.9,77.8L246.3,75.7L246.0,75.8L246.9,77.8Z M303.2,75.0L304.2,73.7L304.2,71.8L303.2,75.0Z M279.8,71.8L280.7,71.7L279.4,71.0L279.8,71.8Z M236.7,71.9L235.3,71.6L235.2,75.0L237.5,73.7L236.7,71.9Z M246.5,65.8L245.8,66.3L247.0,68.5L247.5,66.9L246.5,65.8Z M290.4,44.7L288.5,40.8L283.5,46.5L289.7,51.9L289.9,53.2L286.2,54.3L288.4,55.3L292.3,51.5L292.3,46.9L290.4,44.7Z M283.0,29.9L282.9,28.1L282.6,28.8L283.0,29.9Z " data-id="ID.KR" data-name="Kepulauan Riau" id="ID.KR"/>
utf-8utf-8<path d="M612.8,122.1L610.8,121.4L609.0,123.8L606.6,124.1L603.0,121.4L593.3,119.7L593.3,119.7L585.6,121.1L583.0,122.3L574.9,124.0L572.6,127.1L571.0,128.1L574.9,131.3L574.8,133.5L574.9,133.5L578.5,132.9L579.0,131.7L582.5,132.0L584.4,134.3L588.9,133.9L590.0,133.1L596.2,132.7L611.5,132.8L620.5,137.3L620.8,137.2L621.6,132.8L621.2,131.2L616.1,126.9L615.2,124.4L612.8,122.1L612.8,122.1Z " data-id="ID.GO" data-name="Gorontalo" id="ID.GO"/>
utf-8utf-8<path d="M210.5,187.4L208.9,182.4L209.0,178.7L207.5,170.2L206.2,170.2L198.4,168.8L196.7,169.4L195.6,171.2L189.9,166.3L187.2,163.2L187.2,163.2L173.5,164.3L169.0,169.4L163.7,169.6L160.4,165.9L156.3,166.5L153.4,169.4L151.0,170.3L151.3,171.0L152.0,174.5L148.7,177.7L149.1,179.1L148.0,182.7L144.4,186.6L139.0,187.2L136.5,186.7L136.8,190.6L140.3,198.3L141.0,201.2L142.9,199.8L144.8,201.2L146.3,205.5L149.5,209.5L153.4,212.2L156.3,212.9L156.5,213.1L157.4,212.1L160.2,210.7L160.8,209.6L164.8,211.8L172.4,207.8L174.0,205.2L178.0,203.0L181.3,203.0L180.7,200.6L181.8,198.5L186.7,203.8L186.9,199.9L189.1,198.9L188.8,193.1L196.5,188.9L204.1,189.7L206.5,188.5L207.2,186.9L210.5,187.4L210.5,187.4Z " data-id="ID.JA" data-name="Jambi" id="ID.JA"/>
utf-8utf-8<path d="M452.3,179.9L454.7,176.6L454.9,171.5L452.5,170.7L447.6,166.9L446.1,160.9L444.7,157.4L443.5,152.1L443.6,150.3L445.1,144.5L439.8,147.4L437.4,149.3L436.9,147.0L437.2,140.8L436.6,137.2L438.2,128.0L437.4,127.4L430.3,129.6L424.1,130.4L420.5,129.2L416.7,129.0L411.7,130.9L411.1,131.2L410.6,131.6L406.4,138.2L404.0,138.1L401.4,138.9L403.7,142.1L404.7,146.0L399.7,153.7L400.4,156.9L399.4,158.4L397.8,156.4L389.0,160.5L377.8,162.9L375.2,162.9L367.1,168.1L363.8,171.3L362.6,174.4L353.0,182.5L351.8,182.1L348.9,184.9L351.3,188.0L350.6,197.0L353.1,203.8L352.9,211.9L350.8,213.3L348.9,215.6L349.0,216.0L344.8,218.0L344.3,219.1L348.4,220.7L351.0,219.9L356.2,216.9L360.9,217.5L361.2,218.7L363.8,217.5L367.5,218.9L367.2,223.1L367.6,227.3L367.0,231.8L368.8,232.4L373.5,227.8L375.4,226.5L379.5,226.7L382.3,229.1L385.5,227.9L393.3,222.4L393.8,216.5L395.1,219.5L400.3,225.1L403.8,222.6L405.7,222.6L406.6,224.7L406.3,229.6L410.2,229.6L415.2,227.1L416.8,223.5L418.3,227.8L419.7,227.2L420.5,228.8L420.9,229.1L424.8,218.5L426.5,214.6L428.0,214.2L430.9,211.9L432.8,207.7L433.8,206.5L434.2,200.7L440.2,198.7L444.1,194.8L443.7,193.7L444.9,191.0L446.3,180.3L452.2,178.8L452.0,179.8L452.3,179.9Z " data-id="ID.KT" data-name="Kalimantan Tengah" id="ID.KT"/>
utf-8utf-8<path d="M818.5,228.8L818.8,231.1L819.1,230.8L818.5,228.8Z M795.8,209.9L797.1,208.9L796.7,208.9L795.8,209.9Z M838.0,204.7L838.4,206.5L839.4,205.4L838.0,204.7Z M860.2,204.9L860.6,204.1L859.4,203.5L860.2,204.9Z M856.4,197.6L857.4,194.4L856.4,194.1L856.4,197.6Z M852.5,192.0L853.4,187.6L852.1,189.7L852.5,192.0Z M769.7,186.4L766.7,187.4L764.9,187.2L756.3,190.6L759.0,193.5L763.6,194.5L764.4,195.5L769.8,194.2L771.2,193.0L770.7,188.5L769.7,186.4Z M761.3,173.7L757.2,173.6L757.0,174.5L761.3,173.7Z M782.5,167.6L776.3,169.1L777.2,170.0L778.4,174.9L783.4,177.9L784.6,174.9L784.5,167.3L782.5,167.6Z M780.5,163.7L774.3,165.3L772.0,164.9L771.8,167.3L775.7,167.1L778.8,166.4L780.5,163.7Z M777.3,156.2L776.9,155.4L772.4,157.7L776.3,157.8L777.3,156.2Z M760.0,157.0L760.1,154.9L759.0,155.8L760.0,157.0Z M864.9,249.2L874.0,237.0L852.6,228.2L854.4,223.1L856.5,221.2L862.1,214.4L862.1,214.4L862.1,207.7L861.4,206.1L858.6,206.6L858.1,208.1L859.1,214.4L857.6,215.0L855.0,206.7L852.7,203.9L851.6,201.8L850.8,197.2L851.3,195.0L850.7,187.5L853.4,182.7L854.8,178.0L851.6,173.0L849.7,168.4L850.8,166.7L848.5,162.6L844.4,162.5L843.4,163.3L835.8,162.6L830.5,157.9L825.3,156.0L821.1,153.7L814.3,153.5L809.0,155.6L803.7,160.4L803.2,161.6L800.9,162.5L795.3,163.6L795.2,162.8L789.2,165.0L789.4,171.4L787.2,174.9L785.4,175.2L782.9,180.3L787.3,180.9L788.0,182.2L791.0,180.5L789.8,178.6L792.3,179.5L792.1,180.4L795.7,181.1L801.1,184.3L804.9,182.6L802.8,185.4L805.7,186.7L804.1,188.9L803.8,191.1L806.5,196.5L809.5,198.0L811.4,200.4L818.1,199.1L818.6,200.7L823.0,200.0L824.3,200.7L830.2,199.2L838.0,199.7L846.9,196.5L844.3,201.1L847.2,199.3L845.2,202.1L847.7,203.9L842.6,205.3L844.2,207.4L842.8,207.8L841.7,206.5L840.8,208.3L836.8,206.6L836.2,209.5L835.9,206.0L835.0,210.1L834.4,210.5L834.7,206.8L831.9,204.1L827.0,205.7L822.9,211.5L819.8,213.9L817.1,211.5L813.5,212.2L811.2,210.5L807.1,211.0L808.4,211.7L804.6,212.5L803.7,216.7L806.4,217.4L812.1,218.1L814.4,219.6L817.6,223.7L817.0,224.3L819.8,226.3L821.4,225.3L821.7,229.7L822.5,234.2L819.9,233.8L819.3,235.1L821.0,241.4L820.3,241.1L822.8,245.2L825.4,244.6L829.2,244.9L834.7,239.6L833.9,236.1L838.0,231.8L837.2,228.8L839.8,227.3L840.1,221.4L843.6,216.8L844.5,216.5L845.5,221.5L842.6,221.6L840.9,224.1L839.2,229.7L840.5,233.4L842.4,235.3L843.4,234.1L845.6,238.9L849.3,238.0L850.7,238.7L849.5,240.6L853.1,243.4L853.7,239.7L857.3,243.3L859.0,243.1L863.1,240.9L867.4,241.7L861.1,242.0L860.2,245.8L861.8,246.4L864.6,249.1L864.9,249.2Z M765.7,147.1L765.8,146.4L764.9,145.8L765.7,147.1Z M780.3,145.0L773.5,146.0L768.9,148.9L771.6,149.8L769.0,150.0L772.3,151.5L773.8,151.2L775.6,152.6L777.3,152.0L781.2,155.4L782.8,153.6L778.0,150.2L775.7,147.2L777.5,146.8L783.6,153.7L786.2,152.8L789.6,154.3L790.5,148.8L788.7,148.3L785.4,146.1L780.3,145.0Z M856.3,126.8L856.0,126.1L855.6,126.9L856.3,126.8Z M789.6,119.1L789.6,118.5L789.4,118.7L789.6,119.1Z " data-id="ID.IB" data-name="Irian Jaya Barat" id="ID.IB"/>
utf-8utf-8<path d="M80.0,157.4L77.4,154.2L76.6,157.6L77.9,159.0L80.0,157.4Z M81.6,151.7L78.3,145.1L75.9,145.1L80.6,152.7L81.6,151.7Z M83.1,140.6L87.8,142.8L87.0,140.9L83.1,140.6Z M55.7,107.7L54.7,107.4L53.6,109.7L50.4,109.7L49.1,110.7L56.3,121.7L58.1,121.7L60.2,123.8L63.6,130.5L64.6,130.5L67.0,127.3L67.3,122.7L68.0,121.3L67.0,118.9L65.8,118.6L62.7,115.8L58.8,109.8L55.7,107.7Z M73.1,39.8L68.7,40.7L67.3,47.7L63.0,53.6L66.0,59.3L67.5,64.0L66.1,66.4L67.0,68.5L66.0,69.6L66.7,73.6L68.6,75.2L70.1,79.3L71.1,91.2L72.2,92.0L76.5,95.7L80.6,97.4L86.6,103.5L85.8,106.9L84.6,106.5L89.2,117.5L92.2,129.7L93.3,130.1L94.3,138.5L94.5,138.7L98.6,133.3L102.8,131.3L106.0,132.6L111.0,132.0L110.4,129.8L107.3,123.6L116.3,126.5L116.5,126.3L116.5,125.6L117.5,117.4L115.8,114.9L114.8,110.2L120.1,107.5L122.1,105.3L121.9,104.0L118.7,97.8L119.2,94.0L118.1,87.2L118.7,82.3L118.7,82.3L115.0,78.8L114.5,81.1L112.2,77.9L111.2,77.6L111.2,72.6L108.5,71.1L106.1,66.9L101.9,65.3L95.5,59.5L89.0,55.2L85.0,53.6L83.1,51.6L82.2,48.9L79.6,46.8L73.1,42.5L71.8,43.6L73.1,39.8L73.1,39.8Z " data-id="ID.SU" data-name="Sumatera Utara" id="ID.SU"/>
utf-8utf-8<path d="M194.2,153.4L193.7,151.8L191.4,150.6L189.1,150.9L187.8,153.9L194.2,153.4Z M175.1,137.9L175.9,137.0L174.3,137.7L175.1,137.9Z M179.5,130.7L178.5,128.8L179.0,130.3L179.5,130.7Z M181.7,132.3L184.2,131.4L184.1,129.5L182.7,127.6L181.2,128.6L180.7,130.8L181.7,132.3Z M180.0,126.8L180.2,125.4L179.6,127.1L180.0,126.8Z M170.0,120.4L167.4,116.9L166.6,121.8L164.8,123.5L167.2,125.5L176.2,126.0L177.3,127.2L178.6,124.7L175.7,122.1L172.5,120.1L170.0,120.4Z M178.4,119.3L173.3,116.4L171.2,117.0L170.0,120.2L173.1,119.6L180.5,124.4L181.3,123.8L178.4,119.3Z M166.1,121.3L165.7,119.1L165.7,113.8L161.3,110.2L160.7,114.5L161.8,119.5L163.2,121.3L166.1,121.3Z M160.9,106.4L157.3,105.1L155.9,106.0L163.0,110.2L166.3,113.7L166.4,108.4L160.9,106.4Z M149.5,94.4L147.9,92.7L143.0,94.8L142.5,97.6L145.6,102.8L149.5,101.3L149.5,94.4Z M118.7,82.3L118.1,87.2L119.2,94.0L118.7,97.8L121.9,104.0L122.1,105.3L120.1,107.5L114.8,110.2L115.8,114.9L117.5,117.4L116.5,125.6L116.5,126.3L117.0,126.8L116.3,129.0L118.6,133.8L123.9,134.0L130.8,139.7L130.5,146.1L129.1,146.4L131.4,152.8L134.5,154.7L135.3,156.5L139.5,162.1L146.9,168.1L150.8,169.8L151.0,170.3L153.4,169.4L156.3,166.5L160.4,165.9L163.7,169.6L169.0,169.4L173.5,164.3L187.2,163.2L187.2,163.1L185.2,161.9L190.6,155.3L189.0,154.5L185.3,153.9L188.5,151.1L184.3,150.7L187.9,149.4L189.6,147.7L190.1,145.3L195.4,144.7L194.3,139.0L193.2,137.2L190.9,137.3L188.2,133.1L185.6,131.7L182.1,133.4L180.9,135.1L172.2,139.3L171.2,139.2L168.7,141.0L167.8,140.0L171.6,138.6L178.6,134.6L179.6,132.2L175.1,127.1L168.0,126.8L166.1,125.9L161.2,120.8L160.1,117.8L159.0,111.6L156.3,109.6L151.0,104.6L143.3,103.0L141.6,99.3L135.3,90.5L134.8,88.7L129.7,89.7L130.0,93.0L131.4,95.0L132.9,100.1L130.8,95.9L126.6,92.6L124.3,92.0L120.3,87.1L118.7,82.3L118.7,82.3Z " data-id="ID.RI" data-name="Riau" id="ID.RI"/>
utf-8utf-8<path d="M658.5,110.7L659.6,110.2L660.3,106.8L658.5,110.7Z M612.8,122.1L615.2,124.4L616.1,126.9L621.2,131.2L621.6,132.8L620.8,137.2L621.0,137.2L624.9,138.0L626.6,137.3L634.0,136.3L639.5,135.1L643.0,133.0L645.0,130.4L646.3,126.3L648.6,123.3L651.8,121.0L654.7,116.1L655.9,111.8L659.2,108.5L657.4,106.0L656.9,103.6L652.3,104.0L650.2,105.9L647.2,110.5L645.6,110.1L644.1,111.5L644.1,115.1L640.1,116.3L638.6,119.9L631.3,124.0L628.8,124.5L616.2,121.3L612.8,122.1L612.8,122.1Z M656.9,102.2L657.4,100.9L656.5,100.0L656.9,102.2Z M662.2,92.9L660.7,93.6L661.0,94.1L662.2,92.9Z M663.0,87.7L661.8,86.3L661.4,86.4L663.0,87.7Z M662.1,80.3L662.5,76.4L661.1,78.9L662.1,80.3Z M665.7,58.6L664.4,55.9L662.3,53.4L661.0,54.5L663.4,58.0L663.2,60.0L665.3,61.6L665.7,58.6Z M691.7,53.1L690.3,50.7L690.1,52.4L691.7,53.1Z M691.6,34.7L690.3,33.4L688.7,33.4L688.3,40.3L690.1,40.9L688.7,44.5L689.7,47.0L690.5,46.4L690.6,43.0L691.7,41.7L691.6,34.7Z M697.1,28.4L696.6,28.4L696.9,28.7L697.1,28.4Z M684.2,8.7L684.1,8.7L684.2,8.9L684.2,8.7Z " data-id="ID.SW" data-name="Sulawesi Utara" id="ID.SW"/>
utf-8utf-8<path d="M676.4,205.3L676.3,202.8L674.5,198.3L675.1,194.6L673.0,193.6L672.1,196.0L673.9,201.3L673.9,203.0L676.4,205.3Z M639.9,193.7L639.4,192.9L638.5,193.3L639.9,193.7Z M662.8,188.9L660.9,189.7L662.9,192.7L675.7,191.5L680.1,190.7L682.4,189.5L675.1,188.7L667.1,189.2L662.8,188.9Z M643.5,185.0L641.6,185.4L639.1,189.7L640.6,194.0L643.0,194.0L646.4,193.2L648.9,191.6L653.8,192.5L654.7,191.2L660.5,190.6L660.1,187.6L657.9,187.6L656.2,186.4L655.9,187.5L649.7,185.8L643.5,185.5L643.5,185.0Z M704.5,178.1L703.3,179.2L705.4,179.1L704.5,178.1Z M715.1,180.0L713.2,178.1L710.7,177.5L707.8,180.3L706.3,180.2L705.7,183.4L706.3,186.2L709.3,187.3L717.2,186.1L719.7,186.9L721.6,183.4L716.3,179.7L715.1,180.0Z M712.3,175.1L709.1,173.6L707.2,175.2L708.0,175.7L712.3,175.1Z M704.3,164.0L702.1,160.0L700.8,163.8L704.3,164.0Z M711.2,155.1L710.7,153.9L705.1,152.9L704.3,153.2L704.2,157.7L707.6,160.9L706.9,162.4L713.6,166.6L716.7,164.1L715.8,162.4L713.1,161.9L710.8,158.9L711.2,155.1Z M702.1,151.0L700.3,156.7L701.3,157.7L702.9,152.8L703.9,151.8L702.1,151.0Z M752.7,150.1L751.9,147.7L747.2,143.7L748.9,146.8L750.7,147.7L752.7,150.1Z M706.5,137.2L706.1,135.6L704.9,136.0L705.2,137.9L706.5,137.2Z M706.7,126.5L705.7,126.3L705.8,129.7L706.8,128.9L706.7,126.5Z M683.9,113.3L684.2,112.2L683.1,112.1L683.9,113.3Z M719.5,91.1L711.8,97.7L710.5,99.9L708.4,106.7L708.8,108.7L706.0,114.7L706.7,119.2L707.7,118.8L708.3,123.2L710.6,123.8L709.4,126.7L708.9,131.4L711.7,136.5L712.6,136.5L712.8,151.9L715.9,153.8L720.1,162.3L724.4,164.4L725.2,166.4L727.0,165.8L721.2,157.6L719.0,151.8L716.8,145.3L717.4,141.3L717.2,134.1L718.2,133.0L722.4,133.7L723.7,134.9L728.9,135.1L731.4,137.1L737.2,138.7L737.0,137.3L734.4,136.7L733.9,131.6L728.5,129.2L725.9,128.5L723.7,125.9L729.3,121.3L734.1,118.6L734.1,116.2L735.0,112.5L734.3,106.4L732.7,106.2L724.9,109.5L721.9,113.0L722.0,117.3L720.6,117.3L717.6,120.2L717.4,123.2L715.0,125.3L710.8,121.5L715.3,116.8L716.7,116.1L718.5,113.0L719.4,107.7L718.6,105.0L718.9,102.7L717.3,100.8L715.9,100.6L715.5,97.6L717.2,96.3L719.5,91.1Z M713.0,89.2L713.5,90.7L714.3,90.1L713.0,89.2Z M721.9,88.6L720.9,87.3L721.3,88.6L721.9,88.6Z M730.9,80.9L727.9,81.4L725.0,84.6L722.5,89.3L723.5,90.4L723.8,93.7L729.0,94.5L732.1,89.4L733.1,85.1L730.9,80.9Z " data-id="ID.LA" data-name="Maluku Utara" id="ID.LA"/>
utf-8utf-8<path d="M121.7,220.1L119.4,215.8L116.7,212.8L115.6,214.2L116.9,220.1L119.0,221.5L120.2,225.4L121.7,220.1Z M116.2,212.5L116.2,210.5L112.0,205.9L111.5,212.7L112.4,214.5L116.2,212.5Z M105.9,197.0L104.3,194.4L102.5,195.4L103.5,200.4L104.5,200.4L108.9,203.2L109.0,202.7L105.9,197.0Z M89.3,167.9L82.9,172.7L82.3,173.7L83.1,176.5L87.2,183.4L88.3,186.0L93.3,189.1L96.3,187.9L95.4,183.4L93.6,179.9L91.8,174.4L89.0,169.2L89.3,167.9Z M94.7,138.9L98.9,139.3L99.7,140.7L102.7,141.4L107.7,146.2L110.4,153.6L113.6,156.8L116.2,161.2L119.3,164.9L120.3,168.8L121.6,170.3L120.7,172.4L121.8,176.2L124.3,177.1L126.3,182.9L131.4,193.8L130.2,197.4L132.1,202.1L134.0,205.4L134.2,205.7L139.4,202.1L140.3,201.4L141.0,201.2L140.3,198.3L136.8,190.6L136.5,186.7L139.0,187.2L144.4,186.6L148.0,182.7L149.1,179.1L148.7,177.7L152.0,174.5L151.3,171.0L151.0,170.3L150.8,169.8L146.9,168.1L139.5,162.1L135.3,156.5L134.5,154.7L131.4,152.8L129.1,146.4L130.5,146.1L130.8,139.7L123.9,134.0L118.6,133.8L116.3,129.0L117.0,126.8L116.5,126.3L116.3,126.5L107.3,123.6L110.4,129.8L111.0,132.0L106.0,132.6L102.8,131.3L98.6,133.3L94.5,138.7L94.7,138.9Z " data-id="ID.SB" data-name="Sumatera Barat" id="ID.SB"/>
utf-8utf-8<path d="M328.2,341.4L332.1,343.7L333.6,344.1L337.1,345.7L339.9,345.9L339.1,344.2L338.9,337.1L332.7,334.1L332.1,330.2L328.0,334.0L325.9,332.8L323.1,338.3L328.2,341.4Z " data-id="ID.YO" data-name="Yogyakarta" id="ID.YO"/>
utf-8utf-8<path d="M714.9,346.1L713.9,348.0L715.0,347.7L714.9,346.1Z M703.4,346.8L705.2,346.2L703.4,344.8L703.4,346.8Z M706.7,343.4L705.9,345.3L711.0,347.2L712.8,345.4L712.3,344.2L706.7,343.4Z M776.7,344.5L776.2,343.2L771.7,346.9L769.5,349.6L776.2,346.0L779.0,344.0L776.7,344.5Z M693.6,343.6L692.6,341.6L692.1,343.4L693.6,343.6Z M749.0,336.4L746.2,336.0L744.9,338.6L747.0,341.9L748.4,342.3L750.8,338.1L749.0,336.4Z M754.5,334.7L753.9,333.7L753.8,334.4L754.5,334.7Z M778.9,331.7L775.5,332.9L777.9,333.4L778.9,331.7Z M683.5,332.8L681.2,330.4L679.0,330.9L675.0,333.5L672.3,334.0L668.9,333.5L667.6,332.6L664.2,336.7L663.3,341.2L665.3,339.5L673.5,338.8L677.5,340.2L681.4,335.5L685.6,335.2L685.8,333.5L683.5,332.8Z M747.6,330.1L747.9,330.6L748.3,330.4L747.6,330.1Z M698.0,332.4L700.3,329.8L698.9,328.9L698.0,332.4Z M780.3,326.7L776.0,328.1L777.8,328.2L780.3,326.7Z M782.6,324.4L782.1,323.9L781.8,324.6L782.6,324.4Z M790.9,320.5L788.4,320.2L788.3,321.1L785.1,324.9L781.5,328.4L780.1,333.2L778.5,333.4L777.8,336.8L777.8,340.2L780.9,340.7L786.5,334.3L788.4,333.4L790.9,320.5Z M796.8,319.0L793.3,319.2L792.7,319.9L796.3,320.9L797.9,322.5L797.9,320.7L796.8,319.0Z M726.6,320.9L725.6,318.0L723.8,319.2L724.6,320.9L726.6,320.9Z M737.0,316.4L737.2,315.9L737.1,315.5L737.0,316.4Z M745.8,309.7L744.8,309.8L745.3,310.8L745.8,309.7Z M856.9,310.5L858.5,307.1L857.2,306.9L855.8,310.3L856.9,310.5Z M858.4,305.3L857.1,303.1L856.2,303.9L858.4,305.3Z M856.0,302.3L853.7,299.6L852.4,299.0L850.5,300.8L853.6,304.2L854.8,304.6L856.0,302.3Z M860.9,303.2L860.2,301.0L860.1,303.0L860.9,303.2Z M852.3,302.9L849.2,300.3L849.5,299.7L846.7,297.2L846.8,303.9L845.0,303.6L843.5,310.4L844.1,312.5L846.0,314.5L847.4,313.6L851.2,308.1L852.7,308.2L853.9,306.3L852.3,302.9Z M846.9,292.1L845.9,294.9L847.4,295.6L846.7,296.8L850.5,300.0L851.3,298.2L848.4,295.1L848.4,292.7L846.9,292.1Z M848.3,287.7L848.8,286.8L847.8,285.9L848.3,287.7Z M816.1,282.6L814.7,283.2L815.5,290.3L817.2,290.1L818.1,287.5L815.8,283.4L816.1,282.6Z M818.0,281.0L816.9,282.9L817.8,283.9L818.0,281.0Z M808.5,280.6L807.8,280.9L808.3,281.5L808.5,280.6Z M705.0,279.9L704.9,280.0L705.1,280.1L705.0,279.9Z M705.0,279.5L704.8,279.6L705.0,279.7L705.0,279.5Z M857.0,277.8L855.0,278.3L851.1,285.1L849.6,284.1L848.3,284.9L851.0,287.1L849.9,290.1L849.4,294.0L850.4,297.4L856.1,301.0L859.4,297.3L860.1,294.2L859.5,291.2L860.0,283.1L859.1,280.6L857.0,277.8Z M710.5,277.4L710.4,277.3L710.2,277.5L710.5,277.4Z M710.0,275.8L710.0,276.0L710.1,276.1L710.0,275.8Z M823.5,283.3L825.7,280.2L826.7,274.7L826.4,274.5L822.5,283.3L821.7,283.1L818.5,291.6L823.5,283.3Z M795.5,255.8L794.6,253.5L794.2,253.4L795.5,255.8Z M789.7,246.7L787.5,245.1L787.9,245.8L789.7,246.7Z M786.7,244.0L786.5,242.6L786.0,242.4L786.7,244.0Z M700.2,240.7L700.2,238.5L698.0,239.7L700.2,240.7Z M734.1,235.4L734.2,234.2L733.8,234.0L734.1,235.4Z M726.3,233.8L729.2,232.9L729.1,232.4L726.3,233.8Z M724.0,232.4L724.2,231.0L717.7,232.9L716.6,233.6L715.4,237.1L721.7,234.3L720.3,236.5L722.4,235.8L724.0,232.4Z M731.4,231.5L732.7,233.5L732.8,231.8L731.4,231.5Z M707.2,224.7L706.1,225.6L707.9,226.7L707.2,224.7Z M712.6,224.4L712.5,222.4L711.1,222.2L709.7,223.9L712.6,224.4Z M693.2,221.1L689.8,219.9L683.4,220.1L679.1,222.1L676.2,221.2L674.5,222.6L673.9,224.5L674.1,227.3L678.1,233.9L683.0,236.8L688.5,239.6L693.1,237.7L697.9,234.4L700.2,234.2L701.4,227.9L698.1,227.5L696.6,225.4L698.1,224.0L693.2,221.1Z M717.3,217.2L714.5,218.2L715.8,219.1L717.3,217.2Z M751.2,213.0L747.5,213.7L747.1,214.9L741.6,217.1L740.6,213.6L737.4,214.9L730.2,214.8L729.4,214.4L722.3,215.0L719.3,217.4L719.8,220.1L717.7,220.2L714.7,223.5L715.5,231.7L715.8,230.1L718.5,225.7L718.8,223.2L721.1,220.1L725.8,228.5L729.0,229.1L731.8,229.0L732.2,227.0L734.5,224.8L738.3,224.1L738.0,227.1L741.3,227.0L749.3,229.8L750.2,229.8L750.0,225.8L758.2,226.6L759.1,227.0L763.1,231.5L767.0,233.0L772.3,236.3L773.2,237.5L777.3,239.5L777.8,238.6L777.6,228.6L774.9,228.3L774.1,223.6L769.3,218.3L761.9,218.2L751.2,213.0Z " data-id="ID.MA" data-name="Maluku" id="ID.MA"/>
utf-8utf-8<path d="M466.9,350.6L464.7,347.7L460.3,346.3L457.3,346.8L452.9,351.0L451.5,353.2L451.6,358.5L447.9,359.5L446.6,361.0L450.3,363.2L450.9,362.2L458.5,364.4L458.6,361.9L460.2,361.6L462.1,362.9L460.9,360.7L465.2,354.6L465.5,352.8L466.9,350.6Z M484.4,350.3L487.2,344.6L483.4,345.3L483.6,348.2L482.9,349.6L484.4,350.3Z M518.0,347.1L518.8,345.1L516.9,344.6L518.0,347.1Z M493.9,343.4L492.3,343.2L487.9,346.6L493.9,352.6L494.7,352.2L499.7,355.4L499.9,356.3L495.0,357.1L492.7,359.3L488.4,357.2L489.0,356.6L486.1,354.5L485.9,352.2L484.6,351.3L481.6,352.8L476.7,349.7L471.9,353.1L468.7,353.4L467.5,355.3L466.7,359.1L467.4,359.5L465.8,362.4L466.2,365.9L470.1,367.0L471.3,368.1L473.9,367.7L474.9,366.3L483.3,365.5L485.8,364.0L490.6,363.9L493.5,362.1L496.5,362.3L502.0,357.5L502.6,355.3L502.1,361.9L503.2,362.2L509.6,360.6L513.3,361.7L513.3,360.5L509.4,360.0L509.9,358.4L513.2,357.9L518.5,358.9L519.1,358.1L516.2,356.8L516.5,352.5L515.5,348.6L511.7,348.2L509.9,349.5L509.6,352.1L508.6,352.2L508.0,348.0L504.7,347.0L502.0,349.4L499.4,349.0L497.7,344.3L493.9,343.4Z " data-id="ID.NB" data-name="Nusa Tenggara Barat" id="ID.NB"/>
utf-8utf-8<path d="M628.9,292.2L627.3,289.0L626.8,289.9L628.9,292.2Z M623.9,281.5L623.8,280.3L622.7,279.4L623.9,281.5Z M620.4,276.4L620.3,274.0L618.5,273.5L618.8,276.1L620.4,276.4Z M583.7,269.8L581.0,273.8L584.2,278.9L586.0,278.5L586.7,272.1L584.6,269.2L583.7,269.8Z M602.4,266.2L601.9,258.7L601.0,257.9L597.3,260.3L594.6,261.0L593.2,262.9L593.9,266.9L593.0,270.0L591.8,277.0L595.1,277.2L596.8,275.7L597.2,277.9L599.4,274.7L598.7,272.9L599.8,268.8L602.4,266.2Z M612.1,259.5L609.8,252.5L608.3,252.5L604.9,256.9L603.5,263.6L603.7,265.1L601.8,268.3L602.7,268.9L599.1,277.5L597.1,279.9L600.3,282.8L602.5,284.0L604.7,280.4L604.3,278.3L607.3,277.7L611.5,274.4L608.0,270.8L606.7,272.0L606.4,267.3L607.6,265.2L607.8,263.1L610.2,260.3L611.9,263.6L612.1,259.5Z M610.1,243.0L609.0,242.3L607.2,244.1L607.7,246.1L611.0,248.8L611.8,248.3L612.8,242.8L610.1,243.0Z M612.6,233.1L611.9,231.6L610.2,232.6L612.6,233.1Z M593.8,232.4L594.2,231.0L593.8,231.2L593.8,232.4Z M597.0,230.2L596.9,228.7L596.0,229.0L597.0,230.2Z M568.0,216.6L567.5,220.6L566.2,224.6L565.4,225.0L562.9,230.6L563.3,231.6L568.8,237.9L571.0,238.9L571.6,240.2L577.1,243.5L578.3,247.0L576.8,249.1L574.8,257.2L574.8,259.0L576.2,261.2L579.0,263.1L582.9,263.5L587.7,263.4L588.2,262.9L586.8,259.2L588.0,256.2L596.3,253.5L600.1,252.9L602.8,254.7L602.8,253.0L600.9,250.6L604.4,253.7L605.5,245.2L603.4,244.1L604.8,246.1L601.5,246.3L599.7,242.4L601.3,240.9L599.2,240.1L596.6,236.3L594.3,236.0L591.5,232.4L593.0,231.2L594.4,227.6L594.9,224.2L594.9,224.2L588.9,220.7L580.6,218.0L579.1,217.7L577.7,218.6L576.4,218.9L572.2,215.4L569.8,215.3L568.1,216.2L568.0,216.6Z " data-id="ID.SG" data-name="Sulawesi Tenggara" id="ID.SG"/>
utf-8utf-8<path d="M626.3,192.4L625.5,192.3L625.6,192.9L626.3,192.4Z M628.9,193.6L627.3,190.8L627.7,193.9L628.9,193.6Z M612.3,191.3L613.6,189.6L612.4,187.9L612.3,191.3Z M617.2,188.4L618.1,186.0L616.2,188.2L617.2,188.4Z M622.7,184.1L621.3,181.9L621.1,186.8L622.7,184.1Z M615.0,173.2L608.4,173.9L607.0,176.1L608.2,183.8L611.2,180.6L612.6,177.9L614.1,178.1L613.1,183.9L615.1,184.0L616.1,180.8L619.3,182.1L622.0,180.0L622.5,176.4L618.5,174.9L616.1,178.6L615.0,173.2Z M586.0,154.7L581.6,157.4L581.7,158.4L587.4,156.4L586.0,154.7Z M590.2,153.1L586.2,154.1L587.7,155.0L590.2,153.1Z M592.3,154.0L591.3,151.3L590.9,151.5L592.3,154.0Z M596.3,150.5L595.6,150.7L597.3,153.4L596.3,150.5Z M554.1,119.7L554.2,118.3L553.9,118.4L554.1,119.7Z M536.4,165.3L536.8,173.9L535.4,174.9L535.3,177.9L537.8,179.0L539.1,183.2L542.0,188.8L541.5,191.1L542.1,192.8L542.5,192.8L543.3,192.4L547.5,190.3L554.6,190.2L557.2,194.5L562.5,199.8L577.2,204.2L578.4,205.8L582.5,208.9L583.4,210.3L583.3,212.9L579.5,217.4L579.1,217.7L580.6,218.0L588.9,220.7L594.9,224.2L595.3,223.7L596.9,224.4L597.0,221.2L593.8,219.4L591.2,213.1L588.4,210.9L586.7,205.3L581.9,198.3L578.8,197.2L578.4,195.3L575.1,192.5L574.3,193.7L574.4,190.0L577.9,190.9L578.9,192.2L581.9,191.7L591.9,184.0L592.8,184.4L601.3,175.6L602.8,174.4L607.2,166.9L612.1,166.5L612.8,165.3L614.0,167.8L615.9,170.0L619.1,169.0L620.6,163.5L619.5,160.6L616.0,158.9L605.7,161.6L608.3,161.9L608.9,163.6L598.0,163.4L593.6,163.6L590.0,167.3L587.5,168.3L582.9,167.8L580.2,164.8L580.1,165.5L571.4,174.8L568.8,179.7L563.6,177.8L560.2,179.1L557.9,174.3L558.3,172.0L556.3,168.7L554.2,167.0L552.8,167.9L551.1,166.6L547.8,161.0L547.0,155.2L545.8,150.6L546.5,146.4L548.7,140.4L551.8,135.6L554.0,133.2L563.2,133.0L564.9,134.5L569.9,134.9L571.1,133.7L574.7,133.6L574.8,133.5L574.9,131.3L571.0,128.1L572.6,127.1L574.9,124.0L583.0,122.3L585.6,121.1L593.3,119.7L593.2,119.6L587.4,117.9L581.0,118.8L577.8,117.4L576.6,114.8L577.5,114.1L573.0,114.7L568.6,112.3L564.8,112.3L563.5,114.1L563.1,118.7L558.8,123.9L559.1,124.5L554.9,125.0L553.2,123.5L553.1,120.8L551.1,122.0L550.9,124.5L546.8,126.9L546.6,132.2L543.6,134.6L541.5,140.1L543.5,143.1L542.6,146.4L541.1,146.7L538.9,144.1L538.0,144.6L541.7,148.7L541.2,150.7L540.6,156.4L541.4,159.8L542.9,164.2L542.5,166.3L539.9,160.5L536.4,165.3L536.4,165.3Z " data-id="ID.ST" data-name="Sulawesi Tengah" id="ID.ST"/>
utf-8utf-8<path d="M945.2,349.6L943.7,345.0L940.6,345.6L938.0,348.5L937.7,350.0L944.9,350.9L945.2,349.6Z M945.6,342.0L950.5,330.6L947.6,329.8L945.8,327.1L943.1,325.3L936.1,326.4L932.7,327.7L927.3,332.1L922.3,340.6L917.8,350.5L917.7,351.4L922.4,350.2L930.4,350.6L932.8,351.3L935.2,350.3L945.6,342.0Z M944.7,313.1L945.6,312.3L944.5,310.7L943.3,312.7L944.7,313.1Z M880.6,183.9L881.0,186.1L885.7,186.6L896.7,191.5L898.9,190.5L901.8,191.3L905.9,190.8L911.2,188.9L907.1,187.3L900.3,187.2L896.0,185.4L894.0,185.4L880.6,183.9Z M873.1,181.1L872.5,182.1L874.3,182.3L873.1,181.1Z M862.1,214.4L856.5,221.2L854.4,223.1L852.6,228.2L874.0,237.0L864.9,249.2L865.1,249.2L866.7,250.7L871.4,253.9L876.3,253.6L881.5,254.8L888.3,255.7L889.2,256.9L894.5,259.5L897.4,260.3L905.8,264.6L908.8,265.2L912.4,266.9L913.2,266.1L914.6,267.8L920.7,270.9L922.1,270.4L922.2,271.9L927.0,273.6L927.1,276.3L931.3,279.3L932.5,278.3L931.8,283.6L932.2,285.4L935.1,284.4L938.3,284.1L933.8,286.4L937.3,293.0L938.0,297.7L939.4,301.8L942.2,304.9L946.7,309.3L944.1,307.8L946.4,311.7L953.9,315.8L953.0,315.8L948.4,312.6L944.5,313.9L941.7,313.5L940.6,314.5L944.6,319.3L948.3,321.5L942.8,321.2L945.9,324.2L947.5,326.9L950.4,329.5L946.2,339.1L946.1,342.9L944.2,344.4L945.6,348.1L949.7,344.3L952.7,342.8L953.2,344.6L957.0,345.8L961.4,344.0L969.8,347.0L979.2,356.6L981.3,360.8L985.8,366.7L988.3,368.1L991.1,335.4L992.6,316.6L992.1,313.7L993.8,300.2L995.9,267.2L997.7,232.7L997.7,208.8L992.8,208.8L993.7,207.7L991.0,204.7L986.3,203.6L985.0,205.1L980.1,201.8L975.0,203.0L962.6,196.9L958.9,194.2L955.5,192.9L949.5,188.7L942.8,186.8L940.1,185.3L936.4,184.1L932.7,180.9L925.1,184.0L921.0,186.8L915.9,189.2L915.5,191.2L918.1,195.7L916.5,196.6L906.7,199.7L906.2,200.2L900.8,199.1L899.3,200.1L897.3,206.6L890.2,212.9L889.2,217.6L885.3,219.9L885.3,220.7L881.2,224.5L880.0,226.6L875.7,227.9L871.1,227.3L867.3,224.8L865.0,221.4L866.1,216.9L862.7,217.4L862.1,214.4Z M868.9,171.2L868.9,168.2L866.8,168.5L868.9,171.2Z M879.8,160.9L878.7,160.5L879.8,163.6L881.1,163.4L884.4,166.5L886.6,165.0L888.4,172.0L890.1,174.0L892.9,173.7L894.2,174.7L898.5,173.9L900.3,171.7L896.4,171.0L893.7,166.2L890.0,162.6L888.6,162.1L885.7,162.8L879.8,160.9Z " data-id="ID.PA" data-name="Papua" id="ID.PA"/>
utf-8</g>
</svg>
