<svg id="Layer_2" data-name="Layer 2" xmlns="http://www.w3.org/2000/svg" viewBox="0 0 362.75 298.4"><defs><style>.cls-1,.cls-3{fill:#3d0b0b;}.cls-1,.cls-3,.cls-4,.cls-5,.cls-6{stroke:#3d0b0b;}.cls-1,.cls-5{stroke-width:2px;}.cls-2{fill:#191a1a;fill-opacity:0.6;}.cls-3,.cls-4{stroke-width:4px;}.cls-4,.cls-5,.cls-6{fill:none;}.cls-6{stroke-width:4.34px;}</style></defs><title>mine</title><path id="path2392" class="cls-1" d="M303.06,272.51s7.53-14.53,11.81-20.65c4.16-5.94,10-13.9,15.52-18.65,10.05-8.69,23.83-19.84,34.17-28.19,4.83-3.9,10.14-11.65,16.23-12.81,2.63-.5,6.05,1.58,8.54,2.56,3.73,1.48,8,6.71,12,6,8.2-1.51,11.8-15.59,20.07-16.66,4.23-.55,7.36,1.17,10.68,3.84,1.69,1.36,3.09,4.36,5.13,5.13,3.61,1.35,9.11-1.93,12.81-.85,5.81,1.7,12,7.63,16.23,12,2.18,2.24,3.25,7,6,8.54,3.81,2.13,11.33-2.07,14.52.85,12,11,20.47,20.63,25.63,36.73,2.13,6.64,6.83,22.21,6.83,22.21H303.06Z" transform="translate(-167.81 5.95)"/><path id="path3226" class="cls-2" d="M377,283.82l-38-55.46,22.66-18.64,42.54,65.94Z" transform="translate(-167.81 5.95)"/><rect id="rect2384" class="cls-3" x="2" y="274.19" width="358.75" height="22.21"/><rect id="rect2386" class="cls-3" x="35.31" y="28.19" width="98.23" height="24.77"/><rect id="rect2388" class="cls-3" x="28.48" y="105.06" width="114.46" height="7.69"/><path id="path2394" class="cls-4" d="M213.37,152.07H291.1" transform="translate(-167.81 5.95)"/><path id="path3166" class="cls-4" d="M213.37,208.45H291.1" transform="translate(-167.81 5.95)"/><path id="path3168" class="cls-4" d="M214.32,268l74.31-58.08" transform="translate(-167.81 5.95)"/><path id="path3170" class="cls-4" d="M217.64,209.3L292,151.22" transform="translate(-167.81 5.95)"/><path id="path3172" class="cls-4" d="M215.24,150.26l80.29-47h0" transform="translate(-167.81 5.95)"/><path id="path3174" class="cls-4" d="M215.94,275.93V35.05" transform="translate(-167.81 5.95)"/><path id="path3176" class="cls-4" d="M288.54,275.93V35.05" transform="translate(-167.81 5.95)"/><path id="path3178" class="cls-4" d="M222.77,32.49V-5.95" transform="translate(-167.81 5.95)"/><path id="path3180" class="cls-1" d="M258,102c0,4.67-3.51,8.46-7.85,8.46s-7.85-3.78-7.86-8.45h0c0-4.67,3.51-8.46,7.85-8.46S258,97.33,258,102h0Z" transform="translate(-167.81 5.95)"/><path id="path3182" class="cls-5" d="M286.43,105.33A35.33,35.33,0,1,1,251.1,70,35.33,35.33,0,0,1,286.43,105.33Z" transform="translate(-167.81 5.95)"/><path id="path3188" class="cls-4" d="M303.65,169.36V117.41" transform="translate(-167.81 5.95)"/><path id="path3190" class="cls-4" d="M329.32,210.73V158.79" transform="translate(-167.81 5.95)"/><path id="path3196" class="cls-4" d="M304.55,173.89l24.76-18.12" transform="translate(-167.81 5.95)"/><path id="path3198" class="cls-4" d="M330.53,215l24.76-18.12" transform="translate(-167.81 5.95)"/><path id="path3184" class="cls-4" d="M364.35,269.92l-93-149.79" transform="translate(-167.81 5.95)"/><path id="path3186" class="cls-6" d="M397.9,268.45L297,105.91" transform="translate(-167.81 5.95)"/><path id="path3192" class="cls-4" d="M354.08,250V198" transform="translate(-167.81 5.95)"/><path id="path3194" class="cls-4" d="M376.43,286.23V234.29" transform="translate(-167.81 5.95)"/><path id="path3200" class="cls-4" d="M353.48,253l24.76-18.12" transform="translate(-167.81 5.95)"/></svg>